G04*
G04 #@! TF.GenerationSoftware,Altium Limited,Altium Designer,18.1.9 (240)*
G04*
G04 Layer_Color=65535*
%FSLAX25Y25*%
%MOIN*%
G70*
G01*
G75*
%ADD10C,0.01000*%
%ADD11C,0.01968*%
%ADD12C,0.00787*%
%ADD13C,0.11811*%
%ADD14C,0.01500*%
G36*
X150309Y44977D02*
Y44865D01*
X150197D01*
Y44977D01*
Y45089D01*
X150309D01*
Y44977D01*
D02*
G37*
G36*
X123756Y44081D02*
X124092D01*
Y43969D01*
X124429D01*
Y43857D01*
X124653D01*
Y43745D01*
X124877D01*
Y43633D01*
X124989D01*
Y43521D01*
X125213D01*
Y43409D01*
X125325D01*
Y43297D01*
X125661D01*
Y43409D01*
X125997D01*
Y43521D01*
X126333D01*
Y43633D01*
X126893D01*
Y43521D01*
X127229D01*
Y43409D01*
X127454D01*
Y43297D01*
X127566D01*
Y43185D01*
X127790D01*
Y43073D01*
X127902D01*
Y42961D01*
X128014D01*
Y42848D01*
X128126D01*
Y42736D01*
Y42624D01*
X128238D01*
Y42512D01*
X128350D01*
Y42400D01*
Y42288D01*
X128462D01*
Y42176D01*
Y42064D01*
X128574D01*
Y41952D01*
X128686D01*
Y41840D01*
Y41728D01*
X128798D01*
Y41616D01*
Y41504D01*
X128910D01*
Y41392D01*
X129022D01*
Y41280D01*
Y41168D01*
X129134D01*
Y41056D01*
X129246D01*
Y40944D01*
X129358D01*
Y40832D01*
Y40720D01*
X129470D01*
Y40608D01*
X129582D01*
Y40496D01*
X129694D01*
Y40384D01*
X129806D01*
Y40272D01*
X129918D01*
Y40159D01*
X130031D01*
Y40047D01*
X130142D01*
Y39935D01*
X130255D01*
Y39823D01*
X130367D01*
Y39711D01*
X130479D01*
Y39599D01*
X130591D01*
Y39487D01*
X130703D01*
Y39375D01*
X130815D01*
Y39263D01*
X130927D01*
Y39151D01*
X131151D01*
Y39039D01*
X131263D01*
Y38927D01*
X131487D01*
Y38815D01*
X131599D01*
Y38703D01*
X131823D01*
Y38591D01*
X132047D01*
Y38479D01*
X132271D01*
Y38367D01*
X132607D01*
Y38255D01*
X132159D01*
Y38367D01*
X131711D01*
Y38479D01*
X131263D01*
Y38591D01*
X130927D01*
Y38703D01*
X130703D01*
Y38815D01*
X130367D01*
Y38927D01*
X130142D01*
Y39039D01*
X129918D01*
Y39151D01*
X129806D01*
Y39263D01*
X129582D01*
Y39375D01*
X129470D01*
Y39487D01*
X129358D01*
Y39599D01*
X129246D01*
Y39711D01*
X129022D01*
Y39823D01*
X128910D01*
Y39935D01*
X128798D01*
Y40047D01*
Y40159D01*
X128686D01*
Y40272D01*
X128574D01*
Y40384D01*
X128462D01*
Y40496D01*
Y40608D01*
X128350D01*
Y40720D01*
X128238D01*
Y40832D01*
Y40944D01*
X128126D01*
Y41056D01*
X128014D01*
Y41168D01*
X127902D01*
Y41280D01*
Y41392D01*
X127790D01*
Y41504D01*
X127678D01*
Y41616D01*
X127566D01*
Y41728D01*
Y41840D01*
X127454D01*
Y41952D01*
X127342D01*
Y42064D01*
X127118D01*
Y42176D01*
X127006D01*
Y42288D01*
X126781D01*
Y42400D01*
X126445D01*
Y42288D01*
Y42176D01*
X126557D01*
Y42064D01*
Y41952D01*
Y41840D01*
Y41728D01*
X126669D01*
Y41616D01*
Y41504D01*
Y41392D01*
X126557D01*
Y41504D01*
X126445D01*
Y41616D01*
X126333D01*
Y41728D01*
X126221D01*
Y41840D01*
X126109D01*
Y41952D01*
X125997D01*
Y42064D01*
Y42176D01*
X125885D01*
Y42288D01*
Y42400D01*
X125773D01*
Y42512D01*
X125101D01*
Y42624D01*
X124765D01*
Y42736D01*
X124541D01*
Y42848D01*
X124317D01*
Y42961D01*
X124205D01*
Y43073D01*
X124092D01*
Y43185D01*
X123980D01*
Y43073D01*
X124092D01*
Y42961D01*
Y42848D01*
X124205D01*
Y42736D01*
Y42624D01*
Y42512D01*
X124317D01*
Y42400D01*
Y42288D01*
X124429D01*
Y42176D01*
Y42064D01*
Y41952D01*
X124541D01*
Y41840D01*
Y41728D01*
Y41616D01*
X124653D01*
Y41504D01*
Y41392D01*
Y41280D01*
X124765D01*
Y41168D01*
Y41056D01*
Y40944D01*
Y40832D01*
X124877D01*
Y40720D01*
Y40608D01*
Y40496D01*
Y40384D01*
X124989D01*
Y40272D01*
Y40159D01*
Y40047D01*
Y39935D01*
Y39823D01*
Y39711D01*
Y39599D01*
Y39487D01*
Y39375D01*
Y39263D01*
Y39151D01*
Y39039D01*
Y38927D01*
Y38815D01*
X124877D01*
Y38703D01*
Y38591D01*
Y38479D01*
X124765D01*
Y38367D01*
Y38255D01*
Y38143D01*
Y38031D01*
X124653D01*
Y37919D01*
Y37807D01*
X124541D01*
Y37695D01*
Y37583D01*
X124429D01*
Y37471D01*
X124317D01*
Y37359D01*
X124205D01*
Y37247D01*
X123980D01*
Y37135D01*
X123420D01*
Y37247D01*
X123644D01*
Y37359D01*
X123756D01*
Y37471D01*
X123868D01*
Y37583D01*
X123980D01*
Y37695D01*
X124092D01*
Y37807D01*
X124205D01*
Y37919D01*
Y38031D01*
Y38143D01*
X124317D01*
Y38255D01*
Y38367D01*
Y38479D01*
Y38591D01*
Y38703D01*
Y38815D01*
Y38927D01*
Y39039D01*
Y39151D01*
Y39263D01*
Y39375D01*
Y39487D01*
Y39599D01*
Y39711D01*
Y39823D01*
X124205D01*
Y39935D01*
Y40047D01*
Y40159D01*
Y40272D01*
Y40384D01*
X124092D01*
Y40496D01*
Y40608D01*
Y40720D01*
X123980D01*
Y40832D01*
Y40944D01*
Y41056D01*
X123868D01*
Y41168D01*
Y41280D01*
X123756D01*
Y41392D01*
Y41504D01*
X123644D01*
Y41616D01*
Y41728D01*
X123532D01*
Y41840D01*
X123420D01*
Y41952D01*
Y42064D01*
X123196D01*
Y42176D01*
X123084D01*
Y42288D01*
X122860D01*
Y42400D01*
X122300D01*
Y42288D01*
X121964D01*
Y42176D01*
X121740D01*
Y42288D01*
Y42400D01*
Y42512D01*
Y42624D01*
Y42736D01*
Y42848D01*
Y42961D01*
X121852D01*
Y43073D01*
Y43185D01*
X121964D01*
Y43297D01*
Y43409D01*
X122076D01*
Y43521D01*
X122188D01*
Y43633D01*
X122300D01*
Y43745D01*
X122412D01*
Y43857D01*
X122524D01*
Y43969D01*
X122748D01*
Y44081D01*
X123084D01*
Y44193D01*
X123756D01*
Y44081D01*
D02*
G37*
G36*
X127454Y40159D02*
X127566D01*
Y40047D01*
Y39935D01*
X127678D01*
Y39823D01*
X127790D01*
Y39711D01*
X127902D01*
Y39599D01*
X128014D01*
Y39487D01*
X128126D01*
Y39375D01*
X128238D01*
Y39263D01*
Y39151D01*
X128350D01*
Y39039D01*
X128574D01*
Y38927D01*
X128686D01*
Y38815D01*
X128798D01*
Y38703D01*
X128910D01*
Y38591D01*
X129134D01*
Y38479D01*
X129246D01*
Y38367D01*
X129470D01*
Y38255D01*
X129582D01*
Y38143D01*
X129806D01*
Y38031D01*
X130142D01*
Y37919D01*
X130255D01*
Y37807D01*
X129694D01*
Y37919D01*
X129246D01*
Y38031D01*
X129022D01*
Y38143D01*
X128798D01*
Y38255D01*
X128574D01*
Y38367D01*
X128462D01*
Y38479D01*
X128350D01*
Y38591D01*
X128238D01*
Y38703D01*
X128126D01*
Y38815D01*
X128014D01*
Y38927D01*
X127902D01*
Y39039D01*
X127790D01*
Y39151D01*
Y39263D01*
X127678D01*
Y39375D01*
X127566D01*
Y39487D01*
Y39599D01*
X127454D01*
Y39711D01*
Y39823D01*
Y39935D01*
X127342D01*
Y40047D01*
Y40159D01*
Y40272D01*
X127454D01*
Y40159D01*
D02*
G37*
G36*
X117258Y34558D02*
Y34446D01*
X117146D01*
Y34334D01*
X117034D01*
Y34222D01*
Y34110D01*
X116922D01*
Y33997D01*
X116810D01*
Y33885D01*
X116698D01*
Y33773D01*
X116586D01*
Y33661D01*
X116474D01*
Y33549D01*
Y33437D01*
X116250D01*
Y33325D01*
X116138D01*
Y33213D01*
X116026D01*
Y33101D01*
X115914D01*
Y32989D01*
X115802D01*
Y32877D01*
X115578D01*
Y32765D01*
X115466D01*
Y32653D01*
X115242D01*
Y32541D01*
X115129D01*
Y32429D01*
X114905D01*
Y32317D01*
X114681D01*
Y32205D01*
X114345D01*
Y32093D01*
X114009D01*
Y31981D01*
X113449D01*
Y31869D01*
X112553D01*
Y31757D01*
X112665D01*
Y31645D01*
X112889D01*
Y31533D01*
X113001D01*
Y31421D01*
X113225D01*
Y31308D01*
X113449D01*
Y31196D01*
X113673D01*
Y31084D01*
X113897D01*
Y30972D01*
X114233D01*
Y30860D01*
X114457D01*
Y30748D01*
X114793D01*
Y30636D01*
X115242D01*
Y30524D01*
X115578D01*
Y30412D01*
X115914D01*
Y30300D01*
X115242D01*
Y30188D01*
X113561D01*
Y30300D01*
X113001D01*
Y30412D01*
X112553D01*
Y30524D01*
X112329D01*
Y30636D01*
X111992D01*
Y30748D01*
X111880D01*
Y30860D01*
X111656D01*
Y30972D01*
X111432D01*
Y31084D01*
X111320D01*
Y31196D01*
X111208D01*
Y31308D01*
X111096D01*
Y31421D01*
X110872D01*
Y31533D01*
X110760D01*
Y31645D01*
X110648D01*
Y31757D01*
Y31869D01*
X110536D01*
Y31981D01*
X110424D01*
Y32093D01*
X110312D01*
Y32205D01*
X110200D01*
Y32317D01*
Y32429D01*
X110088D01*
Y32541D01*
X109976D01*
Y32653D01*
Y32765D01*
X109864D01*
Y32877D01*
X109752D01*
Y32989D01*
Y33101D01*
X109640D01*
Y33213D01*
Y33325D01*
X109528D01*
Y33437D01*
Y33549D01*
X109415D01*
Y33661D01*
Y33773D01*
X109303D01*
Y33885D01*
Y33997D01*
Y34110D01*
X109191D01*
Y34222D01*
X109303D01*
Y34110D01*
X109415D01*
Y33997D01*
X109528D01*
Y33885D01*
X109752D01*
Y33773D01*
X109864D01*
Y33661D01*
X110088D01*
Y33549D01*
X110200D01*
Y33437D01*
X110424D01*
Y33325D01*
X110648D01*
Y33213D01*
X110872D01*
Y33101D01*
X111096D01*
Y32989D01*
X111432D01*
Y32877D01*
X112104D01*
Y32989D01*
X112216D01*
Y33101D01*
X112329D01*
Y33213D01*
Y33325D01*
X112553D01*
Y33213D01*
Y33101D01*
X112665D01*
Y32989D01*
X112777D01*
Y32877D01*
X113113D01*
Y32765D01*
X113897D01*
Y32877D01*
X114457D01*
Y32989D01*
X114793D01*
Y33101D01*
X115017D01*
Y33213D01*
X115354D01*
Y33325D01*
X115466D01*
Y33437D01*
X115690D01*
Y33549D01*
X115914D01*
Y33661D01*
X116026D01*
Y33773D01*
X116250D01*
Y33885D01*
X116362D01*
Y33997D01*
X116474D01*
Y34110D01*
X116586D01*
Y34222D01*
X116810D01*
Y34334D01*
X116922D01*
Y34446D01*
X117034D01*
Y34558D01*
X117146D01*
Y34670D01*
X117258D01*
Y34558D01*
D02*
G37*
G36*
X126109Y39487D02*
X126221D01*
Y39375D01*
X126333D01*
Y39263D01*
Y39151D01*
X126445D01*
Y39039D01*
X126557D01*
Y38927D01*
X126669D01*
Y38815D01*
Y38703D01*
X126781D01*
Y38591D01*
X126893D01*
Y38479D01*
X127006D01*
Y38367D01*
X127118D01*
Y38255D01*
X127229D01*
Y38143D01*
X127342D01*
Y38031D01*
X127454D01*
Y37919D01*
X127566D01*
Y37807D01*
X127790D01*
Y37695D01*
X127902D01*
Y37583D01*
X128126D01*
Y37471D01*
X128238D01*
Y37359D01*
X128462D01*
Y37247D01*
X128686D01*
Y37135D01*
X128910D01*
Y37023D01*
X129246D01*
Y36910D01*
X129694D01*
Y36798D01*
X130591D01*
Y36686D01*
Y36574D01*
X130479D01*
Y36462D01*
X130367D01*
Y36350D01*
X130255D01*
Y36238D01*
Y36126D01*
X130142D01*
Y36014D01*
X130031D01*
Y35902D01*
Y35790D01*
X129918D01*
Y35678D01*
X129806D01*
Y35566D01*
Y35454D01*
X129694D01*
Y35342D01*
X129582D01*
Y35230D01*
Y35118D01*
X129470D01*
Y35006D01*
X129358D01*
Y34894D01*
Y34782D01*
X129246D01*
Y34670D01*
Y34558D01*
X129134D01*
Y34446D01*
X129022D01*
Y34334D01*
Y34222D01*
X128910D01*
Y34110D01*
Y33997D01*
X128798D01*
Y33885D01*
Y33773D01*
X128686D01*
Y33661D01*
Y33549D01*
X128574D01*
Y33437D01*
Y33325D01*
X128462D01*
Y33213D01*
Y33101D01*
X128350D01*
Y32989D01*
Y32877D01*
X128238D01*
Y32765D01*
Y32653D01*
Y32541D01*
X128126D01*
Y32429D01*
Y32317D01*
X128014D01*
Y32205D01*
Y32093D01*
Y31981D01*
X127902D01*
Y31869D01*
Y31757D01*
X127790D01*
Y31645D01*
Y31533D01*
Y31421D01*
Y31308D01*
X127678D01*
Y31196D01*
Y31084D01*
Y30972D01*
X127566D01*
Y30860D01*
Y30748D01*
Y30636D01*
X127454D01*
Y30524D01*
Y30412D01*
Y30300D01*
Y30188D01*
X127342D01*
Y30076D01*
Y29964D01*
Y29852D01*
Y29740D01*
Y29628D01*
X127229D01*
Y29516D01*
Y29404D01*
Y29292D01*
Y29180D01*
Y29068D01*
X127118D01*
Y29180D01*
Y29292D01*
X127006D01*
Y29404D01*
Y29516D01*
Y29628D01*
X126893D01*
Y29740D01*
Y29852D01*
Y29964D01*
X126781D01*
Y30076D01*
Y30188D01*
Y30300D01*
X126669D01*
Y30412D01*
Y30524D01*
X126557D01*
Y30636D01*
Y30748D01*
Y30860D01*
X126445D01*
Y30972D01*
Y31084D01*
Y31196D01*
X126333D01*
Y31308D01*
Y31421D01*
X126221D01*
Y31533D01*
Y31645D01*
Y31757D01*
X126109D01*
Y31869D01*
Y31981D01*
X125997D01*
Y32093D01*
Y32205D01*
X125885D01*
Y32317D01*
Y32429D01*
X125773D01*
Y32541D01*
Y32653D01*
Y32765D01*
X125661D01*
Y32877D01*
Y32989D01*
X125549D01*
Y33101D01*
Y33213D01*
X125437D01*
Y33325D01*
Y33437D01*
X125325D01*
Y33549D01*
Y33661D01*
X125213D01*
Y33773D01*
Y33885D01*
X125101D01*
Y33997D01*
Y34110D01*
X124989D01*
Y34222D01*
X124877D01*
Y34334D01*
Y34446D01*
X124765D01*
Y34558D01*
Y34670D01*
X124653D01*
Y34782D01*
X124541D01*
Y34894D01*
Y35006D01*
X124429D01*
Y35118D01*
X124317D01*
Y35230D01*
Y35342D01*
X124205D01*
Y35454D01*
X124092D01*
Y35566D01*
Y35678D01*
X124205D01*
Y35790D01*
X124317D01*
Y35902D01*
X124429D01*
Y36014D01*
X124541D01*
Y36126D01*
X124653D01*
Y36238D01*
X124765D01*
Y36350D01*
Y36462D01*
X124877D01*
Y36574D01*
X124989D01*
Y36686D01*
X125101D01*
Y36798D01*
Y36910D01*
X125213D01*
Y37023D01*
Y37135D01*
Y37247D01*
X125325D01*
Y37359D01*
Y37471D01*
X125437D01*
Y37583D01*
Y37695D01*
Y37807D01*
Y37919D01*
Y38031D01*
Y38143D01*
X125549D01*
Y38255D01*
Y38367D01*
Y38479D01*
Y38591D01*
Y38703D01*
Y38815D01*
Y38927D01*
X125437D01*
Y39039D01*
Y39151D01*
Y39263D01*
Y39375D01*
Y39487D01*
Y39599D01*
X125549D01*
Y39487D01*
Y39375D01*
Y39263D01*
X125661D01*
Y39151D01*
Y39039D01*
Y38927D01*
Y38815D01*
X125773D01*
Y38703D01*
Y38591D01*
Y38479D01*
Y38367D01*
Y38255D01*
X125885D01*
Y38143D01*
Y38031D01*
Y37919D01*
Y37807D01*
Y37695D01*
Y37583D01*
Y37471D01*
Y37359D01*
Y37247D01*
Y37135D01*
X125773D01*
Y37023D01*
Y36910D01*
Y36798D01*
Y36686D01*
Y36574D01*
X125661D01*
Y36462D01*
Y36350D01*
Y36238D01*
Y36126D01*
X125549D01*
Y36014D01*
Y35902D01*
X125437D01*
Y35790D01*
Y35678D01*
Y35566D01*
X125325D01*
Y35454D01*
Y35342D01*
X125437D01*
Y35230D01*
X125549D01*
Y35118D01*
Y35006D01*
X125661D01*
Y34894D01*
X125773D01*
Y34782D01*
Y34670D01*
X125885D01*
Y34558D01*
X125997D01*
Y34446D01*
Y34334D01*
X126109D01*
Y34222D01*
Y34110D01*
X126221D01*
Y33997D01*
Y33885D01*
X126333D01*
Y33773D01*
Y33661D01*
X126445D01*
Y33549D01*
Y33437D01*
X126557D01*
Y33325D01*
Y33213D01*
X126669D01*
Y33101D01*
Y32989D01*
Y32877D01*
X126781D01*
Y32765D01*
Y32653D01*
Y32541D01*
X127006D01*
Y32653D01*
Y32765D01*
X127118D01*
Y32877D01*
Y32989D01*
X127229D01*
Y33101D01*
Y33213D01*
X127342D01*
Y33325D01*
Y33437D01*
X127454D01*
Y33549D01*
Y33661D01*
X127566D01*
Y33773D01*
Y33885D01*
X127678D01*
Y33997D01*
X127790D01*
Y34110D01*
Y34222D01*
X127902D01*
Y34334D01*
X128014D01*
Y34446D01*
Y34558D01*
X128126D01*
Y34670D01*
X128238D01*
Y34782D01*
X128350D01*
Y34894D01*
Y35006D01*
X128462D01*
Y35118D01*
X128574D01*
Y35230D01*
X128686D01*
Y35342D01*
X128798D01*
Y35454D01*
X128910D01*
Y35566D01*
X128798D01*
Y35678D01*
X128686D01*
Y35790D01*
X128574D01*
Y35902D01*
X128462D01*
Y36014D01*
X128350D01*
Y36126D01*
X128238D01*
Y36238D01*
X128126D01*
Y36350D01*
X128014D01*
Y36462D01*
Y36574D01*
X127902D01*
Y36686D01*
X127790D01*
Y36798D01*
X127678D01*
Y36910D01*
X127566D01*
Y37023D01*
X127454D01*
Y37135D01*
Y37247D01*
X127342D01*
Y37359D01*
X127229D01*
Y37471D01*
X127118D01*
Y37583D01*
Y37695D01*
X127006D01*
Y37807D01*
X126893D01*
Y37919D01*
X126781D01*
Y38031D01*
Y38143D01*
X126669D01*
Y38255D01*
X126557D01*
Y38367D01*
Y38479D01*
X126445D01*
Y38591D01*
Y38703D01*
X126333D01*
Y38815D01*
Y38927D01*
X126221D01*
Y39039D01*
Y39151D01*
X126109D01*
Y39263D01*
Y39375D01*
X125997D01*
Y39487D01*
Y39599D01*
X126109D01*
Y39487D01*
D02*
G37*
G36*
X137089Y34670D02*
X137201D01*
Y34558D01*
X137313D01*
Y34446D01*
X137425D01*
Y34334D01*
X137537D01*
Y34222D01*
X137649D01*
Y34110D01*
X137761D01*
Y33997D01*
X137985D01*
Y33885D01*
X138097D01*
Y33773D01*
X138209D01*
Y33661D01*
X138433D01*
Y33549D01*
X138545D01*
Y33437D01*
X138769D01*
Y33325D01*
X138994D01*
Y33213D01*
X139106D01*
Y33101D01*
X139442D01*
Y32989D01*
X139666D01*
Y32877D01*
X140002D01*
Y32765D01*
X140898D01*
Y32653D01*
X141010D01*
Y32765D01*
X141570D01*
Y32877D01*
X141682D01*
Y32989D01*
X141795D01*
Y33101D01*
X141906D01*
Y33213D01*
Y33325D01*
X142018D01*
Y33213D01*
Y33101D01*
X142131D01*
Y32989D01*
X142243D01*
Y32877D01*
X142355D01*
Y32765D01*
X142915D01*
Y32877D01*
X143251D01*
Y32989D01*
X143475D01*
Y33101D01*
X143699D01*
Y33213D01*
X143923D01*
Y33325D01*
X144147D01*
Y33437D01*
X144371D01*
Y33549D01*
X144483D01*
Y33661D01*
X144707D01*
Y33773D01*
X144819D01*
Y33885D01*
X144931D01*
Y33997D01*
X145156D01*
Y33885D01*
X145044D01*
Y33773D01*
Y33661D01*
Y33549D01*
X144931D01*
Y33437D01*
Y33325D01*
X144819D01*
Y33213D01*
Y33101D01*
X144707D01*
Y32989D01*
Y32877D01*
X144595D01*
Y32765D01*
X144483D01*
Y32653D01*
Y32541D01*
X144371D01*
Y32429D01*
Y32317D01*
X144259D01*
Y32205D01*
X144147D01*
Y32093D01*
X144035D01*
Y31981D01*
Y31869D01*
X143923D01*
Y31757D01*
X143811D01*
Y31645D01*
X143699D01*
Y31533D01*
X143587D01*
Y31421D01*
X143475D01*
Y31308D01*
X143363D01*
Y31196D01*
X143251D01*
Y31084D01*
X143027D01*
Y30972D01*
X142915D01*
Y30860D01*
X142691D01*
Y30748D01*
X142579D01*
Y30636D01*
X142355D01*
Y30524D01*
X142131D01*
Y30412D01*
X141795D01*
Y30300D01*
X141346D01*
Y30188D01*
X140674D01*
Y30076D01*
X139442D01*
Y30188D01*
X138657D01*
Y30300D01*
X138769D01*
Y30412D01*
X139106D01*
Y30524D01*
X139554D01*
Y30636D01*
X139890D01*
Y30748D01*
X140226D01*
Y30860D01*
X140450D01*
Y30972D01*
X140674D01*
Y31084D01*
X140898D01*
Y31196D01*
X141122D01*
Y31308D01*
X141346D01*
Y31421D01*
X141458D01*
Y31533D01*
X141682D01*
Y31645D01*
X141795D01*
Y31757D01*
X141010D01*
Y31869D01*
X140450D01*
Y31981D01*
X140114D01*
Y32093D01*
X139778D01*
Y32205D01*
X139554D01*
Y32317D01*
X139330D01*
Y32429D01*
X139218D01*
Y32541D01*
X138994D01*
Y32653D01*
X138769D01*
Y32765D01*
X138657D01*
Y32877D01*
X138545D01*
Y32989D01*
X138433D01*
Y33101D01*
X138209D01*
Y33213D01*
X138097D01*
Y33325D01*
X137985D01*
Y33437D01*
X137873D01*
Y33549D01*
X137761D01*
Y33661D01*
Y33773D01*
X137649D01*
Y33885D01*
X137537D01*
Y33997D01*
X137425D01*
Y34110D01*
X137313D01*
Y34222D01*
Y34334D01*
X137201D01*
Y34446D01*
X137089D01*
Y34558D01*
Y34670D01*
X136977D01*
Y34782D01*
X137089D01*
Y34670D01*
D02*
G37*
G36*
X143363Y50579D02*
Y50467D01*
Y50355D01*
Y50243D01*
Y50131D01*
Y50019D01*
Y49907D01*
X143251D01*
Y49795D01*
Y49683D01*
Y49571D01*
Y49459D01*
Y49347D01*
Y49235D01*
Y49123D01*
Y49011D01*
Y48899D01*
Y48787D01*
Y48674D01*
X143139D01*
Y48562D01*
Y48450D01*
Y48338D01*
Y48226D01*
Y48114D01*
X143027D01*
Y48002D01*
Y47890D01*
Y47778D01*
Y47666D01*
X142915D01*
Y47554D01*
Y47442D01*
Y47330D01*
X142803D01*
Y47218D01*
Y47106D01*
X142691D01*
Y46994D01*
Y46882D01*
Y46770D01*
X142579D01*
Y46658D01*
Y46546D01*
X142467D01*
Y46434D01*
Y46322D01*
X142355D01*
Y46210D01*
Y46097D01*
X142243D01*
Y45985D01*
Y45873D01*
X142131D01*
Y45761D01*
X142018D01*
Y45649D01*
Y45537D01*
X141906D01*
Y45425D01*
X141795D01*
Y45313D01*
Y45201D01*
X141682D01*
Y45089D01*
X141570D01*
Y44977D01*
X141458D01*
Y44865D01*
Y44753D01*
X141346D01*
Y44641D01*
X141234D01*
Y44529D01*
X141122D01*
Y44417D01*
X141010D01*
Y44305D01*
X140898D01*
Y44193D01*
X140786D01*
Y44081D01*
X140674D01*
Y43969D01*
X140562D01*
Y43857D01*
X140450D01*
Y43745D01*
X140338D01*
Y43633D01*
X140226D01*
Y43521D01*
X140002D01*
Y43409D01*
X139890D01*
Y43297D01*
X139778D01*
Y43185D01*
X139666D01*
Y43073D01*
X139442D01*
Y42961D01*
X139330D01*
Y42848D01*
X139218D01*
Y42736D01*
X138994D01*
Y42624D01*
X138882D01*
Y42512D01*
X138657D01*
Y42400D01*
X138545D01*
Y42288D01*
X138321D01*
Y42176D01*
X138097D01*
Y42288D01*
X138209D01*
Y42400D01*
X138321D01*
Y42512D01*
X138433D01*
Y42624D01*
X138545D01*
Y42736D01*
X138657D01*
Y42848D01*
X138769D01*
Y42961D01*
X138994D01*
Y43073D01*
X139106D01*
Y43185D01*
X139218D01*
Y43297D01*
X139330D01*
Y43409D01*
X139442D01*
Y43521D01*
X139554D01*
Y43633D01*
X139666D01*
Y43745D01*
X139778D01*
Y43857D01*
X139890D01*
Y43969D01*
X140002D01*
Y44081D01*
X140114D01*
Y44193D01*
Y44305D01*
X140226D01*
Y44417D01*
X140338D01*
Y44529D01*
X140450D01*
Y44641D01*
Y44753D01*
X140562D01*
Y44865D01*
X140674D01*
Y44977D01*
Y45089D01*
X140786D01*
Y45201D01*
Y45313D01*
X140898D01*
Y45425D01*
Y45537D01*
Y45649D01*
X141010D01*
Y45761D01*
Y45873D01*
X140786D01*
Y45761D01*
X140562D01*
Y45649D01*
X140226D01*
Y45537D01*
X139890D01*
Y45425D01*
X139330D01*
Y45313D01*
X138882D01*
Y45201D01*
X138769D01*
Y45089D01*
X138657D01*
Y44977D01*
X138545D01*
Y44865D01*
X138321D01*
Y44753D01*
X138209D01*
Y44641D01*
X138097D01*
Y44529D01*
X137985D01*
Y44417D01*
X137873D01*
Y44305D01*
X137761D01*
Y44193D01*
X137649D01*
Y44081D01*
X137537D01*
Y43969D01*
X137425D01*
Y43857D01*
X137313D01*
Y43745D01*
X137201D01*
Y43633D01*
X137089D01*
Y43521D01*
X136977D01*
Y43409D01*
X136865D01*
Y43297D01*
Y43185D01*
X136753D01*
Y43073D01*
X136641D01*
Y42961D01*
X136529D01*
Y42848D01*
X136417D01*
Y42736D01*
X136305D01*
Y42624D01*
X136193D01*
Y42512D01*
Y42400D01*
X136081D01*
Y42288D01*
X135968D01*
Y42176D01*
X135856D01*
Y42064D01*
X135744D01*
Y41952D01*
Y41840D01*
X135632D01*
Y41728D01*
X135520D01*
Y41616D01*
X135408D01*
Y41504D01*
X135296D01*
Y41392D01*
Y41280D01*
X135184D01*
Y41168D01*
Y41056D01*
Y40944D01*
Y40832D01*
Y40720D01*
Y40608D01*
Y40496D01*
Y40384D01*
Y40272D01*
X135296D01*
Y40159D01*
Y40047D01*
X135408D01*
Y39935D01*
X135520D01*
Y39823D01*
X135632D01*
Y39711D01*
X135856D01*
Y39823D01*
X135968D01*
Y39935D01*
X136081D01*
Y40047D01*
X136305D01*
Y40159D01*
X136417D01*
Y40272D01*
X136529D01*
Y40384D01*
X136753D01*
Y40496D01*
X136865D01*
Y40608D01*
X137089D01*
Y40720D01*
X137201D01*
Y40832D01*
X137313D01*
Y40944D01*
X137537D01*
Y41056D01*
X137649D01*
Y41168D01*
X137873D01*
Y41280D01*
X137985D01*
Y41392D01*
X138097D01*
Y41504D01*
X138321D01*
Y41616D01*
X138433D01*
Y41728D01*
X138657D01*
Y41840D01*
X138882D01*
Y41952D01*
X138994D01*
Y42064D01*
X139218D01*
Y42176D01*
X139442D01*
Y42288D01*
X139554D01*
Y42400D01*
X139778D01*
Y42512D01*
X140002D01*
Y42624D01*
X140226D01*
Y42736D01*
X140450D01*
Y42848D01*
X140674D01*
Y42961D01*
X140898D01*
Y43073D01*
X141234D01*
Y43185D01*
X141458D01*
Y43297D01*
X141682D01*
Y43409D01*
X141906D01*
Y43521D01*
X142131D01*
Y43633D01*
X142355D01*
Y43745D01*
X142579D01*
Y43857D01*
X142803D01*
Y43969D01*
X142915D01*
Y44081D01*
X143139D01*
Y44193D01*
X143251D01*
Y44305D01*
X143363D01*
Y44417D01*
X143475D01*
Y44529D01*
X143587D01*
Y44641D01*
X143699D01*
Y44753D01*
X143811D01*
Y44865D01*
X143923D01*
Y44977D01*
X144035D01*
Y45089D01*
X144147D01*
Y45201D01*
X144259D01*
Y45313D01*
Y45425D01*
X144371D01*
Y45537D01*
X144483D01*
Y45649D01*
Y45761D01*
X144595D01*
Y45873D01*
X144707D01*
Y45985D01*
Y46097D01*
X144819D01*
Y46210D01*
Y46322D01*
X144931D01*
Y46434D01*
Y46546D01*
X145044D01*
Y46658D01*
Y46770D01*
X145156D01*
Y46882D01*
Y46994D01*
X145268D01*
Y47106D01*
Y47218D01*
X145380D01*
Y47330D01*
Y47442D01*
X145492D01*
Y47330D01*
Y47218D01*
Y47106D01*
X145380D01*
Y46994D01*
Y46882D01*
Y46770D01*
Y46658D01*
X145268D01*
Y46546D01*
Y46434D01*
Y46322D01*
Y46210D01*
X145156D01*
Y46097D01*
Y45985D01*
X145044D01*
Y45873D01*
Y45761D01*
Y45649D01*
X144931D01*
Y45537D01*
Y45425D01*
X144819D01*
Y45313D01*
Y45201D01*
X144707D01*
Y45089D01*
Y44977D01*
X144595D01*
Y44865D01*
Y44753D01*
X144483D01*
Y44641D01*
X144371D01*
Y44529D01*
Y44417D01*
X144259D01*
Y44305D01*
X144147D01*
Y44193D01*
X144035D01*
Y44081D01*
Y43969D01*
X143923D01*
Y43857D01*
X143811D01*
Y43745D01*
X143699D01*
Y43633D01*
X143587D01*
Y43521D01*
X143475D01*
Y43409D01*
X143363D01*
Y43297D01*
X143251D01*
Y43185D01*
X143699D01*
Y43297D01*
X144707D01*
Y43409D01*
X145492D01*
Y43297D01*
X146500D01*
Y43185D01*
X147732D01*
Y43297D01*
X148181D01*
Y43409D01*
X148517D01*
Y43521D01*
X148741D01*
Y43633D01*
X148965D01*
Y43745D01*
X149077D01*
Y43857D01*
X149301D01*
Y43969D01*
X149413D01*
Y44081D01*
X149525D01*
Y44193D01*
X149637D01*
Y44305D01*
X149749D01*
Y44417D01*
X149861D01*
Y44529D01*
X149973D01*
Y44641D01*
Y44753D01*
X150085D01*
Y44865D01*
X150197D01*
Y44753D01*
Y44641D01*
Y44529D01*
Y44417D01*
Y44305D01*
Y44193D01*
X150085D01*
Y44081D01*
Y43969D01*
Y43857D01*
Y43745D01*
Y43633D01*
X149973D01*
Y43521D01*
Y43409D01*
Y43297D01*
Y43185D01*
X149861D01*
Y43073D01*
Y42961D01*
Y42848D01*
X149749D01*
Y42736D01*
Y42624D01*
Y42512D01*
X149637D01*
Y42400D01*
Y42288D01*
X149525D01*
Y42176D01*
X149413D01*
Y42064D01*
Y41952D01*
X149301D01*
Y41840D01*
X149189D01*
Y41728D01*
X149077D01*
Y41616D01*
X148965D01*
Y41504D01*
X148853D01*
Y41392D01*
X148741D01*
Y41280D01*
X148629D01*
Y41168D01*
X148405D01*
Y41056D01*
X148293D01*
Y40944D01*
X148069D01*
Y40832D01*
X147845D01*
Y40720D01*
X147620D01*
Y40608D01*
X147396D01*
Y40496D01*
X147172D01*
Y40384D01*
X146948D01*
Y40272D01*
X146612D01*
Y40159D01*
X146276D01*
Y40047D01*
X145940D01*
Y39935D01*
X145492D01*
Y39823D01*
X145044D01*
Y39711D01*
X144595D01*
Y39599D01*
X144035D01*
Y39487D01*
X143251D01*
Y39375D01*
X142243D01*
Y39263D01*
X140786D01*
Y39151D01*
X139554D01*
Y39263D01*
X140114D01*
Y39375D01*
X140674D01*
Y39487D01*
X141122D01*
Y39599D01*
X141682D01*
Y39711D01*
X142131D01*
Y39823D01*
X142467D01*
Y39935D01*
X142915D01*
Y40047D01*
X143251D01*
Y40159D01*
X143587D01*
Y40272D01*
X143923D01*
Y40384D01*
X144259D01*
Y40496D01*
X144595D01*
Y40608D01*
X144707D01*
Y40720D01*
Y40832D01*
X144819D01*
Y40944D01*
X144931D01*
Y41056D01*
X145492D01*
Y40944D01*
X145604D01*
Y40832D01*
X145828D01*
Y40944D01*
X146164D01*
Y41056D01*
X146500D01*
Y41168D01*
X146724D01*
Y41280D01*
X146948D01*
Y41392D01*
X147172D01*
Y41504D01*
X147284D01*
Y41616D01*
X147508D01*
Y41728D01*
X147620D01*
Y41840D01*
X147060D01*
Y41952D01*
X146276D01*
Y42064D01*
X145380D01*
Y42176D01*
X144035D01*
Y42288D01*
X142803D01*
Y42176D01*
X141795D01*
Y42064D01*
X141346D01*
Y41952D01*
X141010D01*
Y41840D01*
X140786D01*
Y41728D01*
X140674D01*
Y41616D01*
X140450D01*
Y41504D01*
X140338D01*
Y41392D01*
X140114D01*
Y41280D01*
X140002D01*
Y41168D01*
X139778D01*
Y41056D01*
X139666D01*
Y40944D01*
X139442D01*
Y40832D01*
X139330D01*
Y40720D01*
X139106D01*
Y40608D01*
X138994D01*
Y40496D01*
X138769D01*
Y40384D01*
X138657D01*
Y40272D01*
X138433D01*
Y40159D01*
X138321D01*
Y40047D01*
X138209D01*
Y39935D01*
X137985D01*
Y39823D01*
X137873D01*
Y39711D01*
X137649D01*
Y39599D01*
X137537D01*
Y39487D01*
X137425D01*
Y39375D01*
X137201D01*
Y39263D01*
X137089D01*
Y39151D01*
X136977D01*
Y39039D01*
X136865D01*
Y38927D01*
X136641D01*
Y38815D01*
X136529D01*
Y38703D01*
X136417D01*
Y38591D01*
X136305D01*
Y38479D01*
X136193D01*
Y38367D01*
X135968D01*
Y38255D01*
X135856D01*
Y38143D01*
X135744D01*
Y38031D01*
X135632D01*
Y37919D01*
X135520D01*
Y37807D01*
X135408D01*
Y37695D01*
X135296D01*
Y37583D01*
X135184D01*
Y37471D01*
X135072D01*
Y37359D01*
X134960D01*
Y37247D01*
X134848D01*
Y37135D01*
X134736D01*
Y37023D01*
X134624D01*
Y36910D01*
X134512D01*
Y36798D01*
X134400D01*
Y36686D01*
X134288D01*
Y36574D01*
X134176D01*
Y36462D01*
Y36350D01*
X134064D01*
Y36238D01*
X133952D01*
Y36126D01*
X133840D01*
Y36014D01*
X133728D01*
Y35902D01*
Y35790D01*
X133616D01*
Y35678D01*
X133504D01*
Y35566D01*
Y35454D01*
X133392D01*
Y35342D01*
Y35230D01*
X133280D01*
Y35118D01*
Y35006D01*
Y34894D01*
X133168D01*
Y34782D01*
Y34670D01*
Y34558D01*
Y34446D01*
X133504D01*
Y34558D01*
X133728D01*
Y34670D01*
X133952D01*
Y34782D01*
X134176D01*
Y34894D01*
X134288D01*
Y35006D01*
X134512D01*
Y35118D01*
X134624D01*
Y35230D01*
X134848D01*
Y35342D01*
X134960D01*
Y35454D01*
X135072D01*
Y35566D01*
X135184D01*
Y35678D01*
X135408D01*
Y35790D01*
X135520D01*
Y35902D01*
X135632D01*
Y36014D01*
X135744D01*
Y36126D01*
X135856D01*
Y36238D01*
X136081D01*
Y36350D01*
X136193D01*
Y36462D01*
X136305D01*
Y36574D01*
X136417D01*
Y36686D01*
X136641D01*
Y36798D01*
X136753D01*
Y36910D01*
X136977D01*
Y37023D01*
X137089D01*
Y37135D01*
X137313D01*
Y37247D01*
X137537D01*
Y37359D01*
X137873D01*
Y37471D01*
X138097D01*
Y37583D01*
X138321D01*
Y37695D01*
X138657D01*
Y37807D01*
X138994D01*
Y37919D01*
X139330D01*
Y38031D01*
X139666D01*
Y38143D01*
X140114D01*
Y38255D01*
X140562D01*
Y38367D01*
X141010D01*
Y38479D01*
X141682D01*
Y38591D01*
X142355D01*
Y38703D01*
X143139D01*
Y38815D01*
X143475D01*
Y38703D01*
X145828D01*
Y38815D01*
X146612D01*
Y38927D01*
X147172D01*
Y39039D01*
X147845D01*
Y39151D01*
X148293D01*
Y39263D01*
X148741D01*
Y39151D01*
Y39039D01*
X148629D01*
Y38927D01*
X148517D01*
Y38815D01*
Y38703D01*
X148405D01*
Y38591D01*
X148293D01*
Y38479D01*
Y38367D01*
X148181D01*
Y38255D01*
X148069D01*
Y38143D01*
X147957D01*
Y38031D01*
Y37919D01*
X147845D01*
Y37807D01*
X147732D01*
Y37695D01*
X147620D01*
Y37583D01*
X147508D01*
Y37471D01*
X147396D01*
Y37359D01*
X147284D01*
Y37247D01*
X147172D01*
Y37135D01*
X147060D01*
Y37023D01*
X146836D01*
Y36910D01*
X146724D01*
Y36798D01*
X146612D01*
Y36686D01*
X146388D01*
Y36574D01*
X146276D01*
Y36462D01*
X146052D01*
Y36350D01*
X145828D01*
Y36238D01*
X145716D01*
Y36126D01*
X145492D01*
Y36014D01*
X145268D01*
Y35902D01*
X145044D01*
Y35790D01*
X144707D01*
Y35678D01*
X144371D01*
Y35566D01*
X144147D01*
Y35454D01*
X143699D01*
Y35342D01*
X143363D01*
Y35230D01*
X142803D01*
Y35118D01*
X142243D01*
Y35006D01*
X141458D01*
Y34894D01*
X140450D01*
Y34782D01*
X139106D01*
Y34894D01*
X139554D01*
Y35006D01*
X140002D01*
Y35118D01*
X140338D01*
Y35230D01*
X140674D01*
Y35342D01*
X141010D01*
Y35454D01*
X141234D01*
Y35566D01*
X141458D01*
Y35678D01*
X141682D01*
Y35790D01*
X141906D01*
Y35902D01*
X142131D01*
Y36014D01*
X142243D01*
Y36126D01*
X142467D01*
Y36238D01*
X142579D01*
Y36350D01*
X142803D01*
Y36462D01*
X142915D01*
Y36574D01*
X143027D01*
Y36686D01*
X143251D01*
Y36798D01*
X143363D01*
Y36910D01*
X143475D01*
Y37023D01*
X143587D01*
Y37135D01*
X143699D01*
Y37247D01*
X143811D01*
Y37359D01*
X143923D01*
Y37471D01*
X143251D01*
Y37583D01*
X142131D01*
Y37471D01*
X141122D01*
Y37359D01*
X140562D01*
Y37247D01*
X140114D01*
Y37135D01*
X139666D01*
Y37023D01*
X139330D01*
Y36910D01*
X138994D01*
Y36798D01*
X138657D01*
Y36686D01*
X138433D01*
Y36574D01*
X138209D01*
Y36462D01*
X137985D01*
Y36350D01*
X137761D01*
Y36238D01*
X137537D01*
Y36126D01*
X137425D01*
Y36014D01*
X137201D01*
Y35902D01*
X137089D01*
Y35790D01*
X136865D01*
Y35678D01*
X136753D01*
Y35566D01*
X136641D01*
Y35454D01*
X136529D01*
Y35342D01*
X136417D01*
Y35230D01*
X136305D01*
Y35118D01*
X136193D01*
Y35006D01*
X136081D01*
Y34894D01*
X135968D01*
Y34782D01*
Y34670D01*
Y34558D01*
Y34446D01*
Y34334D01*
Y34222D01*
Y34110D01*
X135856D01*
Y33997D01*
Y33885D01*
Y33773D01*
Y33661D01*
Y33549D01*
Y33437D01*
Y33325D01*
Y33213D01*
Y33101D01*
X135744D01*
Y32989D01*
Y32877D01*
Y32765D01*
Y32653D01*
Y32541D01*
Y32429D01*
Y32317D01*
Y32205D01*
X135632D01*
Y32093D01*
Y31981D01*
Y31869D01*
Y31757D01*
Y31645D01*
Y31533D01*
X135520D01*
Y31421D01*
Y31308D01*
Y31196D01*
Y31084D01*
Y30972D01*
Y30860D01*
X135408D01*
Y30748D01*
Y30636D01*
Y30524D01*
Y30412D01*
Y30300D01*
X135296D01*
Y30188D01*
Y30076D01*
Y29964D01*
Y29852D01*
Y29740D01*
X135184D01*
Y29628D01*
Y29516D01*
Y29404D01*
Y29292D01*
X135072D01*
Y29180D01*
Y29068D01*
Y28956D01*
X134960D01*
Y28844D01*
Y28732D01*
Y28620D01*
Y28508D01*
X134848D01*
Y28396D01*
Y28284D01*
Y28172D01*
X134736D01*
Y28059D01*
Y27947D01*
Y27835D01*
X134624D01*
Y27723D01*
Y27611D01*
X134512D01*
Y27499D01*
Y27387D01*
Y27275D01*
X134400D01*
Y27163D01*
Y27051D01*
X134288D01*
Y26939D01*
Y26827D01*
Y26715D01*
X134176D01*
Y26603D01*
Y26491D01*
X134064D01*
Y26379D01*
Y26267D01*
X133952D01*
Y26155D01*
Y26043D01*
X133840D01*
Y25931D01*
Y25819D01*
X133728D01*
Y25707D01*
Y25595D01*
X133616D01*
Y25483D01*
Y25370D01*
X133504D01*
Y25258D01*
X133392D01*
Y25146D01*
Y25034D01*
X133280D01*
Y24922D01*
Y24810D01*
X133168D01*
Y24698D01*
X133055D01*
Y24586D01*
Y24474D01*
X132943D01*
Y24362D01*
X132831D01*
Y24250D01*
Y24138D01*
X132719D01*
Y24026D01*
X132607D01*
Y23914D01*
X132495D01*
Y23802D01*
X132607D01*
Y23690D01*
Y23578D01*
Y23466D01*
X132719D01*
Y23354D01*
Y23242D01*
X132831D01*
Y23130D01*
Y23018D01*
X132943D01*
Y22906D01*
Y22794D01*
X133055D01*
Y22682D01*
Y22570D01*
X133168D01*
Y22457D01*
X133280D01*
Y22345D01*
Y22233D01*
X133392D01*
Y22121D01*
Y22009D01*
X133504D01*
Y21897D01*
X133616D01*
Y21785D01*
X133728D01*
Y21673D01*
Y21561D01*
X133840D01*
Y21449D01*
X133952D01*
Y21337D01*
X134064D01*
Y21225D01*
X134176D01*
Y21113D01*
X134288D01*
Y21001D01*
X134400D01*
Y20889D01*
X134512D01*
Y20777D01*
X134624D01*
Y20665D01*
X134736D01*
Y20553D01*
X134848D01*
Y20441D01*
X134960D01*
Y20329D01*
X135072D01*
Y20217D01*
X135184D01*
Y20105D01*
X135296D01*
Y19993D01*
X135408D01*
Y19881D01*
X135184D01*
Y19993D01*
X134960D01*
Y20105D01*
X134736D01*
Y20217D01*
X134512D01*
Y20329D01*
X134288D01*
Y20441D01*
X134176D01*
Y20553D01*
X133952D01*
Y20665D01*
X133840D01*
Y20777D01*
X133728D01*
Y20889D01*
X133616D01*
Y21001D01*
X133504D01*
Y21113D01*
X133392D01*
Y21225D01*
X133280D01*
Y21337D01*
X133168D01*
Y21449D01*
X133055D01*
Y21561D01*
X132943D01*
Y21673D01*
X132831D01*
Y21785D01*
Y21897D01*
X132719D01*
Y22009D01*
X132607D01*
Y22121D01*
Y22233D01*
X132495D01*
Y22345D01*
X132383D01*
Y22457D01*
Y22570D01*
X132271D01*
Y22682D01*
Y22794D01*
X132159D01*
Y22906D01*
Y23018D01*
X132047D01*
Y23130D01*
Y23242D01*
X131935D01*
Y23354D01*
Y23466D01*
X131823D01*
Y23578D01*
Y23690D01*
Y23802D01*
X131711D01*
Y23914D01*
Y24026D01*
X131599D01*
Y24138D01*
X131711D01*
Y24250D01*
Y24362D01*
X131823D01*
Y24474D01*
X131935D01*
Y24586D01*
Y24698D01*
X132047D01*
Y24810D01*
X132159D01*
Y24922D01*
Y25034D01*
X132271D01*
Y25146D01*
X132383D01*
Y25258D01*
Y25370D01*
X132495D01*
Y25483D01*
X132607D01*
Y25595D01*
Y25707D01*
X132719D01*
Y25819D01*
Y25931D01*
X132831D01*
Y26043D01*
Y26155D01*
X132943D01*
Y26267D01*
Y26379D01*
X133055D01*
Y26491D01*
Y26603D01*
X133168D01*
Y26715D01*
Y26827D01*
X133280D01*
Y26939D01*
Y27051D01*
X133392D01*
Y27163D01*
Y27275D01*
X133504D01*
Y27387D01*
Y27499D01*
Y27611D01*
X133616D01*
Y27723D01*
Y27835D01*
X133728D01*
Y27947D01*
Y28059D01*
Y28172D01*
X133840D01*
Y28284D01*
Y28396D01*
Y28508D01*
X133952D01*
Y28620D01*
Y28732D01*
Y28844D01*
X134064D01*
Y28956D01*
Y29068D01*
Y29180D01*
Y29292D01*
X134176D01*
Y29404D01*
Y29516D01*
Y29628D01*
Y29740D01*
X134288D01*
Y29852D01*
Y29964D01*
Y30076D01*
Y30188D01*
X134400D01*
Y30300D01*
Y30412D01*
Y30524D01*
Y30636D01*
Y30748D01*
X134512D01*
Y30860D01*
Y30972D01*
Y31084D01*
Y31196D01*
Y31308D01*
Y31421D01*
X134624D01*
Y31533D01*
Y31645D01*
Y31757D01*
Y31869D01*
Y31981D01*
Y32093D01*
Y32205D01*
X134736D01*
Y32317D01*
Y32429D01*
Y32541D01*
Y32653D01*
Y32765D01*
Y32877D01*
Y32989D01*
Y33101D01*
Y33213D01*
Y33325D01*
X134848D01*
Y33437D01*
Y33549D01*
Y33661D01*
X134736D01*
Y33549D01*
X134624D01*
Y33437D01*
X134400D01*
Y33325D01*
X134288D01*
Y33213D01*
X134176D01*
Y33101D01*
X134064D01*
Y32989D01*
X133840D01*
Y32877D01*
X133728D01*
Y32765D01*
X133616D01*
Y32653D01*
Y32541D01*
Y32429D01*
Y32317D01*
Y32205D01*
Y32093D01*
Y31981D01*
Y31869D01*
Y31757D01*
Y31645D01*
Y31533D01*
Y31421D01*
Y31308D01*
Y31196D01*
Y31084D01*
Y30972D01*
Y30860D01*
X133504D01*
Y30748D01*
Y30636D01*
Y30524D01*
Y30412D01*
Y30300D01*
Y30188D01*
X133392D01*
Y30076D01*
Y29964D01*
Y29852D01*
Y29740D01*
Y29628D01*
X133280D01*
Y29516D01*
Y29404D01*
Y29292D01*
Y29180D01*
X133168D01*
Y29068D01*
Y28956D01*
Y28844D01*
Y28732D01*
X133055D01*
Y28620D01*
Y28508D01*
Y28396D01*
X132943D01*
Y28284D01*
Y28172D01*
Y28059D01*
X132831D01*
Y27947D01*
Y27835D01*
Y27723D01*
X132719D01*
Y27611D01*
Y27499D01*
X132607D01*
Y27387D01*
Y27275D01*
X132495D01*
Y27163D01*
Y27051D01*
Y26939D01*
X132383D01*
Y26827D01*
Y26715D01*
X132271D01*
Y26603D01*
Y26491D01*
X132159D01*
Y26379D01*
Y26267D01*
X132047D01*
Y26155D01*
Y26043D01*
X131935D01*
Y25931D01*
Y25819D01*
X131823D01*
Y25707D01*
Y25595D01*
X131711D01*
Y25483D01*
X131599D01*
Y25370D01*
Y25258D01*
X131487D01*
Y25146D01*
Y25034D01*
X131375D01*
Y24922D01*
X131263D01*
Y24810D01*
Y24698D01*
X131151D01*
Y24586D01*
Y24474D01*
X131039D01*
Y24362D01*
X130927D01*
Y24250D01*
Y24138D01*
X130815D01*
Y24026D01*
X130703D01*
Y23914D01*
Y23802D01*
X130591D01*
Y23690D01*
X130479D01*
Y23578D01*
X130367D01*
Y23466D01*
Y23354D01*
X130255D01*
Y23242D01*
X130142D01*
Y23130D01*
X130031D01*
Y23018D01*
Y22906D01*
X130142D01*
Y22794D01*
Y22682D01*
X130255D01*
Y22570D01*
Y22457D01*
X130367D01*
Y22345D01*
Y22233D01*
X130479D01*
Y22121D01*
Y22009D01*
X130591D01*
Y21897D01*
Y21785D01*
X130703D01*
Y21673D01*
Y21561D01*
X130815D01*
Y21449D01*
Y21337D01*
X130927D01*
Y21225D01*
Y21113D01*
X131039D01*
Y21001D01*
Y20889D01*
X131151D01*
Y20777D01*
Y20665D01*
X131263D01*
Y20553D01*
Y20441D01*
X131375D01*
Y20329D01*
Y20217D01*
X131487D01*
Y20105D01*
Y19993D01*
X131599D01*
Y19881D01*
Y19769D01*
X131711D01*
Y19657D01*
Y19545D01*
X131823D01*
Y19433D01*
Y19320D01*
X131935D01*
Y19208D01*
Y19096D01*
X132047D01*
Y18984D01*
Y18872D01*
X132159D01*
Y18760D01*
Y18648D01*
Y18536D01*
X132271D01*
Y18424D01*
Y18312D01*
X132383D01*
Y18200D01*
Y18088D01*
X132495D01*
Y17976D01*
Y17864D01*
X132607D01*
Y17752D01*
Y17640D01*
Y17528D01*
X132719D01*
Y17416D01*
Y17304D01*
X132831D01*
Y17192D01*
Y17080D01*
Y16968D01*
X132943D01*
Y16856D01*
Y16744D01*
X133055D01*
Y16632D01*
Y16520D01*
X133168D01*
Y16408D01*
Y16295D01*
X133280D01*
Y16183D01*
Y16071D01*
X133392D01*
Y15959D01*
Y15847D01*
X133504D01*
Y15735D01*
Y15623D01*
X133616D01*
Y15511D01*
Y15399D01*
Y15287D01*
X133728D01*
Y15175D01*
Y15063D01*
X133840D01*
Y14951D01*
Y14839D01*
Y14727D01*
X133952D01*
Y14615D01*
Y14503D01*
X134064D01*
Y14391D01*
Y14279D01*
Y14167D01*
Y14055D01*
X134176D01*
Y13943D01*
Y13831D01*
Y13719D01*
Y13607D01*
X134288D01*
Y13495D01*
Y13383D01*
Y13270D01*
Y13158D01*
Y13046D01*
Y12934D01*
Y12822D01*
Y12710D01*
Y12598D01*
Y12486D01*
X134176D01*
Y12374D01*
Y12262D01*
X133728D01*
Y12374D01*
X133504D01*
Y12486D01*
X133280D01*
Y12598D01*
X133168D01*
Y12710D01*
X133055D01*
Y12822D01*
X132943D01*
Y12934D01*
X132831D01*
Y13046D01*
X132719D01*
Y13158D01*
Y13270D01*
X132607D01*
Y13383D01*
Y13495D01*
X132495D01*
Y13607D01*
Y13719D01*
X132383D01*
Y13831D01*
Y13943D01*
X132271D01*
Y14055D01*
Y14167D01*
Y14279D01*
X132383D01*
Y14167D01*
X132495D01*
Y14055D01*
X132607D01*
Y13943D01*
X132831D01*
Y13831D01*
X133168D01*
Y13943D01*
Y14055D01*
Y14167D01*
Y14279D01*
Y14391D01*
Y14503D01*
Y14615D01*
X133055D01*
Y14727D01*
Y14839D01*
Y14951D01*
X132943D01*
Y15063D01*
Y15175D01*
Y15287D01*
X132831D01*
Y15399D01*
Y15511D01*
Y15623D01*
X132719D01*
Y15735D01*
Y15847D01*
Y15959D01*
X132607D01*
Y16071D01*
Y16183D01*
Y16295D01*
X132495D01*
Y16408D01*
Y16520D01*
Y16632D01*
X132383D01*
Y16744D01*
Y16856D01*
Y16968D01*
X132271D01*
Y17080D01*
Y17192D01*
X132159D01*
Y17304D01*
Y17416D01*
Y17528D01*
X132047D01*
Y17640D01*
Y17752D01*
X131935D01*
Y17864D01*
Y17976D01*
X131823D01*
Y18088D01*
Y18200D01*
Y18312D01*
X131711D01*
Y18424D01*
Y18536D01*
X131599D01*
Y18648D01*
Y18760D01*
Y18872D01*
X131487D01*
Y18984D01*
Y19096D01*
X131375D01*
Y19208D01*
Y19320D01*
X131263D01*
Y19433D01*
Y19545D01*
X131151D01*
Y19657D01*
Y19769D01*
Y19881D01*
X131039D01*
Y19993D01*
Y20105D01*
X130927D01*
Y20217D01*
Y20329D01*
X130815D01*
Y20441D01*
Y20553D01*
X130703D01*
Y20665D01*
Y20777D01*
X130591D01*
Y20889D01*
Y21001D01*
Y21113D01*
X130479D01*
Y21225D01*
Y21337D01*
X130367D01*
Y21449D01*
Y21561D01*
X130255D01*
Y21673D01*
Y21785D01*
X130142D01*
Y21897D01*
Y22009D01*
Y22121D01*
X130031D01*
Y22233D01*
Y22345D01*
X129918D01*
Y22457D01*
Y22570D01*
X129806D01*
Y22682D01*
Y22794D01*
Y22906D01*
X129694D01*
Y23018D01*
X129806D01*
Y23130D01*
Y23242D01*
X129918D01*
Y23354D01*
Y23466D01*
X130031D01*
Y23578D01*
Y23690D01*
X130142D01*
Y23802D01*
X130255D01*
Y23914D01*
Y24026D01*
X130367D01*
Y24138D01*
Y24250D01*
X130479D01*
Y24362D01*
Y24474D01*
X130591D01*
Y24586D01*
Y24698D01*
X130703D01*
Y24810D01*
Y24922D01*
X130815D01*
Y25034D01*
Y25146D01*
X130927D01*
Y25258D01*
Y25370D01*
X131039D01*
Y25483D01*
Y25595D01*
X131151D01*
Y25707D01*
Y25819D01*
X131263D01*
Y25931D01*
Y26043D01*
Y26155D01*
X131375D01*
Y26267D01*
Y26379D01*
X131487D01*
Y26491D01*
Y26603D01*
Y26715D01*
X131599D01*
Y26827D01*
Y26939D01*
Y27051D01*
X131711D01*
Y27163D01*
Y27275D01*
Y27387D01*
X131823D01*
Y27499D01*
Y27611D01*
Y27723D01*
X131935D01*
Y27835D01*
Y27947D01*
Y28059D01*
Y28172D01*
X132047D01*
Y28284D01*
Y28396D01*
Y28508D01*
Y28620D01*
Y28732D01*
Y28844D01*
X132159D01*
Y28956D01*
Y29068D01*
Y29180D01*
Y29292D01*
Y29404D01*
Y29516D01*
Y29628D01*
Y29740D01*
Y29852D01*
Y29964D01*
Y30076D01*
X132271D01*
Y30188D01*
X132159D01*
Y30300D01*
Y30412D01*
Y30524D01*
Y30636D01*
Y30748D01*
Y30860D01*
Y30972D01*
X132047D01*
Y30860D01*
Y30748D01*
X131935D01*
Y30636D01*
X131823D01*
Y30524D01*
X131711D01*
Y30412D01*
X131599D01*
Y30300D01*
Y30188D01*
X131487D01*
Y30076D01*
X131375D01*
Y29964D01*
X131263D01*
Y29852D01*
Y29740D01*
X131151D01*
Y29628D01*
X131039D01*
Y29516D01*
Y29404D01*
X130927D01*
Y29292D01*
X130815D01*
Y29180D01*
Y29068D01*
X130703D01*
Y28956D01*
X130591D01*
Y28844D01*
Y28732D01*
X130479D01*
Y28620D01*
X130367D01*
Y28508D01*
Y28396D01*
X130255D01*
Y28284D01*
Y28172D01*
X130142D01*
Y28059D01*
Y27947D01*
X130031D01*
Y27835D01*
X129918D01*
Y27723D01*
Y27611D01*
X129806D01*
Y27499D01*
Y27387D01*
X129694D01*
Y27275D01*
Y27163D01*
X129582D01*
Y27051D01*
Y26939D01*
X129470D01*
Y26827D01*
Y26715D01*
X129358D01*
Y26603D01*
Y26491D01*
X129246D01*
Y26379D01*
Y26267D01*
X129134D01*
Y26155D01*
Y26043D01*
X129022D01*
Y25931D01*
Y25819D01*
X128910D01*
Y25707D01*
Y25595D01*
X128798D01*
Y25483D01*
Y25370D01*
X128686D01*
Y25258D01*
Y25146D01*
Y25034D01*
X128574D01*
Y24922D01*
Y24810D01*
X128462D01*
Y24698D01*
Y24586D01*
X128350D01*
Y24474D01*
Y24362D01*
X128238D01*
Y24250D01*
Y24138D01*
Y24026D01*
X128126D01*
Y23914D01*
X128238D01*
Y23802D01*
Y23690D01*
Y23578D01*
Y23466D01*
Y23354D01*
X128350D01*
Y23242D01*
Y23130D01*
Y23018D01*
Y22906D01*
Y22794D01*
X128462D01*
Y22682D01*
Y22570D01*
Y22457D01*
Y22345D01*
Y22233D01*
Y22121D01*
X128574D01*
Y22009D01*
Y21897D01*
Y21785D01*
Y21673D01*
Y21561D01*
X128686D01*
Y21449D01*
Y21337D01*
Y21225D01*
Y21113D01*
Y21001D01*
Y20889D01*
X128798D01*
Y20777D01*
Y20665D01*
Y20553D01*
Y20441D01*
Y20329D01*
Y20217D01*
Y20105D01*
X128910D01*
Y19993D01*
Y19881D01*
Y19769D01*
Y19657D01*
Y19545D01*
Y19433D01*
Y19320D01*
X129022D01*
Y19208D01*
Y19096D01*
Y18984D01*
Y18872D01*
Y18760D01*
Y18648D01*
Y18536D01*
X129134D01*
Y18424D01*
Y18312D01*
Y18200D01*
Y18088D01*
Y17976D01*
Y17864D01*
Y17752D01*
Y17640D01*
Y17528D01*
Y17416D01*
X129246D01*
Y17304D01*
Y17192D01*
Y17080D01*
Y16968D01*
Y16856D01*
Y16744D01*
Y16632D01*
Y16520D01*
Y16408D01*
Y16295D01*
Y16183D01*
Y16071D01*
Y15959D01*
X129358D01*
Y15847D01*
Y15735D01*
Y15623D01*
Y15511D01*
Y15399D01*
Y15287D01*
Y15175D01*
Y15063D01*
Y14951D01*
Y14839D01*
Y14727D01*
Y14615D01*
Y14503D01*
Y14391D01*
Y14279D01*
Y14167D01*
Y14055D01*
Y13943D01*
Y13831D01*
Y13719D01*
Y13607D01*
Y13495D01*
Y13383D01*
Y13270D01*
Y13158D01*
Y13046D01*
Y12934D01*
X129246D01*
Y12822D01*
Y12710D01*
Y12598D01*
Y12486D01*
Y12374D01*
Y12262D01*
Y12150D01*
Y12038D01*
Y11926D01*
Y11814D01*
Y11702D01*
Y11590D01*
X129134D01*
Y11478D01*
Y11366D01*
Y11254D01*
Y11142D01*
Y11030D01*
Y10918D01*
Y10806D01*
X129022D01*
Y10694D01*
Y10582D01*
Y10469D01*
Y10357D01*
Y10245D01*
Y10133D01*
X128910D01*
Y10021D01*
Y9909D01*
Y9797D01*
Y9685D01*
Y9573D01*
X128798D01*
Y9461D01*
Y9349D01*
Y9237D01*
Y9125D01*
X128686D01*
Y9013D01*
Y8901D01*
Y8789D01*
Y8677D01*
X128574D01*
Y8565D01*
Y8453D01*
Y8341D01*
Y8229D01*
X128462D01*
Y8117D01*
Y8005D01*
Y7893D01*
X128350D01*
Y7781D01*
Y7668D01*
Y7557D01*
X128238D01*
Y7444D01*
Y7332D01*
Y7220D01*
X128126D01*
Y7108D01*
Y6996D01*
Y6884D01*
X128014D01*
Y6772D01*
Y6660D01*
Y6548D01*
X127902D01*
Y6436D01*
Y6324D01*
X127790D01*
Y6212D01*
Y6100D01*
Y5988D01*
X127678D01*
Y5876D01*
Y5764D01*
X127566D01*
Y5652D01*
Y5540D01*
X127454D01*
Y5428D01*
Y5316D01*
X127342D01*
Y5204D01*
Y5092D01*
X127229D01*
Y4980D01*
Y4868D01*
X127118D01*
Y4755D01*
Y4643D01*
X127006D01*
Y4755D01*
X126893D01*
Y4868D01*
Y4980D01*
X126781D01*
Y5092D01*
Y5204D01*
X126669D01*
Y5316D01*
Y5428D01*
X126557D01*
Y5540D01*
Y5652D01*
X126445D01*
Y5764D01*
Y5876D01*
X126333D01*
Y5988D01*
Y6100D01*
Y6212D01*
X126221D01*
Y6324D01*
Y6436D01*
X126109D01*
Y6548D01*
Y6660D01*
Y6772D01*
X125997D01*
Y6884D01*
Y6996D01*
Y7108D01*
X125885D01*
Y7220D01*
Y7332D01*
X125773D01*
Y7444D01*
Y7557D01*
Y7668D01*
X125661D01*
Y7781D01*
Y7893D01*
Y8005D01*
Y8117D01*
X125549D01*
Y8229D01*
Y8341D01*
Y8453D01*
X125437D01*
Y8565D01*
Y8677D01*
Y8789D01*
Y8901D01*
X125325D01*
Y9013D01*
Y9125D01*
Y9237D01*
Y9349D01*
Y9461D01*
X125213D01*
Y9573D01*
Y9685D01*
Y9797D01*
Y9909D01*
Y10021D01*
X125101D01*
Y10133D01*
Y10245D01*
Y10357D01*
Y10469D01*
Y10582D01*
Y10694D01*
X124989D01*
Y10806D01*
Y10918D01*
Y11030D01*
Y11142D01*
Y11254D01*
Y11366D01*
Y11478D01*
Y11590D01*
Y11702D01*
X124877D01*
Y11814D01*
Y11926D01*
Y12038D01*
Y12150D01*
Y12262D01*
Y12374D01*
Y12486D01*
Y12598D01*
Y12710D01*
Y12822D01*
Y12934D01*
Y13046D01*
Y13158D01*
Y13270D01*
Y13383D01*
Y13495D01*
Y13607D01*
Y13719D01*
Y13831D01*
Y13943D01*
Y14055D01*
Y14167D01*
Y14279D01*
Y14391D01*
Y14503D01*
Y14615D01*
Y14727D01*
Y14839D01*
Y14951D01*
Y15063D01*
Y15175D01*
Y15287D01*
Y15399D01*
Y15511D01*
Y15623D01*
Y15735D01*
Y15847D01*
Y15959D01*
Y16071D01*
X124989D01*
Y16183D01*
Y16295D01*
Y16408D01*
Y16520D01*
Y16632D01*
Y16744D01*
Y16856D01*
Y16968D01*
Y17080D01*
Y17192D01*
Y17304D01*
X125101D01*
Y17416D01*
Y17528D01*
Y17640D01*
Y17752D01*
Y17864D01*
Y17976D01*
Y18088D01*
Y18200D01*
X125213D01*
Y18312D01*
Y18424D01*
Y18536D01*
Y18648D01*
Y18760D01*
Y18872D01*
Y18984D01*
X125325D01*
Y19096D01*
Y19208D01*
Y19320D01*
Y19433D01*
Y19545D01*
Y19657D01*
X125437D01*
Y19769D01*
Y19881D01*
Y19993D01*
Y20105D01*
Y20217D01*
Y20329D01*
X125549D01*
Y20441D01*
Y20553D01*
Y20665D01*
Y20777D01*
Y20889D01*
Y21001D01*
X125661D01*
Y21113D01*
Y21225D01*
Y21337D01*
Y21449D01*
Y21561D01*
X125773D01*
Y21673D01*
Y21785D01*
Y21897D01*
Y22009D01*
Y22121D01*
Y22233D01*
X125885D01*
Y22345D01*
Y22457D01*
Y22570D01*
Y22682D01*
Y22794D01*
X125997D01*
Y22906D01*
Y23018D01*
Y23130D01*
Y23242D01*
Y23354D01*
X126109D01*
Y23466D01*
Y23578D01*
Y23690D01*
Y23802D01*
Y23914D01*
X126221D01*
Y24026D01*
X126109D01*
Y24138D01*
Y24250D01*
Y24362D01*
X125997D01*
Y24474D01*
Y24586D01*
X125885D01*
Y24698D01*
Y24810D01*
X125773D01*
Y24922D01*
Y25034D01*
X125661D01*
Y25146D01*
Y25258D01*
Y25370D01*
X125549D01*
Y25483D01*
Y25595D01*
X125437D01*
Y25707D01*
Y25819D01*
X125325D01*
Y25931D01*
Y26043D01*
X125213D01*
Y26155D01*
Y26267D01*
X125101D01*
Y26379D01*
Y26491D01*
X124989D01*
Y26603D01*
Y26715D01*
X124877D01*
Y26827D01*
Y26939D01*
X124765D01*
Y27051D01*
Y27163D01*
X124653D01*
Y27275D01*
Y27387D01*
X124541D01*
Y27499D01*
Y27611D01*
X124429D01*
Y27723D01*
Y27835D01*
X124317D01*
Y27947D01*
X124205D01*
Y28059D01*
Y28172D01*
X124092D01*
Y28284D01*
Y28396D01*
X123980D01*
Y28508D01*
Y28620D01*
X123868D01*
Y28732D01*
X123756D01*
Y28844D01*
Y28956D01*
X123644D01*
Y29068D01*
X123532D01*
Y29180D01*
Y29292D01*
X123420D01*
Y29404D01*
Y29516D01*
X123308D01*
Y29628D01*
X123196D01*
Y29740D01*
X123084D01*
Y29852D01*
Y29964D01*
X122972D01*
Y30076D01*
X122860D01*
Y30188D01*
X122748D01*
Y30300D01*
Y30412D01*
X122636D01*
Y30524D01*
X122524D01*
Y30636D01*
X122412D01*
Y30748D01*
X122300D01*
Y30860D01*
Y30972D01*
X122188D01*
Y30860D01*
Y30748D01*
Y30636D01*
Y30524D01*
Y30412D01*
Y30300D01*
Y30188D01*
X122076D01*
Y30076D01*
X122188D01*
Y29964D01*
Y29852D01*
Y29740D01*
Y29628D01*
Y29516D01*
Y29404D01*
Y29292D01*
Y29180D01*
Y29068D01*
Y28956D01*
Y28844D01*
X122300D01*
Y28732D01*
Y28620D01*
Y28508D01*
Y28396D01*
Y28284D01*
X122412D01*
Y28172D01*
Y28059D01*
Y27947D01*
Y27835D01*
Y27723D01*
X122524D01*
Y27611D01*
Y27499D01*
Y27387D01*
X122636D01*
Y27275D01*
Y27163D01*
Y27051D01*
X122748D01*
Y26939D01*
Y26827D01*
Y26715D01*
X122860D01*
Y26603D01*
Y26491D01*
Y26379D01*
X122972D01*
Y26267D01*
Y26155D01*
X123084D01*
Y26043D01*
Y25931D01*
Y25819D01*
X123196D01*
Y25707D01*
Y25595D01*
X123308D01*
Y25483D01*
Y25370D01*
X123420D01*
Y25258D01*
Y25146D01*
X123532D01*
Y25034D01*
Y24922D01*
X123644D01*
Y24810D01*
Y24698D01*
X123756D01*
Y24586D01*
Y24474D01*
X123868D01*
Y24362D01*
Y24250D01*
X123980D01*
Y24138D01*
Y24026D01*
X124092D01*
Y23914D01*
Y23802D01*
X124205D01*
Y23690D01*
X124317D01*
Y23578D01*
Y23466D01*
X124429D01*
Y23354D01*
Y23242D01*
X124541D01*
Y23130D01*
Y23018D01*
X124653D01*
Y22906D01*
X124541D01*
Y22794D01*
Y22682D01*
Y22570D01*
X124429D01*
Y22457D01*
Y22345D01*
X124317D01*
Y22233D01*
Y22121D01*
X124205D01*
Y22009D01*
Y21897D01*
Y21785D01*
X124092D01*
Y21673D01*
Y21561D01*
X123980D01*
Y21449D01*
Y21337D01*
X123868D01*
Y21225D01*
Y21113D01*
X123756D01*
Y21001D01*
Y20889D01*
Y20777D01*
X123644D01*
Y20665D01*
Y20553D01*
X123532D01*
Y20441D01*
Y20329D01*
X123420D01*
Y20217D01*
Y20105D01*
X123308D01*
Y19993D01*
Y19881D01*
X123196D01*
Y19769D01*
Y19657D01*
Y19545D01*
X123084D01*
Y19433D01*
Y19320D01*
X122972D01*
Y19208D01*
Y19096D01*
X122860D01*
Y18984D01*
Y18872D01*
Y18760D01*
X122748D01*
Y18648D01*
Y18536D01*
X122636D01*
Y18424D01*
Y18312D01*
X122524D01*
Y18200D01*
Y18088D01*
Y17976D01*
X122412D01*
Y17864D01*
Y17752D01*
X122300D01*
Y17640D01*
Y17528D01*
X122188D01*
Y17416D01*
Y17304D01*
Y17192D01*
X122076D01*
Y17080D01*
Y16968D01*
Y16856D01*
X121964D01*
Y16744D01*
Y16632D01*
X121852D01*
Y16520D01*
Y16408D01*
Y16295D01*
X121740D01*
Y16183D01*
Y16071D01*
Y15959D01*
X121628D01*
Y15847D01*
Y15735D01*
Y15623D01*
X121516D01*
Y15511D01*
Y15399D01*
Y15287D01*
X121404D01*
Y15175D01*
Y15063D01*
Y14951D01*
X121291D01*
Y14839D01*
Y14727D01*
Y14615D01*
X121179D01*
Y14503D01*
Y14391D01*
Y14279D01*
Y14167D01*
Y14055D01*
Y13943D01*
Y13831D01*
X121516D01*
Y13943D01*
X121740D01*
Y14055D01*
X121852D01*
Y14167D01*
X121964D01*
Y14279D01*
X122188D01*
Y14167D01*
X122076D01*
Y14055D01*
Y13943D01*
X121964D01*
Y13831D01*
Y13719D01*
X121852D01*
Y13607D01*
Y13495D01*
X121740D01*
Y13383D01*
Y13270D01*
X121628D01*
Y13158D01*
Y13046D01*
X121516D01*
Y12934D01*
X121404D01*
Y12822D01*
X121291D01*
Y12710D01*
X121179D01*
Y12598D01*
X121068D01*
Y12486D01*
X120843D01*
Y12374D01*
X120619D01*
Y12262D01*
X120171D01*
Y12374D01*
Y12486D01*
X120059D01*
Y12598D01*
Y12710D01*
Y12822D01*
Y12934D01*
Y13046D01*
Y13158D01*
Y13270D01*
Y13383D01*
Y13495D01*
Y13607D01*
X120171D01*
Y13719D01*
Y13831D01*
Y13943D01*
Y14055D01*
X120283D01*
Y14167D01*
Y14279D01*
Y14391D01*
Y14503D01*
X120395D01*
Y14615D01*
Y14727D01*
X120507D01*
Y14839D01*
Y14951D01*
Y15063D01*
X120619D01*
Y15175D01*
Y15287D01*
X120731D01*
Y15399D01*
Y15511D01*
Y15623D01*
X120843D01*
Y15735D01*
Y15847D01*
X120955D01*
Y15959D01*
Y16071D01*
X121068D01*
Y16183D01*
Y16295D01*
X121179D01*
Y16408D01*
Y16520D01*
X121291D01*
Y16632D01*
Y16744D01*
X121404D01*
Y16856D01*
Y16968D01*
X121516D01*
Y17080D01*
Y17192D01*
Y17304D01*
X121628D01*
Y17416D01*
Y17528D01*
X121740D01*
Y17640D01*
Y17752D01*
Y17864D01*
X121852D01*
Y17976D01*
Y18088D01*
X121964D01*
Y18200D01*
Y18312D01*
X122076D01*
Y18424D01*
Y18536D01*
X122188D01*
Y18648D01*
Y18760D01*
Y18872D01*
X122300D01*
Y18984D01*
Y19096D01*
X122412D01*
Y19208D01*
Y19320D01*
X122524D01*
Y19433D01*
Y19545D01*
X122636D01*
Y19657D01*
Y19769D01*
X122748D01*
Y19881D01*
Y19993D01*
X122860D01*
Y20105D01*
Y20217D01*
X122972D01*
Y20329D01*
Y20441D01*
X123084D01*
Y20553D01*
Y20665D01*
X123196D01*
Y20777D01*
Y20889D01*
X123308D01*
Y21001D01*
Y21113D01*
X123420D01*
Y21225D01*
Y21337D01*
X123532D01*
Y21449D01*
Y21561D01*
X123644D01*
Y21673D01*
Y21785D01*
X123756D01*
Y21897D01*
Y22009D01*
X123868D01*
Y22121D01*
Y22233D01*
X123980D01*
Y22345D01*
Y22457D01*
X124092D01*
Y22570D01*
Y22682D01*
X124205D01*
Y22794D01*
Y22906D01*
X124317D01*
Y23018D01*
Y23130D01*
X124205D01*
Y23242D01*
X124092D01*
Y23354D01*
X123980D01*
Y23466D01*
Y23578D01*
X123868D01*
Y23690D01*
X123756D01*
Y23802D01*
X123644D01*
Y23914D01*
Y24026D01*
X123532D01*
Y24138D01*
X123420D01*
Y24250D01*
Y24362D01*
X123308D01*
Y24474D01*
X123196D01*
Y24586D01*
Y24698D01*
X123084D01*
Y24810D01*
Y24922D01*
X122972D01*
Y25034D01*
X122860D01*
Y25146D01*
Y25258D01*
X122748D01*
Y25370D01*
Y25483D01*
X122636D01*
Y25595D01*
X122524D01*
Y25707D01*
Y25819D01*
X122412D01*
Y25931D01*
Y26043D01*
X122300D01*
Y26155D01*
Y26267D01*
X122188D01*
Y26379D01*
Y26491D01*
X122076D01*
Y26603D01*
Y26715D01*
X121964D01*
Y26827D01*
Y26939D01*
X121852D01*
Y27051D01*
Y27163D01*
Y27275D01*
X121740D01*
Y27387D01*
Y27499D01*
X121628D01*
Y27611D01*
Y27723D01*
X121516D01*
Y27835D01*
Y27947D01*
Y28059D01*
X121404D01*
Y28172D01*
Y28284D01*
Y28396D01*
X121291D01*
Y28508D01*
Y28620D01*
Y28732D01*
X121179D01*
Y28844D01*
Y28956D01*
Y29068D01*
Y29180D01*
X121068D01*
Y29292D01*
Y29404D01*
Y29516D01*
Y29628D01*
X120955D01*
Y29740D01*
Y29852D01*
Y29964D01*
Y30076D01*
Y30188D01*
X120843D01*
Y30300D01*
Y30412D01*
Y30524D01*
Y30636D01*
Y30748D01*
Y30860D01*
X120731D01*
Y30972D01*
Y31084D01*
Y31196D01*
Y31308D01*
Y31421D01*
Y31533D01*
Y31645D01*
Y31757D01*
Y31869D01*
Y31981D01*
Y32093D01*
Y32205D01*
Y32317D01*
Y32429D01*
Y32541D01*
Y32653D01*
Y32765D01*
X120619D01*
Y32877D01*
X120507D01*
Y32989D01*
X120283D01*
Y33101D01*
X120171D01*
Y33213D01*
X120059D01*
Y33325D01*
X119947D01*
Y33437D01*
X119723D01*
Y33549D01*
X119611D01*
Y33661D01*
X119499D01*
Y33549D01*
Y33437D01*
Y33325D01*
X119611D01*
Y33213D01*
Y33101D01*
Y32989D01*
Y32877D01*
Y32765D01*
Y32653D01*
Y32541D01*
Y32429D01*
Y32317D01*
Y32205D01*
X119723D01*
Y32093D01*
Y31981D01*
Y31869D01*
Y31757D01*
Y31645D01*
Y31533D01*
Y31421D01*
X119835D01*
Y31308D01*
Y31196D01*
Y31084D01*
Y30972D01*
Y30860D01*
Y30748D01*
X119947D01*
Y30636D01*
Y30524D01*
Y30412D01*
Y30300D01*
Y30188D01*
X120059D01*
Y30076D01*
Y29964D01*
Y29852D01*
Y29740D01*
X120171D01*
Y29628D01*
Y29516D01*
Y29404D01*
Y29292D01*
X120283D01*
Y29180D01*
Y29068D01*
Y28956D01*
Y28844D01*
X120395D01*
Y28732D01*
Y28620D01*
Y28508D01*
X120507D01*
Y28396D01*
Y28284D01*
Y28172D01*
X120619D01*
Y28059D01*
Y27947D01*
Y27835D01*
X120731D01*
Y27723D01*
Y27611D01*
X120843D01*
Y27499D01*
Y27387D01*
Y27275D01*
X120955D01*
Y27163D01*
Y27051D01*
X121068D01*
Y26939D01*
Y26827D01*
X121179D01*
Y26715D01*
Y26603D01*
X121291D01*
Y26491D01*
Y26379D01*
X121404D01*
Y26267D01*
Y26155D01*
X121516D01*
Y26043D01*
Y25931D01*
X121628D01*
Y25819D01*
Y25707D01*
X121740D01*
Y25595D01*
X121852D01*
Y25483D01*
Y25370D01*
X121964D01*
Y25258D01*
Y25146D01*
X122076D01*
Y25034D01*
X122188D01*
Y24922D01*
Y24810D01*
X122300D01*
Y24698D01*
X122412D01*
Y24586D01*
Y24474D01*
X122524D01*
Y24362D01*
X122636D01*
Y24250D01*
Y24138D01*
X122748D01*
Y24026D01*
X122636D01*
Y23914D01*
Y23802D01*
X122524D01*
Y23690D01*
Y23578D01*
Y23466D01*
X122412D01*
Y23354D01*
Y23242D01*
X122300D01*
Y23130D01*
Y23018D01*
X122188D01*
Y22906D01*
Y22794D01*
X122076D01*
Y22682D01*
Y22570D01*
X121964D01*
Y22457D01*
Y22345D01*
X121852D01*
Y22233D01*
X121740D01*
Y22121D01*
Y22009D01*
X121628D01*
Y21897D01*
X121516D01*
Y21785D01*
Y21673D01*
X121404D01*
Y21561D01*
X121291D01*
Y21449D01*
X121179D01*
Y21337D01*
X121068D01*
Y21225D01*
X120955D01*
Y21113D01*
X120843D01*
Y21001D01*
X120731D01*
Y20889D01*
X120619D01*
Y20777D01*
X120507D01*
Y20665D01*
X120395D01*
Y20553D01*
X120171D01*
Y20441D01*
X120059D01*
Y20329D01*
X119835D01*
Y20217D01*
X119611D01*
Y20105D01*
X119387D01*
Y19993D01*
X119163D01*
Y19881D01*
X118939D01*
Y19993D01*
X119051D01*
Y20105D01*
X119163D01*
Y20217D01*
X119275D01*
Y20329D01*
X119387D01*
Y20441D01*
X119499D01*
Y20553D01*
X119611D01*
Y20665D01*
X119723D01*
Y20777D01*
X119835D01*
Y20889D01*
X119947D01*
Y21001D01*
X120059D01*
Y21113D01*
X120171D01*
Y21225D01*
X120283D01*
Y21337D01*
X120395D01*
Y21449D01*
X120507D01*
Y21561D01*
X120619D01*
Y21673D01*
Y21785D01*
X120731D01*
Y21897D01*
X120843D01*
Y22009D01*
X120955D01*
Y22121D01*
Y22233D01*
X121068D01*
Y22345D01*
Y22457D01*
X121179D01*
Y22570D01*
X121291D01*
Y22682D01*
Y22794D01*
X121404D01*
Y22906D01*
Y23018D01*
X121516D01*
Y23130D01*
Y23242D01*
X121628D01*
Y23354D01*
Y23466D01*
X121740D01*
Y23578D01*
Y23690D01*
Y23802D01*
X121852D01*
Y23914D01*
X121740D01*
Y24026D01*
X121628D01*
Y24138D01*
X121516D01*
Y24250D01*
Y24362D01*
X121404D01*
Y24474D01*
X121291D01*
Y24586D01*
Y24698D01*
X121179D01*
Y24810D01*
X121068D01*
Y24922D01*
Y25034D01*
X120955D01*
Y25146D01*
Y25258D01*
X120843D01*
Y25370D01*
Y25483D01*
X120731D01*
Y25595D01*
X120619D01*
Y25707D01*
Y25819D01*
X120507D01*
Y25931D01*
Y26043D01*
X120395D01*
Y26155D01*
Y26267D01*
X120283D01*
Y26379D01*
Y26491D01*
X120171D01*
Y26603D01*
Y26715D01*
X120059D01*
Y26827D01*
Y26939D01*
Y27051D01*
X119947D01*
Y27163D01*
Y27275D01*
X119835D01*
Y27387D01*
Y27499D01*
Y27611D01*
X119723D01*
Y27723D01*
Y27835D01*
X119611D01*
Y27947D01*
Y28059D01*
Y28172D01*
X119499D01*
Y28284D01*
Y28396D01*
Y28508D01*
X119387D01*
Y28620D01*
Y28732D01*
Y28844D01*
Y28956D01*
X119275D01*
Y29068D01*
Y29180D01*
Y29292D01*
X119163D01*
Y29404D01*
Y29516D01*
Y29628D01*
Y29740D01*
X119051D01*
Y29852D01*
Y29964D01*
Y30076D01*
Y30188D01*
Y30300D01*
X118939D01*
Y30412D01*
Y30524D01*
Y30636D01*
Y30748D01*
Y30860D01*
X118827D01*
Y30972D01*
Y31084D01*
Y31196D01*
Y31308D01*
Y31421D01*
Y31533D01*
X118715D01*
Y31645D01*
Y31757D01*
Y31869D01*
Y31981D01*
Y32093D01*
Y32205D01*
X118603D01*
Y32317D01*
Y32429D01*
Y32541D01*
Y32653D01*
Y32765D01*
Y32877D01*
Y32989D01*
Y33101D01*
X118491D01*
Y33213D01*
Y33325D01*
Y33437D01*
Y33549D01*
Y33661D01*
Y33773D01*
Y33885D01*
Y33997D01*
Y34110D01*
X118378D01*
Y34222D01*
Y34334D01*
Y34446D01*
Y34558D01*
Y34670D01*
Y34782D01*
Y34894D01*
X118266D01*
Y35006D01*
X118155D01*
Y35118D01*
X118042D01*
Y35230D01*
X117930D01*
Y35342D01*
X117818D01*
Y35454D01*
X117706D01*
Y35566D01*
X117594D01*
Y35678D01*
X117482D01*
Y35790D01*
X117258D01*
Y35902D01*
X117146D01*
Y36014D01*
X116922D01*
Y36126D01*
X116810D01*
Y36238D01*
X116586D01*
Y36350D01*
X116362D01*
Y36462D01*
X116138D01*
Y36574D01*
X115914D01*
Y36686D01*
X115690D01*
Y36798D01*
X115354D01*
Y36910D01*
X115017D01*
Y37023D01*
X114681D01*
Y37135D01*
X114233D01*
Y37247D01*
X113785D01*
Y37359D01*
X113225D01*
Y37471D01*
X112216D01*
Y37583D01*
X111096D01*
Y37471D01*
X110424D01*
Y37359D01*
X110536D01*
Y37247D01*
X110648D01*
Y37135D01*
X110760D01*
Y37023D01*
X110872D01*
Y36910D01*
X110984D01*
Y36798D01*
X111096D01*
Y36686D01*
X111320D01*
Y36574D01*
X111432D01*
Y36462D01*
X111544D01*
Y36350D01*
X111768D01*
Y36238D01*
X111880D01*
Y36126D01*
X112104D01*
Y36014D01*
X112216D01*
Y35902D01*
X112441D01*
Y35790D01*
X112665D01*
Y35678D01*
X112889D01*
Y35566D01*
X113113D01*
Y35454D01*
X113337D01*
Y35342D01*
X113673D01*
Y35230D01*
X114009D01*
Y35118D01*
X114345D01*
Y35006D01*
X114793D01*
Y34894D01*
X115242D01*
Y34782D01*
X113897D01*
Y34894D01*
X112889D01*
Y35006D01*
X112104D01*
Y35118D01*
X111544D01*
Y35230D01*
X110984D01*
Y35342D01*
X110648D01*
Y35454D01*
X110200D01*
Y35566D01*
X109976D01*
Y35678D01*
X109640D01*
Y35790D01*
X109415D01*
Y35902D01*
X109079D01*
Y36014D01*
X108855D01*
Y36126D01*
X108631D01*
Y36238D01*
X108519D01*
Y36350D01*
X108295D01*
Y36462D01*
X108071D01*
Y36574D01*
X107959D01*
Y36686D01*
X107735D01*
Y36798D01*
X107623D01*
Y36910D01*
X107511D01*
Y37023D01*
X107399D01*
Y37135D01*
X107175D01*
Y37247D01*
X107063D01*
Y37359D01*
X106951D01*
Y37471D01*
X106839D01*
Y37583D01*
X106727D01*
Y37695D01*
X106615D01*
Y37807D01*
X106502D01*
Y37919D01*
X106391D01*
Y38031D01*
Y38143D01*
X106278D01*
Y38255D01*
X106166D01*
Y38367D01*
X106054D01*
Y38479D01*
Y38591D01*
X105942D01*
Y38703D01*
X105830D01*
Y38815D01*
Y38927D01*
X105718D01*
Y39039D01*
X105606D01*
Y39151D01*
Y39263D01*
X106054D01*
Y39151D01*
X106502D01*
Y39039D01*
X107175D01*
Y38927D01*
X107735D01*
Y38815D01*
X108519D01*
Y38703D01*
X110872D01*
Y38815D01*
X111208D01*
Y38703D01*
X111992D01*
Y38591D01*
X112777D01*
Y38479D01*
X113337D01*
Y38367D01*
X113785D01*
Y38255D01*
X114233D01*
Y38143D01*
X114681D01*
Y38031D01*
X115017D01*
Y37919D01*
X115354D01*
Y37807D01*
X115690D01*
Y37695D01*
X116026D01*
Y37583D01*
X116250D01*
Y37471D01*
X116474D01*
Y37359D01*
X116810D01*
Y37247D01*
X117034D01*
Y37135D01*
X117258D01*
Y37023D01*
X117370D01*
Y36910D01*
X117594D01*
Y36798D01*
X117706D01*
Y36686D01*
X117930D01*
Y36574D01*
X118042D01*
Y36462D01*
X118155D01*
Y36350D01*
X118266D01*
Y36238D01*
X118491D01*
Y36126D01*
X118603D01*
Y36014D01*
X118715D01*
Y35902D01*
X118827D01*
Y35790D01*
X118939D01*
Y35678D01*
X119163D01*
Y35566D01*
X119275D01*
Y35454D01*
X119387D01*
Y35342D01*
X119499D01*
Y35230D01*
X119723D01*
Y35118D01*
X119835D01*
Y35006D01*
X120059D01*
Y34894D01*
X120171D01*
Y34782D01*
X120395D01*
Y34670D01*
X120619D01*
Y34558D01*
X120843D01*
Y34446D01*
X121179D01*
Y34558D01*
Y34670D01*
Y34782D01*
Y34894D01*
X121068D01*
Y35006D01*
Y35118D01*
Y35230D01*
X120955D01*
Y35342D01*
Y35454D01*
X120843D01*
Y35566D01*
Y35678D01*
X120731D01*
Y35790D01*
X120619D01*
Y35902D01*
Y36014D01*
X120507D01*
Y36126D01*
X120395D01*
Y36238D01*
X120283D01*
Y36350D01*
X120171D01*
Y36462D01*
Y36574D01*
X120059D01*
Y36686D01*
X119947D01*
Y36798D01*
X119835D01*
Y36910D01*
X119723D01*
Y37023D01*
X119611D01*
Y37135D01*
X119499D01*
Y37247D01*
X119387D01*
Y37359D01*
X119275D01*
Y37471D01*
X119163D01*
Y37583D01*
X119051D01*
Y37695D01*
X118939D01*
Y37807D01*
X118827D01*
Y37919D01*
X118715D01*
Y38031D01*
X118603D01*
Y38143D01*
X118491D01*
Y38255D01*
X118378D01*
Y38367D01*
X118155D01*
Y38479D01*
X118042D01*
Y38591D01*
X117930D01*
Y38703D01*
X117818D01*
Y38815D01*
X117706D01*
Y38927D01*
X117482D01*
Y39039D01*
X117370D01*
Y39151D01*
X117258D01*
Y39263D01*
X117146D01*
Y39375D01*
X116922D01*
Y39487D01*
X116810D01*
Y39599D01*
X116698D01*
Y39711D01*
X116474D01*
Y39823D01*
X116362D01*
Y39935D01*
X116138D01*
Y40047D01*
X116026D01*
Y40159D01*
X115914D01*
Y40272D01*
X115690D01*
Y40384D01*
X115578D01*
Y40496D01*
X115354D01*
Y40608D01*
X115242D01*
Y40720D01*
X115017D01*
Y40832D01*
X114905D01*
Y40944D01*
X114681D01*
Y41056D01*
X114569D01*
Y41168D01*
X114345D01*
Y41280D01*
X114233D01*
Y41392D01*
X114009D01*
Y41504D01*
X113897D01*
Y41616D01*
X113673D01*
Y41728D01*
X113561D01*
Y41840D01*
X113337D01*
Y41952D01*
X113001D01*
Y42064D01*
X112553D01*
Y42176D01*
X111544D01*
Y42288D01*
X110312D01*
Y42176D01*
X108967D01*
Y42064D01*
X108071D01*
Y41952D01*
X107287D01*
Y41840D01*
X106727D01*
Y41728D01*
X106839D01*
Y41616D01*
X107063D01*
Y41504D01*
X107175D01*
Y41392D01*
X107399D01*
Y41280D01*
X107623D01*
Y41168D01*
X107847D01*
Y41056D01*
X108183D01*
Y40944D01*
X108519D01*
Y40832D01*
X108743D01*
Y40944D01*
X108855D01*
Y41056D01*
X109415D01*
Y40944D01*
X109528D01*
Y40832D01*
X109640D01*
Y40720D01*
Y40608D01*
X109752D01*
Y40496D01*
X110088D01*
Y40384D01*
X110424D01*
Y40272D01*
X110760D01*
Y40159D01*
X111096D01*
Y40047D01*
X111432D01*
Y39935D01*
X111880D01*
Y39823D01*
X112216D01*
Y39711D01*
X112665D01*
Y39599D01*
X113225D01*
Y39487D01*
X113673D01*
Y39375D01*
X114233D01*
Y39263D01*
X114793D01*
Y39151D01*
X113561D01*
Y39263D01*
X112104D01*
Y39375D01*
X111096D01*
Y39487D01*
X110312D01*
Y39599D01*
X109752D01*
Y39711D01*
X109303D01*
Y39823D01*
X108855D01*
Y39935D01*
X108407D01*
Y40047D01*
X108071D01*
Y40159D01*
X107735D01*
Y40272D01*
X107399D01*
Y40384D01*
X107175D01*
Y40496D01*
X106951D01*
Y40608D01*
X106727D01*
Y40720D01*
X106502D01*
Y40832D01*
X106278D01*
Y40944D01*
X106054D01*
Y41056D01*
X105942D01*
Y41168D01*
X105718D01*
Y41280D01*
X105606D01*
Y41392D01*
X105494D01*
Y41504D01*
X105382D01*
Y41616D01*
X105270D01*
Y41728D01*
X105158D01*
Y41840D01*
X105046D01*
Y41952D01*
X104934D01*
Y42064D01*
Y42176D01*
X104822D01*
Y42288D01*
X104710D01*
Y42400D01*
Y42512D01*
X104598D01*
Y42624D01*
Y42736D01*
Y42848D01*
X104486D01*
Y42961D01*
Y43073D01*
Y43185D01*
X104374D01*
Y43297D01*
Y43409D01*
Y43521D01*
Y43633D01*
X104262D01*
Y43745D01*
Y43857D01*
Y43969D01*
Y44081D01*
Y44193D01*
X104150D01*
Y44305D01*
Y44417D01*
Y44529D01*
Y44641D01*
Y44753D01*
Y44865D01*
X104038D01*
Y44977D01*
Y45089D01*
X104150D01*
Y44977D01*
Y44865D01*
X104262D01*
Y44753D01*
X104374D01*
Y44641D01*
Y44529D01*
X104486D01*
Y44417D01*
X104598D01*
Y44305D01*
X104710D01*
Y44193D01*
X104822D01*
Y44081D01*
X104934D01*
Y43969D01*
X105046D01*
Y43857D01*
X105270D01*
Y43745D01*
X105382D01*
Y43633D01*
X105606D01*
Y43521D01*
X105830D01*
Y43409D01*
X106166D01*
Y43297D01*
X106615D01*
Y43185D01*
X107847D01*
Y43297D01*
X108855D01*
Y43409D01*
X109640D01*
Y43297D01*
X110648D01*
Y43185D01*
X111096D01*
Y43297D01*
X110984D01*
Y43409D01*
X110872D01*
Y43521D01*
X110760D01*
Y43633D01*
X110648D01*
Y43745D01*
X110536D01*
Y43857D01*
X110424D01*
Y43969D01*
X110312D01*
Y44081D01*
Y44193D01*
X110200D01*
Y44305D01*
X110088D01*
Y44417D01*
X109976D01*
Y44529D01*
Y44641D01*
X109864D01*
Y44753D01*
X109752D01*
Y44865D01*
Y44977D01*
X109640D01*
Y45089D01*
Y45201D01*
X109528D01*
Y45313D01*
Y45425D01*
X109415D01*
Y45537D01*
Y45649D01*
X109303D01*
Y45761D01*
Y45873D01*
Y45985D01*
X109191D01*
Y46097D01*
Y46210D01*
X109079D01*
Y46322D01*
Y46434D01*
Y46546D01*
Y46658D01*
X108967D01*
Y46770D01*
Y46882D01*
Y46994D01*
Y47106D01*
X108855D01*
Y47218D01*
Y47330D01*
Y47442D01*
X108967D01*
Y47330D01*
Y47218D01*
X109079D01*
Y47106D01*
Y46994D01*
X109191D01*
Y46882D01*
Y46770D01*
X109303D01*
Y46658D01*
Y46546D01*
X109415D01*
Y46434D01*
Y46322D01*
X109528D01*
Y46210D01*
Y46097D01*
X109640D01*
Y45985D01*
Y45873D01*
X109752D01*
Y45761D01*
X109864D01*
Y45649D01*
Y45537D01*
X109976D01*
Y45425D01*
X110088D01*
Y45313D01*
Y45201D01*
X110200D01*
Y45089D01*
X110312D01*
Y44977D01*
X110424D01*
Y44865D01*
X110536D01*
Y44753D01*
X110648D01*
Y44641D01*
X110760D01*
Y44529D01*
X110872D01*
Y44417D01*
X110984D01*
Y44305D01*
X111096D01*
Y44193D01*
X111208D01*
Y44081D01*
X111432D01*
Y43969D01*
X111544D01*
Y43857D01*
X111768D01*
Y43745D01*
X111992D01*
Y43633D01*
X112216D01*
Y43521D01*
X112441D01*
Y43409D01*
X112665D01*
Y43297D01*
X112889D01*
Y43185D01*
X113113D01*
Y43073D01*
X113449D01*
Y42961D01*
X113673D01*
Y42848D01*
X113897D01*
Y42736D01*
X114121D01*
Y42624D01*
X114345D01*
Y42512D01*
X114569D01*
Y42400D01*
X114793D01*
Y42288D01*
X114905D01*
Y42176D01*
X115129D01*
Y42064D01*
X115354D01*
Y41952D01*
X115466D01*
Y41840D01*
X115690D01*
Y41728D01*
X115914D01*
Y41616D01*
X116026D01*
Y41504D01*
X116250D01*
Y41392D01*
X116362D01*
Y41280D01*
X116474D01*
Y41168D01*
X116698D01*
Y41056D01*
X116810D01*
Y40944D01*
X117034D01*
Y40832D01*
X117146D01*
Y40720D01*
X117258D01*
Y40608D01*
X117482D01*
Y40496D01*
X117594D01*
Y40384D01*
X117818D01*
Y40272D01*
X117930D01*
Y40159D01*
X118042D01*
Y40047D01*
X118266D01*
Y39935D01*
X118378D01*
Y39823D01*
X118491D01*
Y39711D01*
X118715D01*
Y39823D01*
X118827D01*
Y39935D01*
X118939D01*
Y40047D01*
X119051D01*
Y40159D01*
Y40272D01*
X119163D01*
Y40384D01*
Y40496D01*
Y40608D01*
Y40720D01*
Y40832D01*
Y40944D01*
Y41056D01*
Y41168D01*
Y41280D01*
X119051D01*
Y41392D01*
Y41504D01*
X118939D01*
Y41616D01*
X118827D01*
Y41728D01*
X118715D01*
Y41840D01*
X118603D01*
Y41952D01*
Y42064D01*
X118491D01*
Y42176D01*
X118378D01*
Y42288D01*
X118266D01*
Y42400D01*
X118155D01*
Y42512D01*
Y42624D01*
X118042D01*
Y42736D01*
X117930D01*
Y42848D01*
X117818D01*
Y42961D01*
X117706D01*
Y43073D01*
X117594D01*
Y43185D01*
X117482D01*
Y43297D01*
Y43409D01*
X117370D01*
Y43521D01*
X117258D01*
Y43633D01*
X117146D01*
Y43745D01*
X117034D01*
Y43857D01*
X116922D01*
Y43969D01*
X116810D01*
Y44081D01*
X116698D01*
Y44193D01*
X116586D01*
Y44305D01*
X116474D01*
Y44417D01*
X116362D01*
Y44529D01*
X116250D01*
Y44641D01*
X116138D01*
Y44753D01*
X116026D01*
Y44865D01*
X115802D01*
Y44977D01*
X115690D01*
Y45089D01*
X115578D01*
Y45201D01*
X115466D01*
Y45313D01*
X115017D01*
Y45425D01*
X114457D01*
Y45537D01*
X114121D01*
Y45649D01*
X113785D01*
Y45761D01*
X113561D01*
Y45873D01*
X113337D01*
Y45761D01*
Y45649D01*
X113449D01*
Y45537D01*
Y45425D01*
Y45313D01*
X113561D01*
Y45201D01*
Y45089D01*
X113673D01*
Y44977D01*
Y44865D01*
X113785D01*
Y44753D01*
X113897D01*
Y44641D01*
Y44529D01*
X114009D01*
Y44417D01*
X114121D01*
Y44305D01*
X114233D01*
Y44193D01*
Y44081D01*
X114345D01*
Y43969D01*
X114457D01*
Y43857D01*
X114569D01*
Y43745D01*
X114681D01*
Y43633D01*
X114793D01*
Y43521D01*
X114905D01*
Y43409D01*
X115017D01*
Y43297D01*
X115129D01*
Y43185D01*
X115242D01*
Y43073D01*
X115354D01*
Y42961D01*
X115578D01*
Y42848D01*
X115690D01*
Y42736D01*
X115802D01*
Y42624D01*
X115914D01*
Y42512D01*
X116026D01*
Y42400D01*
X116138D01*
Y42288D01*
X116250D01*
Y42176D01*
X116362D01*
Y42064D01*
X116474D01*
Y41952D01*
X116362D01*
Y42064D01*
X116250D01*
Y42176D01*
X116026D01*
Y42288D01*
X115802D01*
Y42400D01*
X115690D01*
Y42512D01*
X115466D01*
Y42624D01*
X115354D01*
Y42736D01*
X115129D01*
Y42848D01*
X115017D01*
Y42961D01*
X114905D01*
Y43073D01*
X114681D01*
Y43185D01*
X114569D01*
Y43297D01*
X114457D01*
Y43409D01*
X114345D01*
Y43521D01*
X114121D01*
Y43633D01*
X114009D01*
Y43745D01*
X113897D01*
Y43857D01*
X113785D01*
Y43969D01*
X113673D01*
Y44081D01*
X113561D01*
Y44193D01*
X113449D01*
Y44305D01*
X113337D01*
Y44417D01*
X113225D01*
Y44529D01*
X113113D01*
Y44641D01*
X113001D01*
Y44753D01*
X112889D01*
Y44865D01*
Y44977D01*
X112777D01*
Y45089D01*
X112665D01*
Y45201D01*
X112553D01*
Y45313D01*
Y45425D01*
X112441D01*
Y45537D01*
X112329D01*
Y45649D01*
Y45761D01*
X112216D01*
Y45873D01*
X112104D01*
Y45985D01*
Y46097D01*
X111992D01*
Y46210D01*
Y46322D01*
X111880D01*
Y46434D01*
Y46546D01*
X111768D01*
Y46658D01*
Y46770D01*
X111656D01*
Y46882D01*
Y46994D01*
Y47106D01*
X111544D01*
Y47218D01*
Y47330D01*
X111432D01*
Y47442D01*
Y47554D01*
Y47666D01*
X111320D01*
Y47778D01*
Y47890D01*
Y48002D01*
Y48114D01*
X111208D01*
Y48226D01*
Y48338D01*
Y48450D01*
Y48562D01*
Y48674D01*
X111096D01*
Y48787D01*
Y48899D01*
Y49011D01*
Y49123D01*
Y49235D01*
Y49347D01*
Y49459D01*
Y49571D01*
Y49683D01*
Y49795D01*
Y49907D01*
X110984D01*
Y50019D01*
Y50131D01*
Y50243D01*
Y50355D01*
Y50467D01*
Y50579D01*
Y50691D01*
X111096D01*
Y50579D01*
Y50467D01*
X111208D01*
Y50355D01*
Y50243D01*
Y50131D01*
X111320D01*
Y50019D01*
Y49907D01*
X111432D01*
Y49795D01*
Y49683D01*
X111544D01*
Y49571D01*
Y49459D01*
Y49347D01*
X111656D01*
Y49235D01*
Y49123D01*
X111768D01*
Y49011D01*
Y48899D01*
X111880D01*
Y48787D01*
Y48674D01*
X111992D01*
Y48562D01*
Y48450D01*
X112104D01*
Y48338D01*
X112216D01*
Y48226D01*
Y48114D01*
X112329D01*
Y48002D01*
X112441D01*
Y47890D01*
Y47778D01*
X112553D01*
Y47666D01*
X112665D01*
Y47554D01*
X112777D01*
Y47442D01*
X112889D01*
Y47330D01*
X113001D01*
Y47218D01*
X113113D01*
Y47106D01*
X113225D01*
Y46994D01*
X113337D01*
Y46882D01*
X113449D01*
Y46770D01*
X113673D01*
Y46658D01*
X113785D01*
Y46546D01*
X114009D01*
Y46434D01*
X114233D01*
Y46322D01*
X114457D01*
Y46210D01*
X114793D01*
Y46097D01*
X115242D01*
Y45985D01*
X115914D01*
Y45873D01*
X116026D01*
Y45761D01*
X116250D01*
Y45649D01*
X116362D01*
Y45537D01*
X116586D01*
Y45425D01*
X116698D01*
Y45313D01*
X116810D01*
Y45201D01*
X116922D01*
Y45089D01*
X117146D01*
Y44977D01*
X117258D01*
Y44865D01*
X117370D01*
Y44753D01*
X117482D01*
Y44641D01*
X117594D01*
Y44529D01*
X117706D01*
Y44417D01*
X117818D01*
Y44305D01*
X117930D01*
Y44193D01*
X118042D01*
Y44081D01*
X118155D01*
Y43969D01*
Y43857D01*
X118266D01*
Y43745D01*
X118378D01*
Y43633D01*
X118491D01*
Y43521D01*
X118603D01*
Y43409D01*
X118715D01*
Y43297D01*
Y43185D01*
X118827D01*
Y43073D01*
X118939D01*
Y42961D01*
X119051D01*
Y42848D01*
X119163D01*
Y42736D01*
Y42624D01*
X119275D01*
Y42512D01*
X119387D01*
Y42400D01*
X119499D01*
Y42288D01*
X119611D01*
Y42176D01*
Y42064D01*
X119723D01*
Y41952D01*
X119835D01*
Y41840D01*
X119947D01*
Y41728D01*
Y41616D01*
X120059D01*
Y41504D01*
X120171D01*
Y41392D01*
X120283D01*
Y41280D01*
X120395D01*
Y41168D01*
Y41056D01*
X120507D01*
Y40944D01*
X120619D01*
Y40832D01*
X120731D01*
Y40720D01*
X120843D01*
Y40608D01*
X120955D01*
Y40496D01*
X121068D01*
Y40384D01*
Y40272D01*
X121179D01*
Y40159D01*
X121291D01*
Y40047D01*
X121404D01*
Y39935D01*
X121516D01*
Y39823D01*
X121628D01*
Y39711D01*
X121740D01*
Y39599D01*
X121179D01*
Y39487D01*
X120731D01*
Y39375D01*
X120507D01*
Y39263D01*
X120395D01*
Y39151D01*
X120283D01*
Y39039D01*
Y38927D01*
Y38815D01*
Y38703D01*
Y38591D01*
Y38479D01*
X120395D01*
Y38367D01*
X120507D01*
Y38255D01*
X120619D01*
Y38143D01*
Y38031D01*
X120731D01*
Y37919D01*
X120843D01*
Y37807D01*
X120955D01*
Y37695D01*
X121068D01*
Y37583D01*
Y37471D01*
X121179D01*
Y37359D01*
X121291D01*
Y37247D01*
X121404D01*
Y37135D01*
Y37023D01*
X121516D01*
Y36910D01*
X121628D01*
Y36798D01*
X121740D01*
Y36686D01*
Y36574D01*
X121852D01*
Y36462D01*
X121964D01*
Y36350D01*
Y36238D01*
X122076D01*
Y36126D01*
X122188D01*
Y36014D01*
X122300D01*
Y35902D01*
Y35790D01*
X122412D01*
Y35678D01*
X122524D01*
Y35566D01*
Y35454D01*
X122636D01*
Y35342D01*
X122748D01*
Y35230D01*
Y35118D01*
X122860D01*
Y35006D01*
X122972D01*
Y34894D01*
Y34782D01*
X123084D01*
Y34670D01*
Y34558D01*
X123196D01*
Y34446D01*
X123308D01*
Y34334D01*
Y34222D01*
X123420D01*
Y34110D01*
Y33997D01*
X123532D01*
Y33885D01*
X123644D01*
Y33773D01*
Y33661D01*
X123756D01*
Y33549D01*
Y33437D01*
X123868D01*
Y33325D01*
Y33213D01*
X123980D01*
Y33101D01*
Y32989D01*
X124092D01*
Y32877D01*
X124205D01*
Y32765D01*
Y32653D01*
X124317D01*
Y32541D01*
Y32429D01*
Y32317D01*
X124429D01*
Y32205D01*
Y32093D01*
X124541D01*
Y31981D01*
Y31869D01*
X124653D01*
Y31757D01*
Y31645D01*
X124765D01*
Y31533D01*
Y31421D01*
Y31308D01*
X124877D01*
Y31196D01*
Y31084D01*
X124989D01*
Y30972D01*
Y30860D01*
Y30748D01*
X125101D01*
Y30636D01*
Y30524D01*
X125213D01*
Y30412D01*
Y30300D01*
Y30188D01*
X125325D01*
Y30076D01*
Y29964D01*
Y29852D01*
X125213D01*
Y29964D01*
X125101D01*
Y30076D01*
Y30188D01*
X124989D01*
Y30300D01*
X124877D01*
Y30412D01*
X124765D01*
Y30524D01*
Y30636D01*
X124653D01*
Y30748D01*
X124541D01*
Y30860D01*
X124429D01*
Y30972D01*
Y31084D01*
X124317D01*
Y31196D01*
X124205D01*
Y31308D01*
X124092D01*
Y31421D01*
X123980D01*
Y31533D01*
X123868D01*
Y31645D01*
X123756D01*
Y31757D01*
X123644D01*
Y31869D01*
X123532D01*
Y31981D01*
X123308D01*
Y32093D01*
X123196D01*
Y32205D01*
X122972D01*
Y32317D01*
X122860D01*
Y32429D01*
X122748D01*
Y32317D01*
X122860D01*
Y32205D01*
X122972D01*
Y32093D01*
Y31981D01*
X123084D01*
Y31869D01*
X123196D01*
Y31757D01*
Y31645D01*
X123308D01*
Y31533D01*
X123420D01*
Y31421D01*
Y31308D01*
X123532D01*
Y31196D01*
X123644D01*
Y31084D01*
Y30972D01*
X123756D01*
Y30860D01*
X123868D01*
Y30748D01*
X123980D01*
Y30636D01*
Y30524D01*
X124092D01*
Y30412D01*
X124205D01*
Y30300D01*
Y30188D01*
X124317D01*
Y30076D01*
X124429D01*
Y29964D01*
Y29852D01*
X124541D01*
Y29740D01*
X124653D01*
Y29628D01*
Y29516D01*
X124765D01*
Y29404D01*
X124877D01*
Y29292D01*
X124989D01*
Y29180D01*
Y29068D01*
X125101D01*
Y28956D01*
X125213D01*
Y28844D01*
Y28732D01*
X125325D01*
Y28620D01*
X125437D01*
Y28508D01*
Y28396D01*
X125549D01*
Y28284D01*
X125661D01*
Y28172D01*
Y28059D01*
X125773D01*
Y27947D01*
X125885D01*
Y27835D01*
Y27723D01*
X125997D01*
Y27611D01*
Y27499D01*
X126109D01*
Y27387D01*
X126221D01*
Y27275D01*
Y27163D01*
X126333D01*
Y27051D01*
X126445D01*
Y26939D01*
Y26827D01*
X126557D01*
Y26715D01*
Y26603D01*
X126669D01*
Y26491D01*
Y26379D01*
X126781D01*
Y26267D01*
X126893D01*
Y26155D01*
Y26043D01*
X127006D01*
Y25931D01*
Y25819D01*
X127118D01*
Y25707D01*
Y25595D01*
X127342D01*
Y25707D01*
Y25819D01*
X127454D01*
Y25931D01*
Y26043D01*
X127566D01*
Y26155D01*
Y26267D01*
X127678D01*
Y26379D01*
Y26491D01*
X127790D01*
Y26603D01*
Y26715D01*
X127902D01*
Y26827D01*
X128014D01*
Y26939D01*
Y27051D01*
X128126D01*
Y27163D01*
Y27275D01*
X128238D01*
Y27387D01*
X128350D01*
Y27499D01*
Y27611D01*
X128462D01*
Y27723D01*
Y27835D01*
X128574D01*
Y27947D01*
X128686D01*
Y28059D01*
Y28172D01*
X128798D01*
Y28284D01*
X128910D01*
Y28396D01*
Y28508D01*
X129022D01*
Y28620D01*
X129134D01*
Y28732D01*
Y28844D01*
X129246D01*
Y28956D01*
Y29068D01*
X129358D01*
Y29180D01*
X129470D01*
Y29292D01*
Y29404D01*
X129582D01*
Y29516D01*
X129694D01*
Y29628D01*
Y29740D01*
X129806D01*
Y29852D01*
X129918D01*
Y29964D01*
X130031D01*
Y30076D01*
Y30188D01*
X130142D01*
Y30300D01*
X130255D01*
Y30412D01*
Y30524D01*
X130367D01*
Y30636D01*
X130479D01*
Y30748D01*
Y30860D01*
X130591D01*
Y30972D01*
X130703D01*
Y31084D01*
Y31196D01*
X130815D01*
Y31308D01*
X130927D01*
Y31421D01*
Y31533D01*
X131039D01*
Y31645D01*
X131151D01*
Y31757D01*
Y31869D01*
X131263D01*
Y31981D01*
X131375D01*
Y32093D01*
Y32205D01*
X131151D01*
Y32093D01*
X131039D01*
Y31981D01*
X130815D01*
Y31869D01*
X130703D01*
Y31757D01*
X130591D01*
Y31645D01*
X130479D01*
Y31533D01*
X130367D01*
Y31421D01*
X130255D01*
Y31308D01*
X130142D01*
Y31196D01*
X130031D01*
Y31084D01*
X129918D01*
Y30972D01*
Y30860D01*
X129806D01*
Y30748D01*
X129694D01*
Y30636D01*
X129582D01*
Y30524D01*
Y30412D01*
X129470D01*
Y30300D01*
X129358D01*
Y30188D01*
X129246D01*
Y30076D01*
Y29964D01*
X129134D01*
Y29852D01*
X129022D01*
Y29964D01*
Y30076D01*
Y30188D01*
X129134D01*
Y30300D01*
Y30412D01*
Y30524D01*
X129246D01*
Y30636D01*
Y30748D01*
X129358D01*
Y30860D01*
Y30972D01*
Y31084D01*
X129470D01*
Y31196D01*
Y31308D01*
X129582D01*
Y31421D01*
Y31533D01*
Y31645D01*
X129694D01*
Y31757D01*
Y31869D01*
X129806D01*
Y31981D01*
Y32093D01*
X129918D01*
Y32205D01*
Y32317D01*
X130031D01*
Y32429D01*
Y32541D01*
Y32653D01*
X130142D01*
Y32765D01*
Y32877D01*
X130255D01*
Y32989D01*
X130367D01*
Y33101D01*
Y33213D01*
X130479D01*
Y33325D01*
Y33437D01*
X130591D01*
Y33549D01*
Y33661D01*
X130703D01*
Y33773D01*
Y33885D01*
X130815D01*
Y33997D01*
X130927D01*
Y34110D01*
Y34222D01*
X131039D01*
Y34334D01*
Y34446D01*
X131151D01*
Y34558D01*
X131263D01*
Y34670D01*
Y34782D01*
X131375D01*
Y34894D01*
Y35006D01*
X131487D01*
Y35118D01*
X131599D01*
Y35230D01*
Y35342D01*
X131711D01*
Y35454D01*
X131823D01*
Y35566D01*
Y35678D01*
X131935D01*
Y35790D01*
X132047D01*
Y35902D01*
Y36014D01*
X132159D01*
Y36126D01*
X132271D01*
Y36238D01*
X132383D01*
Y36350D01*
Y36462D01*
X132495D01*
Y36574D01*
X132607D01*
Y36686D01*
Y36798D01*
X132719D01*
Y36910D01*
X132831D01*
Y37023D01*
X132943D01*
Y37135D01*
Y37247D01*
X133055D01*
Y37359D01*
X133168D01*
Y37471D01*
X133280D01*
Y37583D01*
Y37695D01*
X133392D01*
Y37807D01*
X133504D01*
Y37919D01*
X133616D01*
Y38031D01*
X133728D01*
Y38143D01*
Y38255D01*
X133840D01*
Y38367D01*
X133952D01*
Y38479D01*
X134064D01*
Y38591D01*
Y38703D01*
Y38815D01*
Y38927D01*
Y39039D01*
Y39151D01*
X133952D01*
Y39263D01*
X133840D01*
Y39375D01*
X133616D01*
Y39487D01*
X133168D01*
Y39599D01*
X132607D01*
Y39711D01*
X132719D01*
Y39823D01*
X132831D01*
Y39935D01*
X132943D01*
Y40047D01*
X133055D01*
Y40159D01*
X133168D01*
Y40272D01*
X133280D01*
Y40384D01*
Y40496D01*
X133392D01*
Y40608D01*
X133504D01*
Y40720D01*
X133616D01*
Y40832D01*
X133728D01*
Y40944D01*
X133840D01*
Y41056D01*
X133952D01*
Y41168D01*
Y41280D01*
X134064D01*
Y41392D01*
X134176D01*
Y41504D01*
X134288D01*
Y41616D01*
X134400D01*
Y41728D01*
Y41840D01*
X134512D01*
Y41952D01*
X134624D01*
Y42064D01*
X134736D01*
Y42176D01*
Y42288D01*
X134848D01*
Y42400D01*
X134960D01*
Y42512D01*
X135072D01*
Y42624D01*
X135184D01*
Y42736D01*
Y42848D01*
X135296D01*
Y42961D01*
X135408D01*
Y43073D01*
X135520D01*
Y43185D01*
X135632D01*
Y43297D01*
Y43409D01*
X135744D01*
Y43521D01*
X135856D01*
Y43633D01*
X135968D01*
Y43745D01*
X136081D01*
Y43857D01*
X136193D01*
Y43969D01*
Y44081D01*
X136305D01*
Y44193D01*
X136417D01*
Y44305D01*
X136529D01*
Y44417D01*
X136641D01*
Y44529D01*
X136753D01*
Y44641D01*
X136865D01*
Y44753D01*
X136977D01*
Y44865D01*
X137089D01*
Y44977D01*
X137201D01*
Y45089D01*
X137425D01*
Y45201D01*
X137537D01*
Y45313D01*
X137649D01*
Y45425D01*
X137761D01*
Y45537D01*
X137985D01*
Y45649D01*
X138097D01*
Y45761D01*
X138321D01*
Y45873D01*
X138433D01*
Y45985D01*
X139106D01*
Y46097D01*
X139554D01*
Y46210D01*
X139890D01*
Y46322D01*
X140114D01*
Y46434D01*
X140338D01*
Y46546D01*
X140562D01*
Y46658D01*
X140674D01*
Y46770D01*
X140898D01*
Y46882D01*
X141010D01*
Y46994D01*
X141122D01*
Y47106D01*
X141234D01*
Y47218D01*
X141346D01*
Y47330D01*
X141458D01*
Y47442D01*
X141570D01*
Y47554D01*
X141682D01*
Y47666D01*
X141795D01*
Y47778D01*
X141906D01*
Y47890D01*
Y48002D01*
X142018D01*
Y48114D01*
X142131D01*
Y48226D01*
Y48338D01*
X142243D01*
Y48450D01*
X142355D01*
Y48562D01*
Y48674D01*
X142467D01*
Y48787D01*
Y48899D01*
X142579D01*
Y49011D01*
Y49123D01*
X142691D01*
Y49235D01*
Y49347D01*
X142803D01*
Y49459D01*
Y49571D01*
Y49683D01*
X142915D01*
Y49795D01*
Y49907D01*
X143027D01*
Y50019D01*
Y50131D01*
X143139D01*
Y50243D01*
Y50355D01*
Y50467D01*
X143251D01*
Y50579D01*
Y50691D01*
X143363D01*
Y50579D01*
D02*
G37*
G36*
X360075Y29248D02*
Y29058D01*
Y28867D01*
X254084D01*
Y29058D01*
Y29248D01*
Y29439D01*
X360075D01*
Y29248D01*
D02*
G37*
G36*
X117594Y30972D02*
Y30860D01*
Y30748D01*
X117482D01*
Y30636D01*
Y30524D01*
X117370D01*
Y30412D01*
Y30300D01*
X117258D01*
Y30188D01*
X117146D01*
Y30076D01*
Y29964D01*
X117034D01*
Y29852D01*
X116922D01*
Y29740D01*
Y29628D01*
X116810D01*
Y29516D01*
X116698D01*
Y29404D01*
X116586D01*
Y29292D01*
X116474D01*
Y29180D01*
X116362D01*
Y29068D01*
X116250D01*
Y28956D01*
X116138D01*
Y28844D01*
X115914D01*
Y28732D01*
X115802D01*
Y28620D01*
X115578D01*
Y28508D01*
X115354D01*
Y28396D01*
X115129D01*
Y28284D01*
X114905D01*
Y28172D01*
X114793D01*
Y28059D01*
X114905D01*
Y27947D01*
X115129D01*
Y27835D01*
X115466D01*
Y27723D01*
X116586D01*
Y27835D01*
X116810D01*
Y27947D01*
X117034D01*
Y27835D01*
X116922D01*
Y27723D01*
Y27611D01*
X116698D01*
Y27499D01*
X116586D01*
Y27387D01*
X116474D01*
Y27275D01*
X116250D01*
Y27163D01*
X115914D01*
Y27051D01*
X115466D01*
Y26939D01*
X114681D01*
Y27051D01*
X114121D01*
Y27163D01*
X113897D01*
Y27275D01*
X113561D01*
Y27387D01*
X113449D01*
Y27499D01*
X113225D01*
Y27611D01*
X113001D01*
Y27723D01*
X112889D01*
Y27835D01*
X112777D01*
Y27947D01*
X112665D01*
Y28059D01*
X112553D01*
Y28172D01*
X112441D01*
Y28284D01*
X112329D01*
Y28396D01*
X112216D01*
Y28508D01*
X112104D01*
Y28620D01*
Y28732D01*
X111992D01*
Y28844D01*
X111880D01*
Y28956D01*
Y29068D01*
X112104D01*
Y28956D01*
X112553D01*
Y28844D01*
X114009D01*
Y28956D01*
X114569D01*
Y29068D01*
X114905D01*
Y29180D01*
X115129D01*
Y29292D01*
X115466D01*
Y29404D01*
X115690D01*
Y29516D01*
X115802D01*
Y29628D01*
X116026D01*
Y29740D01*
X116250D01*
Y29852D01*
X116362D01*
Y29964D01*
X116474D01*
Y30076D01*
X116698D01*
Y30188D01*
X116810D01*
Y30300D01*
X116922D01*
Y30412D01*
X117034D01*
Y30524D01*
X117146D01*
Y30636D01*
X117258D01*
Y30748D01*
X117370D01*
Y30860D01*
X117482D01*
Y30972D01*
Y31084D01*
X117594D01*
Y30972D01*
D02*
G37*
G36*
X136753Y31084D02*
X136865D01*
Y30972D01*
Y30860D01*
X136977D01*
Y30748D01*
X137089D01*
Y30636D01*
X137201D01*
Y30524D01*
X137313D01*
Y30412D01*
X137425D01*
Y30300D01*
X137537D01*
Y30188D01*
X137649D01*
Y30076D01*
X137761D01*
Y29964D01*
X137985D01*
Y29852D01*
X138097D01*
Y29740D01*
X138209D01*
Y29628D01*
X138433D01*
Y29516D01*
X138545D01*
Y29404D01*
X138769D01*
Y29292D01*
X138994D01*
Y29180D01*
X139330D01*
Y29068D01*
X139554D01*
Y28956D01*
X140002D01*
Y28844D01*
X140562D01*
Y28732D01*
X141682D01*
Y28844D01*
X142243D01*
Y28956D01*
X142579D01*
Y28844D01*
X142467D01*
Y28732D01*
Y28620D01*
X142355D01*
Y28508D01*
X142243D01*
Y28396D01*
X142131D01*
Y28284D01*
Y28172D01*
X142018D01*
Y28059D01*
X141906D01*
Y27947D01*
X141795D01*
Y27835D01*
X141570D01*
Y27723D01*
X141458D01*
Y27611D01*
X141346D01*
Y27499D01*
X141122D01*
Y27387D01*
X141010D01*
Y27275D01*
X140786D01*
Y27163D01*
X140562D01*
Y27051D01*
X140226D01*
Y26939D01*
X139554D01*
Y26827D01*
X139106D01*
Y26939D01*
X138545D01*
Y27051D01*
X138209D01*
Y27163D01*
X137985D01*
Y27275D01*
X137873D01*
Y27387D01*
X137649D01*
Y27499D01*
X137537D01*
Y27611D01*
X137425D01*
Y27723D01*
X137313D01*
Y27835D01*
Y27947D01*
X137425D01*
Y27835D01*
X137649D01*
Y27723D01*
X137985D01*
Y27611D01*
X138882D01*
Y27723D01*
X139218D01*
Y27835D01*
X139442D01*
Y27947D01*
X139554D01*
Y28059D01*
Y28172D01*
X139330D01*
Y28284D01*
X139106D01*
Y28396D01*
X138882D01*
Y28508D01*
X138657D01*
Y28620D01*
X138545D01*
Y28732D01*
X138321D01*
Y28844D01*
X138209D01*
Y28956D01*
X138097D01*
Y29068D01*
X137985D01*
Y29180D01*
X137873D01*
Y29292D01*
X137761D01*
Y29404D01*
X137649D01*
Y29516D01*
X137537D01*
Y29628D01*
X137425D01*
Y29740D01*
Y29852D01*
X137313D01*
Y29964D01*
X137201D01*
Y30076D01*
Y30188D01*
X137089D01*
Y30300D01*
Y30412D01*
X136977D01*
Y30524D01*
Y30636D01*
X136865D01*
Y30748D01*
Y30860D01*
X136753D01*
Y30972D01*
Y31084D01*
X136641D01*
Y31196D01*
X136753D01*
Y31084D01*
D02*
G37*
G36*
X135856Y27835D02*
Y27723D01*
X135968D01*
Y27611D01*
X136081D01*
Y27499D01*
Y27387D01*
X136193D01*
Y27275D01*
X136305D01*
Y27163D01*
Y27051D01*
X136417D01*
Y26939D01*
X136529D01*
Y26827D01*
X136641D01*
Y26715D01*
X136753D01*
Y26603D01*
X136865D01*
Y26491D01*
X136977D01*
Y26379D01*
X137089D01*
Y26267D01*
X137201D01*
Y26155D01*
X137313D01*
Y26043D01*
X137425D01*
Y25931D01*
X137649D01*
Y25819D01*
X137761D01*
Y25707D01*
X137873D01*
Y25595D01*
X138097D01*
Y25483D01*
X138209D01*
Y25370D01*
X138433D01*
Y25258D01*
X138545D01*
Y25146D01*
X138769D01*
Y25034D01*
X138994D01*
Y24922D01*
X139218D01*
Y24810D01*
X139554D01*
Y24698D01*
X139778D01*
Y24586D01*
X140114D01*
Y24474D01*
X140674D01*
Y24362D01*
X140786D01*
Y24250D01*
X140674D01*
Y24138D01*
X140450D01*
Y24026D01*
X140226D01*
Y23914D01*
X140002D01*
Y23802D01*
X139666D01*
Y23690D01*
X139330D01*
Y23578D01*
X138657D01*
Y23466D01*
X138433D01*
Y23578D01*
X137761D01*
Y23690D01*
X137537D01*
Y23802D01*
X137313D01*
Y23914D01*
X137089D01*
Y24026D01*
X136977D01*
Y24138D01*
X136753D01*
Y24250D01*
X136641D01*
Y24362D01*
X136529D01*
Y24474D01*
X136417D01*
Y24586D01*
X136305D01*
Y24698D01*
Y24810D01*
X136193D01*
Y24922D01*
X136081D01*
Y25034D01*
X135968D01*
Y25146D01*
X136193D01*
Y25034D01*
X136641D01*
Y24922D01*
X136977D01*
Y25034D01*
X137201D01*
Y25146D01*
X137313D01*
Y25258D01*
Y25370D01*
X137201D01*
Y25483D01*
X136977D01*
Y25595D01*
X136865D01*
Y25707D01*
X136753D01*
Y25819D01*
X136641D01*
Y25931D01*
Y26043D01*
X136529D01*
Y26155D01*
X136417D01*
Y26267D01*
X136305D01*
Y26379D01*
Y26491D01*
X136193D01*
Y26603D01*
Y26715D01*
X136081D01*
Y26827D01*
Y26939D01*
X135968D01*
Y27051D01*
Y27163D01*
Y27275D01*
X135856D01*
Y27387D01*
Y27499D01*
Y27611D01*
X135744D01*
Y27723D01*
Y27835D01*
Y27947D01*
X135856D01*
Y27835D01*
D02*
G37*
G36*
X118603D02*
Y27723D01*
Y27611D01*
Y27499D01*
X118491D01*
Y27387D01*
Y27275D01*
Y27163D01*
X118378D01*
Y27051D01*
Y26939D01*
Y26827D01*
X118266D01*
Y26715D01*
Y26603D01*
X118155D01*
Y26491D01*
X118042D01*
Y26379D01*
Y26267D01*
X117930D01*
Y26155D01*
X117818D01*
Y26043D01*
X117706D01*
Y25931D01*
Y25819D01*
X117594D01*
Y25707D01*
X117370D01*
Y25595D01*
X117258D01*
Y25483D01*
X117146D01*
Y25370D01*
X117034D01*
Y25258D01*
X117146D01*
Y25146D01*
X117370D01*
Y25034D01*
X117930D01*
Y25146D01*
X118266D01*
Y25258D01*
X118378D01*
Y25146D01*
Y25034D01*
X118266D01*
Y24922D01*
X118155D01*
Y24810D01*
X118042D01*
Y24698D01*
X117930D01*
Y24586D01*
X117818D01*
Y24474D01*
X117706D01*
Y24362D01*
X117594D01*
Y24250D01*
X117482D01*
Y24138D01*
X117370D01*
Y24026D01*
X117146D01*
Y23914D01*
X116922D01*
Y23802D01*
X116698D01*
Y23690D01*
X116250D01*
Y23578D01*
X115578D01*
Y23690D01*
X115017D01*
Y23802D01*
X114681D01*
Y23914D01*
X114457D01*
Y24026D01*
X114121D01*
Y24138D01*
X114009D01*
Y24250D01*
X113785D01*
Y24362D01*
X113561D01*
Y24474D01*
X113785D01*
Y24586D01*
X114345D01*
Y24698D01*
X114681D01*
Y24810D01*
X115017D01*
Y24922D01*
X115242D01*
Y25034D01*
X115466D01*
Y25146D01*
X115690D01*
Y25258D01*
X115914D01*
Y25370D01*
X116026D01*
Y25483D01*
X116250D01*
Y25595D01*
X116362D01*
Y25707D01*
X116586D01*
Y25819D01*
X116698D01*
Y25931D01*
X116810D01*
Y26043D01*
X117034D01*
Y26155D01*
X117146D01*
Y26267D01*
X117258D01*
Y26379D01*
X117370D01*
Y26491D01*
X117482D01*
Y26603D01*
X117594D01*
Y26715D01*
X117706D01*
Y26827D01*
X117818D01*
Y26939D01*
X117930D01*
Y27051D01*
X118042D01*
Y27163D01*
Y27275D01*
X118155D01*
Y27387D01*
X118266D01*
Y27499D01*
X118378D01*
Y27611D01*
Y27723D01*
X118491D01*
Y27835D01*
Y27947D01*
X118603D01*
Y27835D01*
D02*
G37*
G36*
X134960Y24810D02*
Y24698D01*
X135072D01*
Y24586D01*
Y24474D01*
X135184D01*
Y24362D01*
Y24250D01*
X135296D01*
Y24138D01*
X135408D01*
Y24026D01*
Y23914D01*
X135520D01*
Y23802D01*
X135632D01*
Y23690D01*
X135744D01*
Y23578D01*
Y23466D01*
X135856D01*
Y23354D01*
X135968D01*
Y23242D01*
X136081D01*
Y23130D01*
X136193D01*
Y23018D01*
X136305D01*
Y22906D01*
X136417D01*
Y22794D01*
X136641D01*
Y22682D01*
X136753D01*
Y22570D01*
X136865D01*
Y22457D01*
X137089D01*
Y22345D01*
X137313D01*
Y22233D01*
X137537D01*
Y22121D01*
X137761D01*
Y22009D01*
X138209D01*
Y21897D01*
X138433D01*
Y21785D01*
X138209D01*
Y21673D01*
X137873D01*
Y21561D01*
X137425D01*
Y21449D01*
X135744D01*
Y21561D01*
X135408D01*
Y21673D01*
X135184D01*
Y21785D01*
X134960D01*
Y21897D01*
X134736D01*
Y22009D01*
X134624D01*
Y22121D01*
X134400D01*
Y22233D01*
X134288D01*
Y22345D01*
X134512D01*
Y22233D01*
X134848D01*
Y22121D01*
X135968D01*
Y22233D01*
X135856D01*
Y22345D01*
X135744D01*
Y22457D01*
X135632D01*
Y22570D01*
X135520D01*
Y22682D01*
X135408D01*
Y22794D01*
Y22906D01*
X135296D01*
Y23018D01*
Y23130D01*
X135184D01*
Y23242D01*
Y23354D01*
X135072D01*
Y23466D01*
Y23578D01*
Y23690D01*
X134960D01*
Y23802D01*
Y23914D01*
Y24026D01*
X134848D01*
Y24138D01*
Y24250D01*
Y24362D01*
Y24474D01*
Y24586D01*
Y24698D01*
Y24810D01*
Y24922D01*
X134960D01*
Y24810D01*
D02*
G37*
G36*
X119611Y24922D02*
Y24810D01*
Y24698D01*
Y24586D01*
Y24474D01*
X119499D01*
Y24362D01*
Y24250D01*
Y24138D01*
Y24026D01*
Y23914D01*
X119387D01*
Y23802D01*
Y23690D01*
Y23578D01*
X119275D01*
Y23466D01*
Y23354D01*
Y23242D01*
X119163D01*
Y23130D01*
Y23018D01*
X119051D01*
Y22906D01*
X118939D01*
Y22794D01*
Y22682D01*
X118827D01*
Y22570D01*
X118715D01*
Y22457D01*
X118603D01*
Y22345D01*
X118378D01*
Y22233D01*
X118715D01*
Y22121D01*
X119163D01*
Y22233D01*
X119611D01*
Y22345D01*
X120059D01*
Y22233D01*
X119835D01*
Y22121D01*
X119723D01*
Y22009D01*
X119499D01*
Y21897D01*
X119275D01*
Y21785D01*
X119051D01*
Y21673D01*
X118715D01*
Y21561D01*
X116922D01*
Y21673D01*
X116474D01*
Y21785D01*
X116250D01*
Y21897D01*
X115914D01*
Y22009D01*
X116362D01*
Y22121D01*
X116698D01*
Y22233D01*
X116922D01*
Y22345D01*
X117146D01*
Y22457D01*
X117370D01*
Y22570D01*
X117594D01*
Y22682D01*
X117706D01*
Y22794D01*
X117818D01*
Y22906D01*
X118042D01*
Y23018D01*
X118155D01*
Y23130D01*
X118266D01*
Y23242D01*
X118378D01*
Y23354D01*
X118491D01*
Y23466D01*
X118603D01*
Y23578D01*
Y23690D01*
X118715D01*
Y23802D01*
X118827D01*
Y23914D01*
X118939D01*
Y24026D01*
Y24138D01*
X119051D01*
Y24250D01*
X119163D01*
Y24362D01*
Y24474D01*
X119275D01*
Y24586D01*
X119387D01*
Y24698D01*
Y24810D01*
X119499D01*
Y24922D01*
Y25034D01*
X119611D01*
Y24922D01*
D02*
G37*
G36*
X288268Y22564D02*
Y22373D01*
Y22183D01*
Y21992D01*
Y21801D01*
Y21610D01*
Y21418D01*
X287122D01*
Y21610D01*
Y21801D01*
Y21992D01*
Y22183D01*
Y22373D01*
Y22564D01*
Y22755D01*
X288268D01*
Y22564D01*
D02*
G37*
G36*
X340786Y22183D02*
Y21992D01*
Y21801D01*
Y21610D01*
Y21418D01*
Y21228D01*
X339450D01*
Y21418D01*
Y21610D01*
Y21801D01*
Y21992D01*
Y22183D01*
Y22373D01*
X340786D01*
Y22183D01*
D02*
G37*
G36*
X350335Y23137D02*
Y22946D01*
Y22755D01*
Y22564D01*
Y22373D01*
Y22183D01*
Y21992D01*
Y21801D01*
Y21610D01*
Y21418D01*
Y21228D01*
Y21037D01*
Y20846D01*
Y20655D01*
Y20464D01*
Y20273D01*
Y20082D01*
Y19891D01*
Y19700D01*
Y19509D01*
Y19318D01*
Y19127D01*
Y18936D01*
Y18745D01*
Y18554D01*
Y18363D01*
Y18172D01*
Y17981D01*
Y17790D01*
Y17599D01*
Y17408D01*
Y17217D01*
Y17026D01*
Y16835D01*
Y16644D01*
Y16453D01*
Y16262D01*
Y16071D01*
Y15880D01*
Y15689D01*
Y15498D01*
Y15307D01*
Y15116D01*
Y14925D01*
Y14734D01*
Y14543D01*
Y14352D01*
Y14162D01*
Y13971D01*
Y13780D01*
Y13589D01*
X349762D01*
Y13780D01*
X349571D01*
Y13971D01*
X349189D01*
Y13780D01*
Y13589D01*
X342887D01*
Y13780D01*
X342696D01*
Y13971D01*
X342314D01*
Y14162D01*
X342123D01*
Y14352D01*
Y14543D01*
X341741D01*
Y14734D01*
X341550D01*
Y14925D01*
Y15116D01*
Y15307D01*
Y15498D01*
Y15689D01*
Y15880D01*
Y16071D01*
Y16262D01*
Y16453D01*
Y16644D01*
Y16835D01*
Y17026D01*
Y17217D01*
Y17408D01*
Y17599D01*
Y17790D01*
Y17981D01*
Y18172D01*
Y18363D01*
Y18554D01*
Y18745D01*
Y18936D01*
Y19127D01*
X341741D01*
Y19318D01*
X341932D01*
Y19509D01*
X342123D01*
Y19700D01*
X342314D01*
Y19891D01*
X342505D01*
Y20082D01*
X342696D01*
Y20273D01*
X348807D01*
Y20082D01*
X349189D01*
Y20273D01*
Y20464D01*
Y20655D01*
Y20846D01*
Y21037D01*
Y21228D01*
Y21418D01*
Y21610D01*
Y21801D01*
Y21992D01*
Y22183D01*
Y22373D01*
Y22564D01*
Y22755D01*
Y22946D01*
Y23137D01*
Y23328D01*
X350335D01*
Y23137D01*
D02*
G37*
G36*
X338686Y20082D02*
Y19891D01*
Y19700D01*
Y19509D01*
Y19318D01*
Y19127D01*
X335057D01*
Y18936D01*
X334866D01*
Y18745D01*
X334675D01*
Y18554D01*
Y18363D01*
Y18172D01*
Y17981D01*
Y17790D01*
Y17599D01*
Y17408D01*
Y17217D01*
Y17026D01*
Y16835D01*
Y16644D01*
Y16453D01*
Y16262D01*
Y16071D01*
Y15880D01*
Y15689D01*
Y15498D01*
Y15307D01*
Y15116D01*
Y14925D01*
Y14734D01*
Y14543D01*
Y14352D01*
Y14162D01*
Y13971D01*
Y13780D01*
Y13589D01*
X333338D01*
Y13780D01*
Y13971D01*
Y14162D01*
Y14352D01*
Y14543D01*
Y14734D01*
Y14925D01*
Y15116D01*
Y15307D01*
Y15498D01*
Y15689D01*
Y15880D01*
Y16071D01*
Y16262D01*
Y16453D01*
Y16644D01*
Y16835D01*
Y17026D01*
Y17217D01*
Y17408D01*
Y17599D01*
Y17790D01*
Y17981D01*
Y18172D01*
Y18363D01*
Y18554D01*
Y18745D01*
Y18936D01*
Y19127D01*
Y19318D01*
Y19509D01*
Y19700D01*
Y19891D01*
Y20082D01*
Y20273D01*
X334102D01*
Y20082D01*
X334484D01*
Y20273D01*
X338686D01*
Y20082D01*
D02*
G37*
G36*
X297435Y20464D02*
Y20273D01*
Y20082D01*
Y19891D01*
Y19700D01*
Y19509D01*
X290942D01*
Y19700D01*
X290751D01*
Y19509D01*
X290942D01*
Y19318D01*
X290369D01*
Y19127D01*
X290560D01*
Y18936D01*
X290369D01*
Y18745D01*
Y18554D01*
Y18363D01*
Y18172D01*
Y17981D01*
Y17790D01*
Y17599D01*
Y17408D01*
Y17217D01*
Y17026D01*
Y16835D01*
Y16644D01*
Y16453D01*
Y16262D01*
Y16071D01*
Y15880D01*
Y15689D01*
Y15498D01*
X290560D01*
Y15307D01*
X290751D01*
Y15116D01*
X297435D01*
Y14925D01*
Y14734D01*
Y14543D01*
Y14352D01*
Y14162D01*
Y13971D01*
X290178D01*
Y14162D01*
X289987D01*
Y14352D01*
X289796D01*
Y14543D01*
X289605D01*
Y14734D01*
X289414D01*
Y14925D01*
X289223D01*
Y15116D01*
Y15307D01*
Y15498D01*
Y15689D01*
Y15880D01*
Y16071D01*
Y16262D01*
Y16453D01*
Y16644D01*
Y16835D01*
Y17026D01*
Y17217D01*
Y17408D01*
Y17599D01*
Y17790D01*
Y17981D01*
Y18172D01*
Y18363D01*
Y18554D01*
Y18745D01*
Y18936D01*
Y19127D01*
Y19318D01*
Y19509D01*
X289414D01*
Y19700D01*
X289796D01*
Y19891D01*
Y20082D01*
X289987D01*
Y20273D01*
X290178D01*
Y20464D01*
X290369D01*
Y20655D01*
X297435D01*
Y20464D01*
D02*
G37*
G36*
X129918Y19433D02*
Y19320D01*
X129806D01*
Y19433D01*
Y19545D01*
X129918D01*
Y19433D01*
D02*
G37*
G36*
X124541Y19208D02*
Y19096D01*
X124429D01*
Y19208D01*
Y19320D01*
X124541D01*
Y19208D01*
D02*
G37*
G36*
X130031Y18984D02*
Y18872D01*
X129918D01*
Y18984D01*
Y19096D01*
X130031D01*
Y18984D01*
D02*
G37*
G36*
X124429Y18872D02*
Y18760D01*
Y18648D01*
X124317D01*
Y18760D01*
Y18872D01*
Y18984D01*
X124429D01*
Y18872D01*
D02*
G37*
G36*
X130142Y18536D02*
Y18424D01*
X130031D01*
Y18536D01*
Y18648D01*
X130142D01*
Y18536D01*
D02*
G37*
G36*
X124317Y18424D02*
Y18312D01*
Y18200D01*
X124205D01*
Y18312D01*
Y18424D01*
Y18536D01*
X124317D01*
Y18424D01*
D02*
G37*
G36*
X124205Y18088D02*
Y17976D01*
Y17864D01*
X124092D01*
Y17976D01*
Y18088D01*
Y18200D01*
X124205D01*
Y18088D01*
D02*
G37*
G36*
X274709Y23519D02*
Y23328D01*
Y23137D01*
Y22946D01*
Y22755D01*
Y22564D01*
Y22373D01*
Y22183D01*
Y21992D01*
Y21801D01*
Y21610D01*
Y21418D01*
Y21228D01*
Y21037D01*
Y20846D01*
Y20655D01*
Y20464D01*
Y20273D01*
Y20082D01*
Y19891D01*
Y19700D01*
Y19509D01*
Y19318D01*
Y19127D01*
Y18936D01*
Y18745D01*
Y18554D01*
Y18363D01*
Y18172D01*
Y17981D01*
Y17790D01*
Y17599D01*
Y17408D01*
Y17217D01*
Y17026D01*
Y16835D01*
Y16644D01*
Y16453D01*
Y16262D01*
Y16071D01*
Y15880D01*
Y15689D01*
Y15498D01*
Y15307D01*
X274518D01*
Y15116D01*
Y14925D01*
X274327D01*
Y14734D01*
X274136D01*
Y14543D01*
X273754D01*
Y14352D01*
Y14162D01*
X273372D01*
Y13971D01*
X264969D01*
Y14162D01*
X264778D01*
Y14352D01*
X264587D01*
Y14543D01*
X264396D01*
Y14734D01*
X264205D01*
Y14925D01*
X264014D01*
Y15116D01*
X263823D01*
Y15307D01*
Y15498D01*
Y15689D01*
Y15880D01*
Y16071D01*
Y16262D01*
Y16453D01*
Y16644D01*
Y16835D01*
Y17026D01*
Y17217D01*
Y17408D01*
Y17599D01*
Y17790D01*
Y17981D01*
Y18172D01*
Y18363D01*
Y18554D01*
Y18745D01*
Y18936D01*
Y19127D01*
Y19318D01*
Y19509D01*
Y19700D01*
Y19891D01*
Y20082D01*
Y20273D01*
Y20464D01*
Y20655D01*
Y20846D01*
Y21037D01*
Y21228D01*
Y21418D01*
Y21610D01*
Y21801D01*
Y21992D01*
Y22183D01*
Y22373D01*
Y22564D01*
Y22755D01*
Y22946D01*
Y23137D01*
Y23328D01*
Y23519D01*
Y23710D01*
X264969D01*
Y23519D01*
Y23328D01*
Y23137D01*
Y22946D01*
Y22755D01*
Y22564D01*
Y22373D01*
Y22183D01*
Y21992D01*
Y21801D01*
Y21610D01*
Y21418D01*
Y21228D01*
Y21037D01*
Y20846D01*
Y20655D01*
Y20464D01*
Y20273D01*
Y20082D01*
Y19891D01*
Y19700D01*
Y19509D01*
Y19318D01*
Y19127D01*
Y18936D01*
Y18745D01*
Y18554D01*
Y18363D01*
Y18172D01*
Y17981D01*
Y17790D01*
Y17599D01*
Y17408D01*
Y17217D01*
Y17026D01*
Y16835D01*
Y16644D01*
Y16453D01*
Y16262D01*
Y16071D01*
Y15880D01*
Y15689D01*
X265160D01*
Y15498D01*
X265351D01*
Y15307D01*
Y15116D01*
X272990D01*
Y15307D01*
X273181D01*
Y15116D01*
X273372D01*
Y15307D01*
X273181D01*
Y15498D01*
X273372D01*
Y15689D01*
Y15880D01*
Y16071D01*
Y16262D01*
Y16453D01*
Y16644D01*
Y16835D01*
Y17026D01*
Y17217D01*
Y17408D01*
Y17599D01*
Y17790D01*
Y17981D01*
Y18172D01*
Y18363D01*
Y18554D01*
Y18745D01*
Y18936D01*
Y19127D01*
Y19318D01*
Y19509D01*
Y19700D01*
Y19891D01*
Y20082D01*
Y20273D01*
Y20464D01*
Y20655D01*
Y20846D01*
Y21037D01*
Y21228D01*
Y21418D01*
Y21610D01*
Y21801D01*
Y21992D01*
Y22183D01*
Y22373D01*
Y22564D01*
Y22755D01*
Y22946D01*
Y23137D01*
Y23328D01*
Y23519D01*
Y23710D01*
X274709D01*
Y23519D01*
D02*
G37*
G36*
X323599Y20082D02*
X323408D01*
Y19891D01*
Y19700D01*
X323217D01*
Y19509D01*
Y19318D01*
X323026D01*
Y19127D01*
Y18936D01*
X322835D01*
Y18745D01*
Y18554D01*
X322644D01*
Y18363D01*
Y18172D01*
X322453D01*
Y17981D01*
Y17790D01*
X322262D01*
Y17599D01*
Y17408D01*
X322071D01*
Y17217D01*
Y17026D01*
X321880D01*
Y16835D01*
Y16644D01*
X321689D01*
Y16453D01*
Y16262D01*
X321498D01*
Y16071D01*
Y15880D01*
X321307D01*
Y15689D01*
Y15498D01*
X321116D01*
Y15307D01*
Y15116D01*
X320925D01*
Y14925D01*
Y14734D01*
X320734D01*
Y14543D01*
Y14352D01*
X320352D01*
Y14162D01*
X320543D01*
Y13971D01*
X320352D01*
Y13780D01*
Y13589D01*
X320161D01*
Y13398D01*
Y13207D01*
X319970D01*
Y13016D01*
Y12825D01*
X319779D01*
Y12634D01*
Y12443D01*
X319588D01*
Y12252D01*
X319397D01*
Y12061D01*
Y11870D01*
Y11679D01*
X319206D01*
Y11488D01*
Y11297D01*
X318824D01*
Y11106D01*
Y10915D01*
Y10724D01*
Y10533D01*
X317678D01*
Y10724D01*
X317487D01*
Y10533D01*
X317296D01*
Y10724D01*
Y10915D01*
X317678D01*
Y11106D01*
Y11297D01*
Y11488D01*
Y11679D01*
X317869D01*
Y11870D01*
Y12061D01*
X318251D01*
Y12252D01*
X318060D01*
Y12443D01*
X318251D01*
Y12634D01*
Y12825D01*
X318442D01*
Y13016D01*
Y13207D01*
X318633D01*
Y13398D01*
Y13589D01*
Y13780D01*
Y13971D01*
X318442D01*
Y14162D01*
Y14352D01*
Y14543D01*
X318251D01*
Y14734D01*
X318060D01*
Y14925D01*
Y15116D01*
X317869D01*
Y15307D01*
Y15498D01*
Y15689D01*
X317678D01*
Y15880D01*
X317487D01*
Y16071D01*
Y16262D01*
X317296D01*
Y16453D01*
Y16644D01*
X317106D01*
Y16835D01*
Y17026D01*
X316915D01*
Y17217D01*
Y17408D01*
Y17599D01*
X316723D01*
Y17790D01*
X316532D01*
Y17981D01*
Y18172D01*
X316342D01*
Y18363D01*
Y18554D01*
Y18745D01*
X316151D01*
Y18936D01*
X315960D01*
Y19127D01*
Y19318D01*
X315769D01*
Y19509D01*
Y19700D01*
X315578D01*
Y19891D01*
Y20082D01*
X315387D01*
Y20273D01*
X316915D01*
Y20082D01*
Y19891D01*
X317106D01*
Y19700D01*
Y19509D01*
Y19318D01*
X317296D01*
Y19127D01*
X317487D01*
Y18936D01*
Y18745D01*
X317678D01*
Y18554D01*
Y18363D01*
X317869D01*
Y18172D01*
Y17981D01*
X318060D01*
Y17790D01*
Y17599D01*
X318251D01*
Y17408D01*
Y17217D01*
X318442D01*
Y17026D01*
Y16835D01*
X318633D01*
Y16644D01*
Y16453D01*
Y16262D01*
X318824D01*
Y16071D01*
X319015D01*
Y15880D01*
Y15689D01*
X319206D01*
Y15498D01*
Y15307D01*
X319397D01*
Y15116D01*
Y14925D01*
X319588D01*
Y15116D01*
X319779D01*
Y15307D01*
X319588D01*
Y15498D01*
X319779D01*
Y15689D01*
Y15880D01*
X319970D01*
Y16071D01*
Y16262D01*
X320161D01*
Y16453D01*
Y16644D01*
X320352D01*
Y16835D01*
Y17026D01*
X320734D01*
Y17217D01*
Y17408D01*
Y17599D01*
Y17790D01*
X320925D01*
Y17981D01*
Y18172D01*
X321307D01*
Y18363D01*
X321116D01*
Y18554D01*
X321307D01*
Y18745D01*
Y18936D01*
X321498D01*
Y19127D01*
Y19318D01*
X321689D01*
Y19509D01*
Y19700D01*
X321880D01*
Y19891D01*
Y20082D01*
X322262D01*
Y20273D01*
X323599D01*
Y20082D01*
D02*
G37*
G36*
X286931Y23519D02*
X286740D01*
Y23328D01*
X286549D01*
Y23137D01*
Y22946D01*
Y22755D01*
X286358D01*
Y22564D01*
Y22373D01*
X286167D01*
Y22183D01*
Y21992D01*
X285977D01*
Y21801D01*
Y21610D01*
X285786D01*
Y21418D01*
Y21228D01*
X285595D01*
Y21037D01*
Y20846D01*
X285403D01*
Y20655D01*
Y20464D01*
X285213D01*
Y20273D01*
X285022D01*
Y20082D01*
Y19891D01*
Y19700D01*
X284831D01*
Y19509D01*
Y19318D01*
X284640D01*
Y19127D01*
Y18936D01*
X284449D01*
Y18745D01*
Y18554D01*
X284258D01*
Y18363D01*
Y18172D01*
X284067D01*
Y17981D01*
Y17790D01*
X283876D01*
Y17599D01*
Y17408D01*
X283685D01*
Y17217D01*
X283494D01*
Y17026D01*
Y16835D01*
Y16644D01*
X283303D01*
Y16453D01*
Y16262D01*
X283112D01*
Y16071D01*
Y15880D01*
X282921D01*
Y15689D01*
Y15498D01*
X282730D01*
Y15307D01*
Y15116D01*
X282539D01*
Y14925D01*
Y14734D01*
X282348D01*
Y14543D01*
Y14352D01*
X282157D01*
Y14162D01*
X281966D01*
Y13971D01*
X279865D01*
Y14162D01*
X280056D01*
Y14352D01*
X279674D01*
Y14543D01*
Y14734D01*
X279483D01*
Y14925D01*
Y15116D01*
Y15307D01*
X279292D01*
Y15498D01*
X279101D01*
Y15689D01*
Y15880D01*
X278910D01*
Y16071D01*
Y16262D01*
X278719D01*
Y16453D01*
Y16644D01*
X278528D01*
Y16835D01*
Y17026D01*
X278338D01*
Y17217D01*
X278528D01*
Y17408D01*
X278147D01*
Y17599D01*
Y17790D01*
X277956D01*
Y17981D01*
Y18172D01*
Y18363D01*
X277765D01*
Y18554D01*
X277573D01*
Y18745D01*
Y18936D01*
X277383D01*
Y19127D01*
Y19318D01*
X277192D01*
Y19509D01*
Y19700D01*
X277001D01*
Y19891D01*
Y20082D01*
X276810D01*
Y20273D01*
X277001D01*
Y20464D01*
X276619D01*
Y20655D01*
Y20846D01*
X276428D01*
Y21037D01*
Y21228D01*
Y21418D01*
X276237D01*
Y21610D01*
X276046D01*
Y21801D01*
Y21992D01*
X275855D01*
Y22183D01*
Y22373D01*
X275664D01*
Y22564D01*
Y22755D01*
X275473D01*
Y22946D01*
Y23137D01*
X275282D01*
Y23328D01*
X275473D01*
Y23519D01*
X275091D01*
Y23710D01*
X276619D01*
Y23519D01*
X276810D01*
Y23328D01*
Y23137D01*
X277001D01*
Y22946D01*
Y22755D01*
X277192D01*
Y22564D01*
Y22373D01*
X277383D01*
Y22183D01*
Y21992D01*
X277573D01*
Y21801D01*
Y21610D01*
X277765D01*
Y21418D01*
Y21228D01*
Y21037D01*
X277956D01*
Y20846D01*
X278147D01*
Y20655D01*
Y20464D01*
X278338D01*
Y20273D01*
Y20082D01*
X278528D01*
Y19891D01*
Y19700D01*
X278719D01*
Y19509D01*
X278528D01*
Y19318D01*
X278910D01*
Y19127D01*
Y18936D01*
X279101D01*
Y18745D01*
Y18554D01*
X279292D01*
Y18363D01*
Y18172D01*
Y17981D01*
X279483D01*
Y17790D01*
X279674D01*
Y17599D01*
Y17408D01*
X279865D01*
Y17217D01*
Y17026D01*
X280056D01*
Y16835D01*
Y16644D01*
X280247D01*
Y16453D01*
Y16262D01*
X280438D01*
Y16071D01*
Y15880D01*
X280629D01*
Y15689D01*
Y15498D01*
X280820D01*
Y15307D01*
Y15116D01*
Y14925D01*
X281202D01*
Y15116D01*
Y15307D01*
X281393D01*
Y15498D01*
X281584D01*
Y15689D01*
X281775D01*
Y15880D01*
X281584D01*
Y16071D01*
X281775D01*
Y16262D01*
Y16453D01*
X281966D01*
Y16644D01*
Y16835D01*
X282157D01*
Y17026D01*
Y17217D01*
X282348D01*
Y17408D01*
Y17599D01*
X282730D01*
Y17790D01*
X282539D01*
Y17981D01*
X282730D01*
Y18172D01*
Y18363D01*
X282921D01*
Y18554D01*
X283112D01*
Y18745D01*
X283303D01*
Y18936D01*
X283112D01*
Y19127D01*
X283303D01*
Y19318D01*
Y19509D01*
X283494D01*
Y19700D01*
Y19891D01*
X283685D01*
Y20082D01*
Y20273D01*
X283876D01*
Y20464D01*
Y20655D01*
X284258D01*
Y20846D01*
X284067D01*
Y21037D01*
X284258D01*
Y21228D01*
Y21418D01*
X284449D01*
Y21610D01*
X284640D01*
Y21801D01*
X284831D01*
Y21992D01*
X284640D01*
Y22183D01*
X284831D01*
Y22373D01*
Y22564D01*
X285022D01*
Y22755D01*
Y22946D01*
X285213D01*
Y23137D01*
Y23328D01*
X285403D01*
Y23519D01*
Y23710D01*
X286931D01*
Y23519D01*
D02*
G37*
G36*
X288268Y20464D02*
Y20273D01*
Y20082D01*
Y19891D01*
Y19700D01*
Y19509D01*
Y19318D01*
Y19127D01*
Y18936D01*
Y18745D01*
Y18554D01*
Y18363D01*
Y18172D01*
Y17981D01*
Y17790D01*
Y17599D01*
Y17408D01*
Y17217D01*
Y17026D01*
Y16835D01*
Y16644D01*
Y16453D01*
Y16262D01*
Y16071D01*
Y15880D01*
Y15689D01*
Y15498D01*
Y15307D01*
Y15116D01*
Y14925D01*
Y14734D01*
Y14543D01*
Y14352D01*
Y14162D01*
Y13971D01*
X287122D01*
Y14162D01*
Y14352D01*
Y14543D01*
Y14734D01*
Y14925D01*
Y15116D01*
Y15307D01*
Y15498D01*
Y15689D01*
Y15880D01*
Y16071D01*
Y16262D01*
Y16453D01*
Y16644D01*
Y16835D01*
Y17026D01*
Y17217D01*
Y17408D01*
Y17599D01*
Y17790D01*
Y17981D01*
Y18172D01*
Y18363D01*
Y18554D01*
Y18745D01*
Y18936D01*
Y19127D01*
Y19318D01*
Y19509D01*
Y19700D01*
Y19891D01*
Y20082D01*
Y20273D01*
Y20464D01*
Y20655D01*
X288268D01*
Y20464D01*
D02*
G37*
G36*
X340786Y20082D02*
Y19891D01*
Y19700D01*
Y19509D01*
Y19318D01*
Y19127D01*
Y18936D01*
Y18745D01*
Y18554D01*
Y18363D01*
Y18172D01*
Y17981D01*
Y17790D01*
Y17599D01*
Y17408D01*
Y17217D01*
Y17026D01*
Y16835D01*
Y16644D01*
Y16453D01*
Y16262D01*
Y16071D01*
Y15880D01*
Y15689D01*
Y15498D01*
Y15307D01*
Y15116D01*
Y14925D01*
Y14734D01*
Y14543D01*
Y14352D01*
Y14162D01*
Y13971D01*
Y13780D01*
Y13589D01*
X339450D01*
Y13780D01*
Y13971D01*
Y14162D01*
Y14352D01*
Y14543D01*
Y14734D01*
Y14925D01*
Y15116D01*
Y15307D01*
Y15498D01*
Y15689D01*
Y15880D01*
Y16071D01*
Y16262D01*
Y16453D01*
Y16644D01*
Y16835D01*
Y17026D01*
Y17217D01*
Y17408D01*
Y17599D01*
Y17790D01*
Y17981D01*
Y18172D01*
Y18363D01*
Y18554D01*
Y18745D01*
Y18936D01*
Y19127D01*
Y19318D01*
Y19509D01*
Y19700D01*
Y19891D01*
Y20082D01*
Y20273D01*
X340786D01*
Y20082D01*
D02*
G37*
G36*
X324935Y23137D02*
Y22946D01*
Y22755D01*
Y22564D01*
Y22373D01*
Y22183D01*
Y21992D01*
Y21801D01*
Y21610D01*
Y21418D01*
Y21228D01*
Y21037D01*
Y20846D01*
Y20655D01*
Y20464D01*
Y20273D01*
Y20082D01*
X325126D01*
Y20273D01*
X331429D01*
Y20082D01*
X331620D01*
Y19891D01*
X331811D01*
Y19700D01*
X332001D01*
Y19509D01*
Y19318D01*
X332192D01*
Y19509D01*
X332383D01*
Y19318D01*
Y19127D01*
X332575D01*
Y18936D01*
Y18745D01*
Y18554D01*
Y18363D01*
Y18172D01*
Y17981D01*
Y17790D01*
Y17599D01*
Y17408D01*
Y17217D01*
Y17026D01*
Y16835D01*
Y16644D01*
Y16453D01*
Y16262D01*
Y16071D01*
Y15880D01*
Y15689D01*
Y15498D01*
Y15307D01*
Y15116D01*
Y14925D01*
Y14734D01*
X332383D01*
Y14543D01*
X332192D01*
Y14352D01*
X332001D01*
Y14162D01*
X331811D01*
Y13971D01*
X331429D01*
Y13780D01*
Y13589D01*
X324935D01*
Y13780D01*
X324745D01*
Y13971D01*
X324553D01*
Y13780D01*
X324362D01*
Y13589D01*
X323790D01*
Y13780D01*
Y13971D01*
Y14162D01*
Y14352D01*
Y14543D01*
Y14734D01*
Y14925D01*
Y15116D01*
Y15307D01*
Y15498D01*
Y15689D01*
Y15880D01*
Y16071D01*
Y16262D01*
Y16453D01*
Y16644D01*
Y16835D01*
Y17026D01*
Y17217D01*
Y17408D01*
Y17599D01*
Y17790D01*
Y17981D01*
Y18172D01*
Y18363D01*
Y18554D01*
Y18745D01*
Y18936D01*
Y19127D01*
Y19318D01*
Y19509D01*
Y19700D01*
Y19891D01*
Y20082D01*
Y20273D01*
Y20464D01*
Y20655D01*
Y20846D01*
Y21037D01*
Y21228D01*
Y21418D01*
Y21610D01*
Y21801D01*
Y21992D01*
Y22183D01*
Y22373D01*
Y22564D01*
Y22755D01*
Y22946D01*
Y23137D01*
Y23328D01*
X324935D01*
Y23137D01*
D02*
G37*
G36*
X123980Y12262D02*
Y12150D01*
Y12038D01*
X123868D01*
Y12150D01*
Y12262D01*
Y12374D01*
X123980D01*
Y12262D01*
D02*
G37*
G36*
X130255Y18200D02*
Y18088D01*
Y17976D01*
X130367D01*
Y17864D01*
Y17752D01*
Y17640D01*
X130479D01*
Y17528D01*
Y17416D01*
Y17304D01*
X130591D01*
Y17192D01*
Y17080D01*
X130703D01*
Y16968D01*
Y16856D01*
Y16744D01*
X130815D01*
Y16632D01*
Y16520D01*
Y16408D01*
X130927D01*
Y16295D01*
Y16183D01*
Y16071D01*
X131039D01*
Y15959D01*
Y15847D01*
X131151D01*
Y15735D01*
Y15623D01*
Y15511D01*
X131263D01*
Y15399D01*
Y15287D01*
Y15175D01*
X131375D01*
Y15063D01*
Y14951D01*
Y14839D01*
X131487D01*
Y14727D01*
Y14615D01*
Y14503D01*
X131599D01*
Y14391D01*
Y14279D01*
Y14167D01*
X131711D01*
Y14055D01*
Y13943D01*
Y13831D01*
X131823D01*
Y13719D01*
Y13607D01*
Y13495D01*
Y13383D01*
X131935D01*
Y13270D01*
Y13158D01*
Y13046D01*
Y12934D01*
X132047D01*
Y12822D01*
Y12710D01*
Y12598D01*
Y12486D01*
Y12374D01*
X132159D01*
Y12262D01*
Y12150D01*
Y12038D01*
Y11926D01*
Y11814D01*
Y11702D01*
Y11590D01*
X132271D01*
Y11478D01*
Y11366D01*
Y11254D01*
Y11142D01*
Y11030D01*
Y10918D01*
Y10806D01*
Y10694D01*
Y10582D01*
Y10469D01*
Y10357D01*
Y10245D01*
Y10133D01*
Y10021D01*
Y9909D01*
Y9797D01*
Y9685D01*
Y9573D01*
Y9461D01*
Y9349D01*
Y9237D01*
Y9125D01*
Y9013D01*
Y8901D01*
X132159D01*
Y8789D01*
Y8677D01*
Y8565D01*
Y8453D01*
X132047D01*
Y8341D01*
Y8229D01*
X131599D01*
Y8341D01*
X131487D01*
Y8453D01*
X131375D01*
Y8565D01*
X131263D01*
Y8677D01*
Y8789D01*
X131151D01*
Y8901D01*
Y9013D01*
Y9125D01*
X131039D01*
Y9237D01*
Y9349D01*
Y9461D01*
X130927D01*
Y9573D01*
Y9685D01*
Y9797D01*
Y9909D01*
X130815D01*
Y10021D01*
Y10133D01*
Y10245D01*
Y10357D01*
Y10469D01*
X130703D01*
Y10582D01*
Y10694D01*
Y10806D01*
Y10918D01*
Y11030D01*
Y11142D01*
X130591D01*
Y11254D01*
Y11366D01*
Y11478D01*
Y11590D01*
Y11702D01*
X130479D01*
Y11814D01*
Y11926D01*
Y12038D01*
Y12150D01*
X130591D01*
Y12038D01*
Y11926D01*
Y11814D01*
X130703D01*
Y11702D01*
Y11590D01*
X130815D01*
Y11478D01*
Y11366D01*
X130927D01*
Y11254D01*
X131039D01*
Y11142D01*
X131487D01*
Y11254D01*
Y11366D01*
Y11478D01*
X131599D01*
Y11590D01*
Y11702D01*
Y11814D01*
Y11926D01*
Y12038D01*
Y12150D01*
Y12262D01*
X131487D01*
Y12374D01*
Y12486D01*
Y12598D01*
Y12710D01*
Y12822D01*
Y12934D01*
Y13046D01*
X131375D01*
Y13158D01*
Y13270D01*
Y13383D01*
Y13495D01*
Y13607D01*
Y13719D01*
X131263D01*
Y13831D01*
Y13943D01*
Y14055D01*
Y14167D01*
X131151D01*
Y14279D01*
Y14391D01*
Y14503D01*
Y14615D01*
Y14727D01*
X131039D01*
Y14839D01*
Y14951D01*
Y15063D01*
Y15175D01*
X130927D01*
Y15287D01*
Y15399D01*
Y15511D01*
Y15623D01*
X130815D01*
Y15735D01*
Y15847D01*
Y15959D01*
Y16071D01*
X130703D01*
Y16183D01*
Y16295D01*
Y16408D01*
X130591D01*
Y16520D01*
Y16632D01*
Y16744D01*
Y16856D01*
X130479D01*
Y16968D01*
Y17080D01*
Y17192D01*
X130367D01*
Y17304D01*
Y17416D01*
Y17528D01*
Y17640D01*
X130255D01*
Y17752D01*
Y17864D01*
Y17976D01*
X130142D01*
Y18088D01*
Y18200D01*
Y18312D01*
X130255D01*
Y18200D01*
D02*
G37*
G36*
X124092Y17752D02*
Y17640D01*
Y17528D01*
Y17416D01*
X123980D01*
Y17304D01*
Y17192D01*
Y17080D01*
X123868D01*
Y16968D01*
Y16856D01*
Y16744D01*
Y16632D01*
X123756D01*
Y16520D01*
Y16408D01*
Y16295D01*
X123644D01*
Y16183D01*
Y16071D01*
Y15959D01*
Y15847D01*
X123532D01*
Y15735D01*
Y15623D01*
Y15511D01*
Y15399D01*
X123420D01*
Y15287D01*
Y15175D01*
Y15063D01*
Y14951D01*
X123308D01*
Y14839D01*
Y14727D01*
Y14615D01*
Y14503D01*
X123196D01*
Y14391D01*
Y14279D01*
Y14167D01*
Y14055D01*
Y13943D01*
X123084D01*
Y13831D01*
Y13719D01*
Y13607D01*
Y13495D01*
Y13383D01*
X122972D01*
Y13270D01*
Y13158D01*
Y13046D01*
Y12934D01*
Y12822D01*
Y12710D01*
X122860D01*
Y12598D01*
Y12486D01*
Y12374D01*
Y12262D01*
Y12150D01*
Y12038D01*
Y11926D01*
Y11814D01*
Y11702D01*
Y11590D01*
Y11478D01*
Y11366D01*
X122972D01*
Y11254D01*
X123084D01*
Y11142D01*
X123196D01*
Y11254D01*
X123420D01*
Y11366D01*
X123532D01*
Y11478D01*
Y11590D01*
X123644D01*
Y11702D01*
Y11814D01*
X123756D01*
Y11926D01*
Y12038D01*
X123868D01*
Y11926D01*
Y11814D01*
Y11702D01*
Y11590D01*
Y11478D01*
X123756D01*
Y11366D01*
Y11254D01*
Y11142D01*
Y11030D01*
Y10918D01*
Y10806D01*
X123644D01*
Y10694D01*
Y10582D01*
Y10469D01*
Y10357D01*
Y10245D01*
X123532D01*
Y10133D01*
Y10021D01*
Y9909D01*
Y9797D01*
Y9685D01*
X123420D01*
Y9573D01*
Y9461D01*
Y9349D01*
X123308D01*
Y9237D01*
Y9125D01*
Y9013D01*
X123196D01*
Y8901D01*
Y8789D01*
X123084D01*
Y8677D01*
Y8565D01*
X122972D01*
Y8453D01*
X122860D01*
Y8341D01*
X122412D01*
Y8453D01*
X122300D01*
Y8565D01*
Y8677D01*
Y8789D01*
X122188D01*
Y8901D01*
Y9013D01*
Y9125D01*
Y9237D01*
Y9349D01*
Y9461D01*
X122076D01*
Y9573D01*
Y9685D01*
Y9797D01*
Y9909D01*
Y10021D01*
Y10133D01*
Y10245D01*
Y10357D01*
Y10469D01*
Y10582D01*
Y10694D01*
Y10806D01*
X122188D01*
Y10918D01*
Y11030D01*
Y11142D01*
Y11254D01*
Y11366D01*
Y11478D01*
Y11590D01*
Y11702D01*
Y11814D01*
Y11926D01*
Y12038D01*
X122300D01*
Y12150D01*
Y12262D01*
Y12374D01*
Y12486D01*
Y12598D01*
Y12710D01*
X122412D01*
Y12822D01*
Y12934D01*
Y13046D01*
Y13158D01*
X122524D01*
Y13270D01*
Y13383D01*
Y13495D01*
Y13607D01*
X122636D01*
Y13719D01*
Y13831D01*
Y13943D01*
Y14055D01*
X122748D01*
Y14167D01*
Y14279D01*
Y14391D01*
X122860D01*
Y14503D01*
Y14615D01*
Y14727D01*
X122972D01*
Y14839D01*
Y14951D01*
Y15063D01*
X123084D01*
Y15175D01*
Y15287D01*
Y15399D01*
X123196D01*
Y15511D01*
Y15623D01*
Y15735D01*
X123308D01*
Y15847D01*
Y15959D01*
X123420D01*
Y16071D01*
Y16183D01*
Y16295D01*
X123532D01*
Y16408D01*
Y16520D01*
Y16632D01*
X123644D01*
Y16744D01*
Y16856D01*
Y16968D01*
X123756D01*
Y17080D01*
Y17192D01*
X123868D01*
Y17304D01*
Y17416D01*
Y17528D01*
X123980D01*
Y17640D01*
Y17752D01*
Y17864D01*
X124092D01*
Y17752D01*
D02*
G37*
G36*
X308512Y27148D02*
Y26957D01*
Y26766D01*
Y26575D01*
Y26384D01*
Y26193D01*
Y26002D01*
Y25811D01*
Y25620D01*
Y25429D01*
Y25238D01*
Y25047D01*
Y24856D01*
Y24665D01*
Y24474D01*
Y24283D01*
Y24092D01*
Y23901D01*
Y23710D01*
Y23519D01*
Y23328D01*
Y23137D01*
Y22946D01*
Y22755D01*
Y22564D01*
Y22373D01*
Y22183D01*
Y21992D01*
Y21801D01*
Y21610D01*
Y21418D01*
Y21228D01*
Y21037D01*
Y20846D01*
Y20655D01*
Y20464D01*
Y20273D01*
Y20082D01*
Y19891D01*
Y19700D01*
Y19509D01*
Y19318D01*
Y19127D01*
Y18936D01*
Y18745D01*
Y18554D01*
Y18363D01*
Y18172D01*
Y17981D01*
Y17790D01*
Y17599D01*
Y17408D01*
Y17217D01*
Y17026D01*
Y16835D01*
X309848D01*
Y17026D01*
X310039D01*
Y17217D01*
Y17408D01*
Y17599D01*
Y17790D01*
Y17981D01*
Y18172D01*
Y18363D01*
Y18554D01*
Y18745D01*
Y18936D01*
Y19127D01*
Y19318D01*
Y19509D01*
Y19700D01*
Y19891D01*
Y20082D01*
Y20273D01*
X314623D01*
Y20082D01*
Y19891D01*
Y19700D01*
Y19509D01*
Y19318D01*
Y19127D01*
Y18936D01*
Y18745D01*
Y18554D01*
Y18363D01*
Y18172D01*
Y17981D01*
Y17790D01*
Y17599D01*
Y17408D01*
Y17217D01*
Y17026D01*
Y16835D01*
Y16644D01*
Y16453D01*
Y16262D01*
Y16071D01*
Y15880D01*
Y15689D01*
Y15498D01*
Y15307D01*
Y15116D01*
Y14925D01*
Y14734D01*
Y14543D01*
Y14352D01*
Y14162D01*
Y13971D01*
Y13780D01*
Y13589D01*
Y13398D01*
Y13207D01*
Y13016D01*
Y12825D01*
X314432D01*
Y12634D01*
X314050D01*
Y12443D01*
Y12252D01*
X313859D01*
Y12061D01*
Y11870D01*
X313668D01*
Y11679D01*
X313477D01*
Y11488D01*
Y11297D01*
X313286D01*
Y11106D01*
Y10915D01*
X313095D01*
Y10724D01*
X312904D01*
Y10533D01*
X312713D01*
Y10342D01*
Y10151D01*
Y9960D01*
X312331D01*
Y9769D01*
X312140D01*
Y9578D01*
Y9387D01*
X311949D01*
Y9196D01*
X311758D01*
Y9005D01*
Y8814D01*
X311567D01*
Y8623D01*
X311376D01*
Y8432D01*
Y8241D01*
Y8050D01*
X310994D01*
Y7859D01*
Y7668D01*
Y7477D01*
X310612D01*
Y7286D01*
Y7095D01*
X310421D01*
Y6904D01*
X310230D01*
Y6713D01*
Y6522D01*
Y6331D01*
X310039D01*
Y6522D01*
Y6713D01*
Y6904D01*
Y7095D01*
Y7286D01*
Y7477D01*
Y7668D01*
Y7859D01*
Y8050D01*
Y8241D01*
Y8432D01*
Y8623D01*
Y8814D01*
Y9005D01*
Y9196D01*
Y9387D01*
Y9578D01*
Y9769D01*
Y9960D01*
Y10151D01*
Y10342D01*
Y10533D01*
Y10724D01*
Y10915D01*
Y11106D01*
Y11297D01*
Y11488D01*
Y11679D01*
Y11870D01*
Y12061D01*
Y12252D01*
Y12443D01*
Y12634D01*
Y12825D01*
Y13016D01*
Y13207D01*
Y13398D01*
Y13589D01*
Y13780D01*
X303928D01*
Y13971D01*
Y14162D01*
Y14352D01*
Y14543D01*
Y14734D01*
Y14925D01*
Y15116D01*
Y15307D01*
Y15498D01*
Y15689D01*
Y15880D01*
Y16071D01*
Y16262D01*
Y16453D01*
Y16644D01*
Y16835D01*
Y17026D01*
Y17217D01*
Y17408D01*
Y17599D01*
Y17790D01*
Y17981D01*
Y18172D01*
Y18363D01*
Y18554D01*
Y18745D01*
Y18936D01*
Y19127D01*
Y19318D01*
Y19509D01*
Y19700D01*
Y19891D01*
Y20082D01*
Y20273D01*
Y20464D01*
Y20655D01*
Y20846D01*
X304119D01*
Y21037D01*
Y21228D01*
X304310D01*
Y21418D01*
X304501D01*
Y21610D01*
Y21801D01*
X304883D01*
Y21992D01*
X305074D01*
Y22183D01*
Y22373D01*
X305265D01*
Y22564D01*
Y22755D01*
X305456D01*
Y22946D01*
Y23137D01*
X305647D01*
Y23328D01*
X305838D01*
Y23519D01*
Y23710D01*
X306220D01*
Y23901D01*
Y24092D01*
Y24283D01*
X306411D01*
Y24474D01*
X306602D01*
Y24665D01*
X306793D01*
Y24856D01*
Y25047D01*
X306984D01*
Y25238D01*
Y25429D01*
X307175D01*
Y25620D01*
X307366D01*
Y25811D01*
X307557D01*
Y26002D01*
Y26193D01*
X307748D01*
Y26384D01*
Y26575D01*
X307939D01*
Y26766D01*
X308130D01*
Y26957D01*
Y27148D01*
X308321D01*
Y27339D01*
X308512D01*
Y27148D01*
D02*
G37*
G36*
X360075Y5186D02*
Y4995D01*
Y4804D01*
X254084D01*
Y4995D01*
Y5186D01*
Y5377D01*
X360075D01*
Y5186D01*
D02*
G37*
G36*
X169190Y18026D02*
X169255D01*
X169333Y18017D01*
X169423Y18008D01*
X169526Y17995D01*
X169634Y17978D01*
X169746Y17957D01*
X169867Y17927D01*
X169983Y17896D01*
X170100Y17853D01*
X170216Y17806D01*
X170328Y17750D01*
X170431Y17685D01*
X170526Y17612D01*
X170531Y17607D01*
X170548Y17595D01*
X170569Y17569D01*
X170600Y17539D01*
X170638Y17495D01*
X170677Y17444D01*
X170725Y17388D01*
X170768Y17319D01*
X170815Y17241D01*
X170858Y17159D01*
X170901Y17069D01*
X170940Y16970D01*
X170975Y16866D01*
X171000Y16750D01*
X171022Y16629D01*
X171031Y16504D01*
X170013Y16461D01*
Y16465D01*
X170009Y16478D01*
X170005Y16500D01*
X170001Y16526D01*
X169992Y16556D01*
X169979Y16595D01*
X169953Y16677D01*
X169914Y16767D01*
X169863Y16858D01*
X169802Y16944D01*
X169768Y16983D01*
X169729Y17017D01*
X169725D01*
X169720Y17026D01*
X169707Y17034D01*
X169690Y17043D01*
X169669Y17056D01*
X169639Y17073D01*
X169608Y17086D01*
X169570Y17103D01*
X169526Y17120D01*
X169479Y17133D01*
X169427Y17151D01*
X169371Y17164D01*
X169307Y17172D01*
X169242Y17181D01*
X169169Y17189D01*
X169048D01*
X169018Y17185D01*
X168979D01*
X168936Y17181D01*
X168888Y17172D01*
X168837Y17168D01*
X168725Y17146D01*
X168613Y17112D01*
X168501Y17064D01*
X168445Y17039D01*
X168397Y17004D01*
X168389Y17000D01*
X168371Y16983D01*
X168345Y16957D01*
X168320Y16922D01*
X168289Y16879D01*
X168264Y16823D01*
X168246Y16763D01*
X168238Y16694D01*
Y16685D01*
X168242Y16664D01*
X168246Y16629D01*
X168255Y16586D01*
X168277Y16539D01*
X168302Y16487D01*
X168337Y16435D01*
X168389Y16388D01*
X168393D01*
X168397Y16379D01*
X168410Y16371D01*
X168432Y16358D01*
X168453Y16345D01*
X168488Y16328D01*
X168526Y16306D01*
X168578Y16284D01*
X168634Y16259D01*
X168699Y16233D01*
X168777Y16207D01*
X168863Y16177D01*
X168957Y16146D01*
X169065Y16112D01*
X169186Y16082D01*
X169319Y16047D01*
X169328D01*
X169354Y16039D01*
X169388Y16030D01*
X169440Y16017D01*
X169501Y16000D01*
X169574Y15983D01*
X169651Y15961D01*
X169733Y15935D01*
X169914Y15879D01*
X170095Y15819D01*
X170182Y15784D01*
X170268Y15750D01*
X170345Y15715D01*
X170414Y15681D01*
X170419D01*
X170431Y15672D01*
X170449Y15664D01*
X170475Y15646D01*
X170505Y15629D01*
X170539Y15603D01*
X170617Y15547D01*
X170707Y15474D01*
X170802Y15388D01*
X170893Y15284D01*
X170975Y15168D01*
X170979Y15164D01*
X170983Y15155D01*
X170992Y15134D01*
X171005Y15112D01*
X171022Y15078D01*
X171039Y15039D01*
X171056Y14996D01*
X171078Y14948D01*
X171095Y14892D01*
X171113Y14832D01*
X171130Y14763D01*
X171147Y14694D01*
X171160Y14616D01*
X171168Y14539D01*
X171177Y14453D01*
Y14366D01*
Y14362D01*
Y14349D01*
Y14323D01*
X171173Y14293D01*
X171168Y14254D01*
X171164Y14211D01*
X171156Y14160D01*
X171147Y14104D01*
X171134Y14043D01*
X171117Y13979D01*
X171074Y13845D01*
X171048Y13772D01*
X171018Y13698D01*
X170979Y13629D01*
X170936Y13556D01*
X170931Y13552D01*
X170923Y13539D01*
X170910Y13522D01*
X170893Y13496D01*
X170867Y13461D01*
X170837Y13427D01*
X170802Y13388D01*
X170759Y13345D01*
X170716Y13297D01*
X170664Y13250D01*
X170608Y13203D01*
X170548Y13160D01*
X170479Y13112D01*
X170410Y13069D01*
X170337Y13030D01*
X170255Y12991D01*
X170250D01*
X170233Y12983D01*
X170212Y12974D01*
X170177Y12961D01*
X170134Y12948D01*
X170082Y12935D01*
X170022Y12918D01*
X169953Y12901D01*
X169876Y12884D01*
X169794Y12867D01*
X169703Y12854D01*
X169608Y12841D01*
X169505Y12828D01*
X169397Y12819D01*
X169281Y12815D01*
X169160Y12810D01*
X169095D01*
X169070Y12815D01*
X169001Y12819D01*
X168923Y12823D01*
X168833Y12832D01*
X168729Y12849D01*
X168617Y12867D01*
X168501Y12888D01*
X168380Y12918D01*
X168259Y12953D01*
X168139Y12996D01*
X168018Y13048D01*
X167902Y13104D01*
X167789Y13172D01*
X167690Y13250D01*
X167686Y13254D01*
X167669Y13272D01*
X167643Y13297D01*
X167608Y13332D01*
X167570Y13379D01*
X167522Y13435D01*
X167475Y13500D01*
X167423Y13578D01*
X167371Y13664D01*
X167320Y13759D01*
X167268Y13862D01*
X167221Y13979D01*
X167177Y14104D01*
X167139Y14241D01*
X167104Y14384D01*
X167083Y14539D01*
X168074Y14634D01*
Y14629D01*
X168078Y14612D01*
X168083Y14586D01*
X168091Y14552D01*
X168104Y14509D01*
X168117Y14461D01*
X168130Y14410D01*
X168151Y14354D01*
X168199Y14237D01*
X168259Y14112D01*
X168337Y14000D01*
X168384Y13948D01*
X168432Y13901D01*
X168436Y13897D01*
X168445Y13892D01*
X168462Y13879D01*
X168483Y13867D01*
X168509Y13849D01*
X168544Y13828D01*
X168582Y13806D01*
X168626Y13785D01*
X168677Y13763D01*
X168733Y13742D01*
X168794Y13724D01*
X168858Y13703D01*
X168932Y13690D01*
X169005Y13677D01*
X169082Y13672D01*
X169169Y13668D01*
X169216D01*
X169251Y13672D01*
X169289D01*
X169337Y13681D01*
X169388Y13685D01*
X169445Y13694D01*
X169565Y13720D01*
X169690Y13754D01*
X169807Y13806D01*
X169863Y13841D01*
X169910Y13875D01*
X169914Y13879D01*
X169923Y13884D01*
X169931Y13897D01*
X169949Y13914D01*
X169988Y13957D01*
X170035Y14013D01*
X170082Y14086D01*
X170121Y14168D01*
X170138Y14211D01*
X170151Y14263D01*
X170156Y14310D01*
X170160Y14362D01*
Y14371D01*
Y14392D01*
X170156Y14427D01*
X170147Y14466D01*
X170134Y14513D01*
X170113Y14565D01*
X170087Y14616D01*
X170052Y14664D01*
X170048Y14668D01*
X170031Y14685D01*
X170005Y14707D01*
X169966Y14737D01*
X169919Y14772D01*
X169854Y14810D01*
X169776Y14849D01*
X169686Y14884D01*
X169677Y14888D01*
X169664Y14892D01*
X169647Y14897D01*
X169625Y14901D01*
X169595Y14909D01*
X169561Y14922D01*
X169518Y14935D01*
X169466Y14948D01*
X169410Y14965D01*
X169341Y14983D01*
X169268Y15000D01*
X169182Y15026D01*
X169091Y15047D01*
X168988Y15073D01*
X168871Y15103D01*
X168867D01*
X168863Y15108D01*
X168837Y15112D01*
X168794Y15125D01*
X168738Y15142D01*
X168673Y15159D01*
X168596Y15185D01*
X168514Y15211D01*
X168423Y15246D01*
X168233Y15315D01*
X168044Y15401D01*
X167953Y15448D01*
X167871Y15500D01*
X167794Y15552D01*
X167725Y15603D01*
X167720Y15608D01*
X167703Y15621D01*
X167682Y15646D01*
X167652Y15677D01*
X167617Y15720D01*
X167578Y15767D01*
X167540Y15823D01*
X167496Y15888D01*
X167453Y15957D01*
X167410Y16034D01*
X167371Y16121D01*
X167337Y16211D01*
X167307Y16306D01*
X167285Y16405D01*
X167268Y16509D01*
X167264Y16621D01*
Y16625D01*
Y16638D01*
Y16659D01*
X167268Y16685D01*
X167272Y16720D01*
X167277Y16759D01*
X167281Y16806D01*
X167289Y16853D01*
X167315Y16965D01*
X167354Y17086D01*
X167380Y17151D01*
X167410Y17211D01*
X167440Y17276D01*
X167479Y17340D01*
X167483Y17345D01*
X167488Y17353D01*
X167501Y17370D01*
X167518Y17396D01*
X167544Y17422D01*
X167570Y17457D01*
X167604Y17491D01*
X167639Y17530D01*
X167682Y17573D01*
X167729Y17612D01*
X167781Y17655D01*
X167837Y17698D01*
X167897Y17741D01*
X167962Y17780D01*
X168035Y17819D01*
X168108Y17853D01*
X168113D01*
X168126Y17862D01*
X168151Y17870D01*
X168182Y17879D01*
X168220Y17896D01*
X168268Y17909D01*
X168324Y17927D01*
X168384Y17944D01*
X168453Y17957D01*
X168531Y17974D01*
X168613Y17991D01*
X168699Y18004D01*
X168794Y18013D01*
X168888Y18021D01*
X168992Y18030D01*
X169164D01*
X169190Y18026D01*
D02*
G37*
G36*
X198839Y12905D02*
X197942D01*
Y13440D01*
X197938Y13435D01*
X197934Y13427D01*
X197921Y13410D01*
X197903Y13388D01*
X197882Y13362D01*
X197856Y13332D01*
X197791Y13263D01*
X197714Y13190D01*
X197623Y13112D01*
X197524Y13039D01*
X197412Y12974D01*
X197408D01*
X197399Y12970D01*
X197382Y12961D01*
X197360Y12953D01*
X197330Y12940D01*
X197300Y12927D01*
X197261Y12914D01*
X197222Y12901D01*
X197128Y12871D01*
X197024Y12849D01*
X196916Y12832D01*
X196800Y12823D01*
X196774D01*
X196740Y12828D01*
X196697Y12832D01*
X196641Y12841D01*
X196576Y12849D01*
X196507Y12867D01*
X196429Y12888D01*
X196347Y12914D01*
X196261Y12948D01*
X196171Y12987D01*
X196080Y13035D01*
X195990Y13095D01*
X195899Y13160D01*
X195809Y13237D01*
X195723Y13328D01*
X195718Y13332D01*
X195705Y13354D01*
X195679Y13379D01*
X195654Y13422D01*
X195619Y13474D01*
X195580Y13535D01*
X195542Y13612D01*
X195499Y13694D01*
X195455Y13789D01*
X195417Y13897D01*
X195378Y14013D01*
X195343Y14138D01*
X195317Y14276D01*
X195296Y14422D01*
X195279Y14578D01*
X195274Y14741D01*
Y14746D01*
Y14750D01*
Y14763D01*
Y14780D01*
Y14806D01*
X195279Y14832D01*
X195283Y14892D01*
X195287Y14970D01*
X195296Y15060D01*
X195309Y15159D01*
X195330Y15267D01*
X195352Y15379D01*
X195382Y15491D01*
X195417Y15612D01*
X195460Y15728D01*
X195507Y15840D01*
X195567Y15953D01*
X195632Y16056D01*
X195710Y16151D01*
X195714Y16155D01*
X195731Y16172D01*
X195753Y16194D01*
X195787Y16228D01*
X195830Y16263D01*
X195882Y16306D01*
X195942Y16349D01*
X196011Y16396D01*
X196089Y16440D01*
X196171Y16483D01*
X196261Y16526D01*
X196361Y16560D01*
X196464Y16595D01*
X196576Y16616D01*
X196692Y16634D01*
X196813Y16638D01*
X196839D01*
X196873Y16634D01*
X196916Y16629D01*
X196968Y16621D01*
X197029Y16612D01*
X197098Y16595D01*
X197175Y16573D01*
X197257Y16547D01*
X197339Y16513D01*
X197429Y16470D01*
X197520Y16422D01*
X197610Y16362D01*
X197701Y16293D01*
X197787Y16215D01*
X197873Y16125D01*
Y17944D01*
X198839D01*
Y12905D01*
D02*
G37*
G36*
X194499Y16634D02*
X194529D01*
X194563Y16629D01*
X194602Y16621D01*
X194645Y16616D01*
X194744Y16595D01*
X194852Y16560D01*
X194964Y16513D01*
X195024Y16487D01*
X195080Y16452D01*
X194779Y15612D01*
X194774D01*
X194766Y15621D01*
X194753Y15625D01*
X194736Y15638D01*
X194688Y15664D01*
X194632Y15694D01*
X194559Y15720D01*
X194486Y15746D01*
X194404Y15763D01*
X194326Y15771D01*
X194292D01*
X194253Y15767D01*
X194205Y15758D01*
X194154Y15746D01*
X194093Y15724D01*
X194037Y15698D01*
X193981Y15659D01*
X193977Y15655D01*
X193960Y15638D01*
X193934Y15608D01*
X193900Y15569D01*
X193865Y15513D01*
X193826Y15440D01*
X193792Y15358D01*
X193757Y15254D01*
Y15250D01*
X193753Y15241D01*
X193749Y15220D01*
X193744Y15194D01*
X193740Y15159D01*
X193731Y15112D01*
X193727Y15056D01*
X193718Y14991D01*
X193710Y14914D01*
X193705Y14828D01*
X193697Y14728D01*
X193693Y14616D01*
X193688Y14487D01*
X193684Y14349D01*
X193680Y14198D01*
Y14030D01*
Y12905D01*
X192714D01*
Y16556D01*
X193611D01*
Y16034D01*
X193615Y16039D01*
X193619Y16052D01*
X193632Y16069D01*
X193649Y16095D01*
X193671Y16125D01*
X193693Y16155D01*
X193749Y16233D01*
X193813Y16315D01*
X193878Y16392D01*
X193951Y16461D01*
X193986Y16491D01*
X194020Y16517D01*
X194025D01*
X194029Y16521D01*
X194055Y16534D01*
X194093Y16556D01*
X194141Y16577D01*
X194205Y16599D01*
X194279Y16621D01*
X194356Y16634D01*
X194442Y16638D01*
X194477D01*
X194499Y16634D01*
D02*
G37*
G36*
X204136Y12905D02*
X203041D01*
X201244Y17944D01*
X202343D01*
X203619Y14216D01*
X204851Y17944D01*
X205933D01*
X204136Y12905D01*
D02*
G37*
G36*
X207972Y17961D02*
X208023D01*
X208084Y17952D01*
X208157Y17944D01*
X208239Y17931D01*
X208325Y17913D01*
X208416Y17892D01*
X208510Y17866D01*
X208610Y17832D01*
X208709Y17793D01*
X208803Y17750D01*
X208898Y17694D01*
X208989Y17633D01*
X209071Y17560D01*
X209075Y17556D01*
X209088Y17543D01*
X209109Y17521D01*
X209140Y17487D01*
X209170Y17448D01*
X209204Y17401D01*
X209243Y17349D01*
X209286Y17284D01*
X209325Y17215D01*
X209364Y17142D01*
X209398Y17056D01*
X209433Y16970D01*
X209459Y16875D01*
X209480Y16776D01*
X209493Y16672D01*
X209497Y16560D01*
Y16556D01*
Y16543D01*
Y16526D01*
Y16504D01*
X209493Y16474D01*
Y16435D01*
X209489Y16396D01*
X209480Y16353D01*
X209467Y16250D01*
X209446Y16142D01*
X209416Y16026D01*
X209372Y15909D01*
Y15905D01*
X209368Y15897D01*
X209359Y15879D01*
X209351Y15858D01*
X209338Y15827D01*
X209321Y15793D01*
X209303Y15758D01*
X209278Y15715D01*
X209226Y15616D01*
X209161Y15509D01*
X209079Y15392D01*
X208989Y15267D01*
Y15263D01*
X208980Y15259D01*
X208972Y15246D01*
X208954Y15224D01*
X208933Y15202D01*
X208907Y15172D01*
X208877Y15142D01*
X208842Y15103D01*
X208803Y15060D01*
X208756Y15013D01*
X208704Y14961D01*
X208648Y14901D01*
X208584Y14841D01*
X208515Y14772D01*
X208437Y14703D01*
X208355Y14625D01*
X208351Y14621D01*
X208334Y14608D01*
X208312Y14586D01*
X208282Y14556D01*
X208247Y14526D01*
X208204Y14487D01*
X208109Y14401D01*
X208010Y14306D01*
X207916Y14216D01*
X207873Y14173D01*
X207834Y14134D01*
X207799Y14099D01*
X207773Y14069D01*
X207769Y14065D01*
X207752Y14048D01*
X207730Y14017D01*
X207704Y13983D01*
X207670Y13944D01*
X207640Y13897D01*
X207575Y13802D01*
X209497D01*
Y12905D01*
X206114D01*
Y12910D01*
X206118Y12927D01*
X206123Y12957D01*
X206127Y12991D01*
X206136Y13039D01*
X206144Y13091D01*
X206157Y13151D01*
X206174Y13216D01*
X206196Y13289D01*
X206217Y13362D01*
X206274Y13526D01*
X206308Y13608D01*
X206347Y13694D01*
X206394Y13780D01*
X206442Y13867D01*
X206446Y13871D01*
X206454Y13888D01*
X206472Y13914D01*
X206498Y13948D01*
X206532Y13996D01*
X206571Y14052D01*
X206623Y14116D01*
X206683Y14190D01*
X206748Y14272D01*
X206830Y14362D01*
X206916Y14461D01*
X207015Y14569D01*
X207127Y14685D01*
X207247Y14806D01*
X207381Y14935D01*
X207528Y15073D01*
X207536Y15082D01*
X207558Y15099D01*
X207588Y15129D01*
X207631Y15172D01*
X207683Y15220D01*
X207743Y15280D01*
X207804Y15340D01*
X207873Y15405D01*
X208010Y15543D01*
X208075Y15612D01*
X208140Y15681D01*
X208196Y15746D01*
X208247Y15802D01*
X208291Y15858D01*
X208325Y15901D01*
X208329Y15905D01*
X208334Y15914D01*
X208342Y15931D01*
X208355Y15953D01*
X208372Y15978D01*
X208390Y16008D01*
X208407Y16047D01*
X208429Y16086D01*
X208463Y16177D01*
X208497Y16276D01*
X208519Y16384D01*
X208528Y16435D01*
Y16491D01*
Y16496D01*
Y16504D01*
Y16521D01*
X208523Y16543D01*
Y16573D01*
X208519Y16603D01*
X208506Y16677D01*
X208485Y16754D01*
X208454Y16836D01*
X208411Y16918D01*
X208351Y16987D01*
X208342Y16996D01*
X208321Y17013D01*
X208282Y17043D01*
X208226Y17077D01*
X208157Y17108D01*
X208075Y17138D01*
X207980Y17155D01*
X207873Y17164D01*
X207842D01*
X207821Y17159D01*
X207799D01*
X207769Y17155D01*
X207700Y17142D01*
X207623Y17120D01*
X207541Y17086D01*
X207463Y17039D01*
X207424Y17013D01*
X207390Y16978D01*
X207381Y16970D01*
X207372Y16961D01*
X207364Y16944D01*
X207347Y16922D01*
X207334Y16901D01*
X207316Y16871D01*
X207299Y16836D01*
X207282Y16797D01*
X207265Y16750D01*
X207247Y16702D01*
X207230Y16646D01*
X207217Y16586D01*
X207204Y16521D01*
X207196Y16452D01*
X207187Y16375D01*
X206226Y16470D01*
Y16474D01*
Y16478D01*
X206230Y16504D01*
X206235Y16547D01*
X206248Y16599D01*
X206260Y16664D01*
X206278Y16741D01*
X206299Y16823D01*
X206325Y16914D01*
X206355Y17004D01*
X206394Y17099D01*
X206437Y17194D01*
X206485Y17289D01*
X206545Y17379D01*
X206610Y17465D01*
X206679Y17547D01*
X206761Y17616D01*
X206765Y17620D01*
X206782Y17633D01*
X206808Y17651D01*
X206842Y17672D01*
X206886Y17698D01*
X206942Y17728D01*
X207002Y17758D01*
X207075Y17793D01*
X207153Y17823D01*
X207239Y17853D01*
X207334Y17883D01*
X207433Y17909D01*
X207541Y17935D01*
X207653Y17952D01*
X207773Y17961D01*
X207898Y17965D01*
X207933D01*
X207972Y17961D01*
D02*
G37*
G36*
X190374Y16634D02*
X190426D01*
X190486Y16629D01*
X190555Y16625D01*
X190628Y16621D01*
X190783Y16599D01*
X190943Y16573D01*
X191020Y16556D01*
X191094Y16534D01*
X191163Y16509D01*
X191227Y16483D01*
X191232D01*
X191240Y16474D01*
X191257Y16465D01*
X191279Y16457D01*
X191305Y16440D01*
X191335Y16422D01*
X191404Y16379D01*
X191477Y16323D01*
X191551Y16254D01*
X191620Y16181D01*
X191650Y16138D01*
X191675Y16095D01*
Y16090D01*
X191680Y16082D01*
X191688Y16069D01*
X191697Y16047D01*
X191706Y16021D01*
X191719Y15987D01*
X191727Y15944D01*
X191740Y15897D01*
X191753Y15840D01*
X191766Y15780D01*
X191775Y15707D01*
X191783Y15629D01*
X191792Y15543D01*
X191800Y15448D01*
X191805Y15340D01*
Y15228D01*
X191792Y14104D01*
Y14099D01*
Y14082D01*
Y14056D01*
Y14026D01*
Y13983D01*
X191796Y13940D01*
Y13888D01*
Y13832D01*
X191800Y13720D01*
X191809Y13599D01*
X191822Y13487D01*
X191826Y13440D01*
X191835Y13392D01*
Y13388D01*
X191839Y13384D01*
Y13371D01*
X191844Y13354D01*
X191857Y13306D01*
X191874Y13246D01*
X191900Y13172D01*
X191930Y13091D01*
X191969Y13000D01*
X192012Y12905D01*
X191055D01*
Y12910D01*
X191046Y12923D01*
X191038Y12944D01*
X191029Y12979D01*
X191016Y13017D01*
X190999Y13065D01*
X190982Y13125D01*
X190960Y13190D01*
Y13194D01*
X190956Y13203D01*
X190951Y13220D01*
X190947Y13237D01*
X190934Y13272D01*
X190930Y13289D01*
X190926Y13302D01*
X190921Y13297D01*
X190913Y13293D01*
X190900Y13280D01*
X190883Y13263D01*
X190861Y13241D01*
X190835Y13220D01*
X190766Y13168D01*
X190689Y13108D01*
X190598Y13048D01*
X190499Y12991D01*
X190395Y12940D01*
X190391D01*
X190383Y12935D01*
X190370Y12931D01*
X190348Y12923D01*
X190322Y12914D01*
X190292Y12901D01*
X190253Y12892D01*
X190214Y12884D01*
X190128Y12862D01*
X190025Y12841D01*
X189913Y12828D01*
X189796Y12823D01*
X189740D01*
X189701Y12828D01*
X189654Y12832D01*
X189602Y12841D01*
X189538Y12849D01*
X189473Y12862D01*
X189404Y12879D01*
X189331Y12897D01*
X189258Y12923D01*
X189184Y12953D01*
X189111Y12987D01*
X189038Y13030D01*
X188973Y13078D01*
X188909Y13129D01*
X188904Y13134D01*
X188896Y13142D01*
X188878Y13160D01*
X188857Y13185D01*
X188835Y13216D01*
X188805Y13250D01*
X188779Y13293D01*
X188749Y13341D01*
X188719Y13392D01*
X188689Y13453D01*
X188658Y13517D01*
X188637Y13586D01*
X188615Y13655D01*
X188598Y13733D01*
X188590Y13815D01*
X188585Y13901D01*
Y13905D01*
Y13914D01*
Y13931D01*
X188590Y13953D01*
Y13979D01*
X188594Y14013D01*
X188602Y14086D01*
X188620Y14173D01*
X188646Y14263D01*
X188684Y14358D01*
X188732Y14453D01*
Y14457D01*
X188740Y14461D01*
X188749Y14474D01*
X188758Y14491D01*
X188792Y14535D01*
X188839Y14591D01*
X188896Y14651D01*
X188969Y14711D01*
X189051Y14772D01*
X189146Y14823D01*
X189150D01*
X189158Y14828D01*
X189176Y14836D01*
X189197Y14845D01*
X189223Y14858D01*
X189258Y14871D01*
X189296Y14884D01*
X189344Y14901D01*
X189391Y14918D01*
X189452Y14935D01*
X189512Y14953D01*
X189581Y14974D01*
X189658Y14991D01*
X189736Y15009D01*
X189822Y15030D01*
X189913Y15047D01*
X189921D01*
X189943Y15052D01*
X189977Y15060D01*
X190025Y15069D01*
X190076Y15082D01*
X190141Y15095D01*
X190210Y15108D01*
X190283Y15125D01*
X190438Y15164D01*
X190594Y15202D01*
X190667Y15224D01*
X190736Y15246D01*
X190801Y15267D01*
X190852Y15289D01*
Y15384D01*
Y15388D01*
Y15396D01*
Y15409D01*
Y15427D01*
X190844Y15478D01*
X190835Y15539D01*
X190818Y15603D01*
X190796Y15668D01*
X190762Y15728D01*
X190714Y15780D01*
X190706Y15784D01*
X190689Y15797D01*
X190650Y15819D01*
X190628Y15827D01*
X190598Y15840D01*
X190563Y15853D01*
X190525Y15862D01*
X190486Y15875D01*
X190434Y15883D01*
X190383Y15888D01*
X190326Y15897D01*
X190262Y15901D01*
X190150D01*
X190102Y15897D01*
X190046Y15888D01*
X189982Y15875D01*
X189913Y15858D01*
X189848Y15832D01*
X189788Y15797D01*
X189783Y15793D01*
X189766Y15776D01*
X189740Y15750D01*
X189706Y15715D01*
X189671Y15664D01*
X189633Y15603D01*
X189594Y15530D01*
X189559Y15444D01*
X188684Y15603D01*
Y15608D01*
X188693Y15625D01*
X188702Y15655D01*
X188715Y15690D01*
X188727Y15733D01*
X188749Y15784D01*
X188775Y15840D01*
X188801Y15897D01*
X188835Y15961D01*
X188874Y16026D01*
X188913Y16090D01*
X188960Y16155D01*
X189008Y16215D01*
X189064Y16276D01*
X189124Y16332D01*
X189189Y16384D01*
X189193Y16388D01*
X189206Y16396D01*
X189227Y16405D01*
X189258Y16422D01*
X189296Y16444D01*
X189339Y16465D01*
X189395Y16487D01*
X189460Y16513D01*
X189529Y16534D01*
X189611Y16556D01*
X189697Y16577D01*
X189796Y16599D01*
X189900Y16616D01*
X190016Y16625D01*
X190137Y16634D01*
X190266Y16638D01*
X190326D01*
X190374Y16634D01*
D02*
G37*
G36*
X181685Y17939D02*
X181814D01*
X181961Y17931D01*
X182107Y17922D01*
X182181Y17918D01*
X182249Y17909D01*
X182314Y17901D01*
X182370Y17892D01*
X182375D01*
X182383Y17888D01*
X182400D01*
X182422Y17883D01*
X182443Y17875D01*
X182474Y17866D01*
X182547Y17845D01*
X182629Y17819D01*
X182715Y17780D01*
X182806Y17737D01*
X182896Y17681D01*
X182900D01*
X182905Y17672D01*
X182918Y17664D01*
X182935Y17651D01*
X182978Y17616D01*
X183034Y17569D01*
X183094Y17513D01*
X183159Y17439D01*
X183224Y17358D01*
X183284Y17263D01*
Y17258D01*
X183293Y17250D01*
X183297Y17237D01*
X183310Y17215D01*
X183318Y17194D01*
X183331Y17164D01*
X183349Y17129D01*
X183361Y17090D01*
X183392Y17004D01*
X183413Y16905D01*
X183431Y16793D01*
X183439Y16672D01*
Y16668D01*
Y16655D01*
Y16638D01*
X183435Y16612D01*
Y16582D01*
X183431Y16543D01*
X183422Y16504D01*
X183413Y16457D01*
X183392Y16358D01*
X183357Y16250D01*
X183310Y16134D01*
X183280Y16078D01*
X183245Y16021D01*
Y16017D01*
X183237Y16008D01*
X183224Y15996D01*
X183211Y15974D01*
X183193Y15948D01*
X183168Y15922D01*
X183112Y15858D01*
X183038Y15784D01*
X182948Y15711D01*
X182849Y15642D01*
X182732Y15577D01*
X182737D01*
X182754Y15573D01*
X182775Y15565D01*
X182806Y15552D01*
X182844Y15539D01*
X182892Y15517D01*
X182939Y15496D01*
X182991Y15470D01*
X183103Y15409D01*
X183224Y15327D01*
X183336Y15233D01*
X183387Y15181D01*
X183435Y15121D01*
X183439Y15116D01*
X183448Y15108D01*
X183456Y15086D01*
X183474Y15065D01*
X183491Y15034D01*
X183512Y14996D01*
X183538Y14953D01*
X183560Y14905D01*
X183581Y14853D01*
X183607Y14793D01*
X183629Y14733D01*
X183646Y14664D01*
X183663Y14595D01*
X183676Y14522D01*
X183680Y14444D01*
X183685Y14362D01*
Y14358D01*
Y14345D01*
Y14328D01*
X183680Y14306D01*
Y14272D01*
X183676Y14237D01*
X183672Y14198D01*
X183663Y14151D01*
X183646Y14048D01*
X183616Y13935D01*
X183577Y13819D01*
X183521Y13694D01*
Y13690D01*
X183512Y13681D01*
X183504Y13664D01*
X183491Y13642D01*
X183474Y13612D01*
X183456Y13582D01*
X183409Y13509D01*
X183344Y13427D01*
X183271Y13341D01*
X183185Y13254D01*
X183086Y13177D01*
X183081D01*
X183073Y13168D01*
X183060Y13160D01*
X183038Y13147D01*
X183008Y13129D01*
X182978Y13112D01*
X182939Y13095D01*
X182896Y13073D01*
X182849Y13052D01*
X182797Y13035D01*
X182741Y13013D01*
X182680Y12991D01*
X182551Y12961D01*
X182405Y12935D01*
X182392D01*
X182375Y12931D01*
X182314D01*
X182271Y12927D01*
X182219D01*
X182155Y12923D01*
X182081Y12918D01*
X181995D01*
X181896Y12914D01*
X181780D01*
X181655Y12910D01*
X181512D01*
X181353Y12905D01*
X179470D01*
Y17944D01*
X181625D01*
X181685Y17939D01*
D02*
G37*
G36*
X166372Y12905D02*
X165354D01*
Y17944D01*
X166372D01*
Y12905D01*
D02*
G37*
G36*
X186275Y16634D02*
X186331Y16629D01*
X186404Y16621D01*
X186486Y16608D01*
X186577Y16595D01*
X186676Y16569D01*
X186779Y16543D01*
X186891Y16509D01*
X187004Y16461D01*
X187120Y16409D01*
X187232Y16349D01*
X187344Y16276D01*
X187452Y16194D01*
X187555Y16099D01*
X187559Y16095D01*
X187577Y16073D01*
X187602Y16043D01*
X187637Y16004D01*
X187680Y15948D01*
X187723Y15883D01*
X187771Y15810D01*
X187822Y15728D01*
X187870Y15633D01*
X187917Y15530D01*
X187965Y15418D01*
X188003Y15297D01*
X188038Y15168D01*
X188064Y15030D01*
X188081Y14888D01*
X188085Y14737D01*
Y14733D01*
Y14728D01*
Y14716D01*
Y14703D01*
X188081Y14655D01*
X188077Y14599D01*
X188068Y14530D01*
X188055Y14448D01*
X188042Y14354D01*
X188016Y14254D01*
X187990Y14151D01*
X187956Y14039D01*
X187909Y13927D01*
X187857Y13810D01*
X187796Y13694D01*
X187723Y13582D01*
X187641Y13470D01*
X187547Y13366D01*
X187542Y13362D01*
X187521Y13345D01*
X187490Y13315D01*
X187452Y13280D01*
X187400Y13241D01*
X187335Y13194D01*
X187262Y13147D01*
X187180Y13095D01*
X187085Y13043D01*
X186982Y12996D01*
X186874Y12948D01*
X186753Y12910D01*
X186628Y12875D01*
X186491Y12845D01*
X186353Y12828D01*
X186202Y12823D01*
X186154D01*
X186116Y12828D01*
X186073Y12832D01*
X186016Y12836D01*
X185960Y12841D01*
X185891Y12854D01*
X185822Y12862D01*
X185745Y12879D01*
X185585Y12918D01*
X185499Y12944D01*
X185413Y12974D01*
X185327Y13009D01*
X185241Y13048D01*
X185236Y13052D01*
X185219Y13060D01*
X185198Y13073D01*
X185167Y13091D01*
X185129Y13112D01*
X185085Y13142D01*
X185038Y13177D01*
X184986Y13216D01*
X184930Y13259D01*
X184874Y13310D01*
X184818Y13366D01*
X184758Y13422D01*
X184702Y13487D01*
X184650Y13556D01*
X184599Y13634D01*
X184551Y13711D01*
X184547Y13716D01*
X184543Y13733D01*
X184529Y13754D01*
X184512Y13789D01*
X184495Y13832D01*
X184478Y13884D01*
X184456Y13944D01*
X184435Y14009D01*
X184409Y14086D01*
X184387Y14164D01*
X184370Y14254D01*
X184353Y14349D01*
X184336Y14448D01*
X184323Y14552D01*
X184318Y14664D01*
X184314Y14780D01*
Y14785D01*
Y14802D01*
Y14828D01*
X184318Y14862D01*
X184323Y14905D01*
X184327Y14957D01*
X184336Y15013D01*
X184344Y15078D01*
X184357Y15146D01*
X184370Y15220D01*
X184413Y15375D01*
X184443Y15457D01*
X184474Y15543D01*
X184508Y15625D01*
X184551Y15711D01*
X184555Y15715D01*
X184564Y15733D01*
X184577Y15754D01*
X184594Y15784D01*
X184620Y15823D01*
X184650Y15866D01*
X184685Y15914D01*
X184723Y15965D01*
X184771Y16021D01*
X184818Y16078D01*
X184874Y16134D01*
X184935Y16190D01*
X184999Y16246D01*
X185068Y16297D01*
X185146Y16349D01*
X185223Y16396D01*
X185228Y16401D01*
X185245Y16405D01*
X185266Y16418D01*
X185301Y16435D01*
X185340Y16452D01*
X185391Y16474D01*
X185443Y16496D01*
X185508Y16517D01*
X185577Y16539D01*
X185650Y16560D01*
X185732Y16582D01*
X185818Y16599D01*
X185999Y16629D01*
X186094Y16634D01*
X186193Y16638D01*
X186232D01*
X186275Y16634D01*
D02*
G37*
G36*
X174341Y18026D02*
X174371D01*
X174405Y18021D01*
X174448D01*
X174543Y18008D01*
X174651Y17995D01*
X174772Y17974D01*
X174901Y17944D01*
X175043Y17905D01*
X175185Y17862D01*
X175336Y17806D01*
X175483Y17737D01*
X175629Y17659D01*
X175776Y17564D01*
X175914Y17457D01*
X176043Y17336D01*
X176052Y17327D01*
X176073Y17306D01*
X176103Y17263D01*
X176147Y17211D01*
X176198Y17138D01*
X176254Y17052D01*
X176315Y16952D01*
X176379Y16836D01*
X176444Y16707D01*
X176504Y16565D01*
X176560Y16405D01*
X176612Y16233D01*
X176655Y16047D01*
X176685Y15849D01*
X176707Y15638D01*
X176716Y15414D01*
Y15409D01*
Y15401D01*
Y15384D01*
Y15362D01*
X176711Y15332D01*
Y15297D01*
X176707Y15259D01*
Y15211D01*
X176703Y15164D01*
X176694Y15112D01*
X176681Y14991D01*
X176660Y14862D01*
X176634Y14720D01*
X176599Y14569D01*
X176552Y14414D01*
X176500Y14254D01*
X176435Y14095D01*
X176358Y13935D01*
X176272Y13785D01*
X176168Y13638D01*
X176052Y13504D01*
X176043Y13496D01*
X176022Y13474D01*
X175983Y13440D01*
X175931Y13397D01*
X175862Y13345D01*
X175785Y13289D01*
X175690Y13224D01*
X175582Y13164D01*
X175461Y13099D01*
X175328Y13035D01*
X175181Y12979D01*
X175022Y12927D01*
X174854Y12884D01*
X174673Y12849D01*
X174479Y12828D01*
X174276Y12819D01*
X174229D01*
X174198Y12823D01*
X174168D01*
X174129Y12828D01*
X174091Y12832D01*
X173996Y12841D01*
X173884Y12854D01*
X173763Y12875D01*
X173629Y12905D01*
X173492Y12940D01*
X173345Y12987D01*
X173198Y13043D01*
X173048Y13108D01*
X172901Y13185D01*
X172755Y13280D01*
X172617Y13384D01*
X172487Y13504D01*
X172479Y13513D01*
X172457Y13535D01*
X172427Y13578D01*
X172384Y13629D01*
X172336Y13698D01*
X172281Y13785D01*
X172220Y13884D01*
X172160Y13996D01*
X172095Y14125D01*
X172035Y14267D01*
X171983Y14422D01*
X171931Y14591D01*
X171888Y14772D01*
X171858Y14965D01*
X171837Y15172D01*
X171828Y15392D01*
Y15396D01*
Y15401D01*
Y15427D01*
Y15465D01*
X171832Y15521D01*
X171837Y15586D01*
X171841Y15664D01*
X171845Y15750D01*
X171858Y15840D01*
X171867Y15940D01*
X171884Y16043D01*
X171923Y16263D01*
X171949Y16371D01*
X171983Y16478D01*
X172018Y16586D01*
X172056Y16685D01*
Y16690D01*
X172065Y16702D01*
X172074Y16724D01*
X172087Y16750D01*
X172104Y16784D01*
X172125Y16823D01*
X172151Y16866D01*
X172181Y16914D01*
X172246Y17021D01*
X172328Y17138D01*
X172423Y17258D01*
X172526Y17375D01*
X172530Y17379D01*
X172539Y17388D01*
X172556Y17405D01*
X172578Y17426D01*
X172608Y17452D01*
X172638Y17478D01*
X172677Y17513D01*
X172720Y17547D01*
X172815Y17620D01*
X172927Y17694D01*
X173048Y17767D01*
X173177Y17827D01*
X173181Y17832D01*
X173198Y17836D01*
X173224Y17845D01*
X173259Y17857D01*
X173306Y17875D01*
X173358Y17892D01*
X173418Y17909D01*
X173487Y17931D01*
X173565Y17948D01*
X173647Y17965D01*
X173737Y17982D01*
X173832Y18000D01*
X173935Y18013D01*
X174039Y18021D01*
X174151Y18030D01*
X174311D01*
X174341Y18026D01*
D02*
G37*
G36*
X192288Y6764D02*
X191391D01*
Y7299D01*
X191387Y7295D01*
X191382Y7286D01*
X191369Y7269D01*
X191352Y7247D01*
X191331Y7221D01*
X191305Y7191D01*
X191240Y7122D01*
X191163Y7049D01*
X191072Y6971D01*
X190973Y6898D01*
X190861Y6833D01*
X190857D01*
X190848Y6829D01*
X190831Y6820D01*
X190809Y6812D01*
X190779Y6799D01*
X190749Y6786D01*
X190710Y6773D01*
X190671Y6760D01*
X190576Y6730D01*
X190473Y6708D01*
X190365Y6691D01*
X190249Y6683D01*
X190223D01*
X190189Y6687D01*
X190146Y6691D01*
X190089Y6700D01*
X190025Y6708D01*
X189956Y6726D01*
X189878Y6747D01*
X189796Y6773D01*
X189710Y6808D01*
X189620Y6846D01*
X189529Y6894D01*
X189439Y6954D01*
X189348Y7019D01*
X189258Y7096D01*
X189171Y7187D01*
X189167Y7191D01*
X189154Y7213D01*
X189128Y7238D01*
X189102Y7282D01*
X189068Y7333D01*
X189029Y7394D01*
X188990Y7471D01*
X188947Y7553D01*
X188904Y7648D01*
X188865Y7756D01*
X188827Y7872D01*
X188792Y7997D01*
X188766Y8135D01*
X188745Y8282D01*
X188727Y8437D01*
X188723Y8601D01*
Y8605D01*
Y8609D01*
Y8622D01*
Y8639D01*
Y8665D01*
X188727Y8691D01*
X188732Y8751D01*
X188736Y8829D01*
X188745Y8919D01*
X188758Y9019D01*
X188779Y9126D01*
X188801Y9238D01*
X188831Y9350D01*
X188865Y9471D01*
X188909Y9588D01*
X188956Y9700D01*
X189016Y9812D01*
X189081Y9915D01*
X189158Y10010D01*
X189163Y10014D01*
X189180Y10031D01*
X189202Y10053D01*
X189236Y10087D01*
X189279Y10122D01*
X189331Y10165D01*
X189391Y10208D01*
X189460Y10255D01*
X189538Y10299D01*
X189620Y10342D01*
X189710Y10385D01*
X189809Y10419D01*
X189913Y10454D01*
X190025Y10475D01*
X190141Y10493D01*
X190262Y10497D01*
X190288D01*
X190322Y10493D01*
X190365Y10488D01*
X190417Y10480D01*
X190477Y10471D01*
X190546Y10454D01*
X190624Y10432D01*
X190706Y10406D01*
X190788Y10372D01*
X190878Y10329D01*
X190969Y10281D01*
X191059Y10221D01*
X191150Y10152D01*
X191236Y10074D01*
X191322Y9984D01*
Y11803D01*
X192288D01*
Y6764D01*
D02*
G37*
G36*
X203140Y10493D02*
X203187Y10488D01*
X203243Y10480D01*
X203304Y10471D01*
X203377Y10454D01*
X203455Y10436D01*
X203537Y10406D01*
X203623Y10376D01*
X203713Y10333D01*
X203804Y10286D01*
X203899Y10230D01*
X203989Y10161D01*
X204075Y10083D01*
X204162Y9997D01*
X204166Y9993D01*
X204179Y9975D01*
X204205Y9945D01*
X204230Y9906D01*
X204265Y9855D01*
X204304Y9790D01*
X204343Y9721D01*
X204386Y9635D01*
X204425Y9544D01*
X204463Y9437D01*
X204502Y9325D01*
X204537Y9200D01*
X204567Y9066D01*
X204588Y8924D01*
X204601Y8773D01*
X204606Y8609D01*
Y8605D01*
Y8601D01*
Y8588D01*
Y8570D01*
Y8549D01*
X204601Y8523D01*
X204597Y8458D01*
X204593Y8381D01*
X204584Y8294D01*
X204567Y8195D01*
X204550Y8088D01*
X204528Y7976D01*
X204498Y7859D01*
X204459Y7743D01*
X204416Y7622D01*
X204364Y7506D01*
X204304Y7394D01*
X204235Y7286D01*
X204157Y7187D01*
X204153Y7182D01*
X204136Y7165D01*
X204110Y7139D01*
X204075Y7109D01*
X204032Y7070D01*
X203980Y7027D01*
X203920Y6980D01*
X203856Y6937D01*
X203778Y6889D01*
X203696Y6842D01*
X203606Y6799D01*
X203511Y6760D01*
X203407Y6730D01*
X203300Y6704D01*
X203187Y6687D01*
X203071Y6683D01*
X203019D01*
X202994Y6687D01*
X202963D01*
X202890Y6696D01*
X202804Y6713D01*
X202713Y6730D01*
X202619Y6760D01*
X202524Y6799D01*
X202519D01*
X202511Y6803D01*
X202498Y6812D01*
X202481Y6820D01*
X202459Y6838D01*
X202433Y6851D01*
X202369Y6898D01*
X202291Y6954D01*
X202201Y7023D01*
X202106Y7109D01*
X202007Y7213D01*
Y5377D01*
X201041D01*
Y10415D01*
X201942D01*
Y9881D01*
X201951Y9889D01*
X201959Y9902D01*
X201972Y9924D01*
X202011Y9971D01*
X202067Y10036D01*
X202132Y10109D01*
X202213Y10182D01*
X202308Y10255D01*
X202412Y10324D01*
X202416D01*
X202425Y10333D01*
X202442Y10342D01*
X202463Y10350D01*
X202494Y10363D01*
X202528Y10380D01*
X202567Y10393D01*
X202610Y10411D01*
X202709Y10441D01*
X202821Y10471D01*
X202946Y10488D01*
X203080Y10497D01*
X203110D01*
X203140Y10493D01*
D02*
G37*
G36*
X182176D02*
X182237Y10488D01*
X182310Y10484D01*
X182387Y10475D01*
X182474Y10467D01*
X182650Y10436D01*
X182745Y10419D01*
X182836Y10393D01*
X182926Y10363D01*
X183012Y10333D01*
X183090Y10294D01*
X183163Y10251D01*
X183168Y10247D01*
X183180Y10238D01*
X183198Y10225D01*
X183224Y10204D01*
X183254Y10178D01*
X183288Y10148D01*
X183323Y10113D01*
X183366Y10070D01*
X183405Y10023D01*
X183448Y9967D01*
X183491Y9911D01*
X183530Y9846D01*
X183568Y9773D01*
X183607Y9700D01*
X183637Y9618D01*
X183668Y9531D01*
X182758Y9363D01*
Y9368D01*
X182754Y9372D01*
X182745Y9398D01*
X182732Y9437D01*
X182706Y9484D01*
X182676Y9536D01*
X182637Y9588D01*
X182590Y9639D01*
X182534Y9687D01*
X182525Y9691D01*
X182504Y9704D01*
X182465Y9725D01*
X182413Y9747D01*
X182349Y9764D01*
X182267Y9786D01*
X182176Y9799D01*
X182069Y9803D01*
X182008D01*
X181974Y9799D01*
X181939D01*
X181857Y9790D01*
X181767Y9777D01*
X181676Y9756D01*
X181590Y9730D01*
X181556Y9713D01*
X181521Y9695D01*
X181517Y9691D01*
X181504Y9682D01*
X181487Y9665D01*
X181469Y9644D01*
X181448Y9613D01*
X181431Y9579D01*
X181418Y9540D01*
X181413Y9497D01*
Y9493D01*
Y9480D01*
X181418Y9463D01*
X181426Y9437D01*
X181435Y9411D01*
X181452Y9381D01*
X181478Y9350D01*
X181508Y9325D01*
X181517Y9320D01*
X181526Y9316D01*
X181543Y9307D01*
X181560Y9294D01*
X181590Y9286D01*
X181625Y9268D01*
X181668Y9251D01*
X181724Y9234D01*
X181784Y9212D01*
X181857Y9191D01*
X181944Y9165D01*
X182038Y9139D01*
X182150Y9113D01*
X182271Y9083D01*
X182409Y9049D01*
X182418D01*
X182443Y9040D01*
X182482Y9031D01*
X182534Y9019D01*
X182599Y9001D01*
X182668Y8980D01*
X182749Y8958D01*
X182831Y8932D01*
X183012Y8868D01*
X183189Y8794D01*
X183275Y8756D01*
X183353Y8713D01*
X183426Y8670D01*
X183486Y8622D01*
X183491Y8618D01*
X183499Y8609D01*
X183517Y8596D01*
X183534Y8575D01*
X183555Y8549D01*
X183581Y8514D01*
X183612Y8480D01*
X183642Y8437D01*
X183668Y8385D01*
X183698Y8333D01*
X183724Y8273D01*
X183745Y8208D01*
X183762Y8139D01*
X183780Y8066D01*
X183788Y7988D01*
X183792Y7902D01*
Y7898D01*
Y7881D01*
X183788Y7855D01*
Y7820D01*
X183780Y7777D01*
X183771Y7726D01*
X183758Y7670D01*
X183741Y7609D01*
X183719Y7540D01*
X183689Y7471D01*
X183655Y7402D01*
X183616Y7329D01*
X183564Y7256D01*
X183508Y7182D01*
X183443Y7109D01*
X183370Y7040D01*
X183366Y7036D01*
X183349Y7023D01*
X183327Y7006D01*
X183293Y6984D01*
X183249Y6958D01*
X183193Y6928D01*
X183133Y6894D01*
X183060Y6864D01*
X182974Y6829D01*
X182883Y6795D01*
X182780Y6764D01*
X182672Y6739D01*
X182551Y6717D01*
X182418Y6700D01*
X182280Y6687D01*
X182129Y6683D01*
X182056D01*
X182004Y6687D01*
X181944Y6691D01*
X181870Y6700D01*
X181788Y6708D01*
X181702Y6721D01*
X181607Y6734D01*
X181512Y6756D01*
X181413Y6782D01*
X181314Y6812D01*
X181219Y6846D01*
X181125Y6885D01*
X181034Y6933D01*
X180948Y6984D01*
X180944Y6989D01*
X180931Y6997D01*
X180909Y7014D01*
X180879Y7040D01*
X180844Y7070D01*
X180806Y7109D01*
X180763Y7152D01*
X180715Y7200D01*
X180668Y7256D01*
X180620Y7316D01*
X180573Y7385D01*
X180530Y7458D01*
X180487Y7536D01*
X180448Y7622D01*
X180413Y7713D01*
X180383Y7807D01*
X181353Y7954D01*
Y7950D01*
X181357Y7941D01*
X181362Y7928D01*
X181366Y7907D01*
X181383Y7855D01*
X181405Y7795D01*
X181439Y7726D01*
X181482Y7652D01*
X181534Y7583D01*
X181599Y7523D01*
X181603D01*
X181607Y7519D01*
X181620Y7510D01*
X181633Y7501D01*
X181676Y7480D01*
X181737Y7454D01*
X181810Y7424D01*
X181900Y7402D01*
X182008Y7385D01*
X182129Y7381D01*
X182163D01*
X182189Y7385D01*
X182224D01*
X182258Y7389D01*
X182340Y7398D01*
X182431Y7415D01*
X182525Y7437D01*
X182616Y7471D01*
X182655Y7493D01*
X182694Y7514D01*
X182698Y7519D01*
X182715Y7532D01*
X182737Y7553D01*
X182758Y7583D01*
X182784Y7622D01*
X182801Y7665D01*
X182818Y7717D01*
X182823Y7773D01*
Y7777D01*
Y7790D01*
X182818Y7812D01*
X182814Y7838D01*
X182806Y7868D01*
X182793Y7898D01*
X182775Y7928D01*
X182754Y7954D01*
X182749Y7958D01*
X182737Y7967D01*
X182719Y7980D01*
X182685Y7997D01*
X182642Y8014D01*
X182586Y8036D01*
X182517Y8062D01*
X182431Y8083D01*
X182426D01*
X182418Y8088D01*
X182400Y8092D01*
X182379Y8096D01*
X182353Y8100D01*
X182323Y8109D01*
X182284Y8118D01*
X182245Y8126D01*
X182150Y8148D01*
X182043Y8178D01*
X181931Y8208D01*
X181806Y8239D01*
X181556Y8312D01*
X181431Y8350D01*
X181314Y8389D01*
X181202Y8432D01*
X181103Y8471D01*
X181017Y8514D01*
X180978Y8531D01*
X180948Y8553D01*
X180944Y8557D01*
X180931Y8566D01*
X180909Y8583D01*
X180879Y8609D01*
X180849Y8639D01*
X180810Y8674D01*
X180771Y8717D01*
X180732Y8769D01*
X180694Y8825D01*
X180655Y8885D01*
X180616Y8954D01*
X180586Y9027D01*
X180556Y9105D01*
X180534Y9191D01*
X180521Y9281D01*
X180517Y9376D01*
Y9381D01*
Y9398D01*
X180521Y9424D01*
Y9454D01*
X180530Y9497D01*
X180538Y9544D01*
X180547Y9596D01*
X180564Y9652D01*
X180582Y9717D01*
X180607Y9781D01*
X180638Y9846D01*
X180672Y9911D01*
X180715Y9980D01*
X180767Y10049D01*
X180823Y10113D01*
X180888Y10174D01*
X180892Y10178D01*
X180905Y10187D01*
X180926Y10204D01*
X180956Y10225D01*
X181000Y10247D01*
X181047Y10277D01*
X181107Y10307D01*
X181172Y10337D01*
X181250Y10368D01*
X181336Y10393D01*
X181431Y10424D01*
X181538Y10445D01*
X181650Y10467D01*
X181775Y10484D01*
X181909Y10493D01*
X182051Y10497D01*
X182124D01*
X182176Y10493D01*
D02*
G37*
G36*
X185598Y9950D02*
X185603Y9954D01*
X185620Y9971D01*
X185646Y10001D01*
X185680Y10036D01*
X185728Y10074D01*
X185779Y10122D01*
X185844Y10174D01*
X185913Y10225D01*
X185991Y10273D01*
X186077Y10324D01*
X186167Y10372D01*
X186267Y10411D01*
X186370Y10445D01*
X186482Y10475D01*
X186594Y10493D01*
X186715Y10497D01*
X186771D01*
X186801Y10493D01*
X186835D01*
X186874Y10488D01*
X186917Y10480D01*
X187008Y10467D01*
X187111Y10445D01*
X187215Y10415D01*
X187318Y10372D01*
X187322D01*
X187331Y10368D01*
X187344Y10359D01*
X187361Y10350D01*
X187409Y10320D01*
X187469Y10286D01*
X187534Y10238D01*
X187598Y10187D01*
X187663Y10122D01*
X187719Y10053D01*
X187723Y10044D01*
X187741Y10018D01*
X187766Y9980D01*
X187796Y9928D01*
X187827Y9868D01*
X187857Y9794D01*
X187887Y9713D01*
X187909Y9626D01*
Y9622D01*
X187913Y9613D01*
Y9600D01*
X187917Y9583D01*
X187922Y9557D01*
X187926Y9527D01*
X187930Y9493D01*
X187934Y9450D01*
X187939Y9402D01*
X187943Y9346D01*
X187947Y9290D01*
X187952Y9221D01*
X187956Y9152D01*
X187960Y9075D01*
Y8993D01*
Y8902D01*
Y6764D01*
X186995D01*
Y8691D01*
Y8700D01*
Y8717D01*
Y8747D01*
Y8782D01*
Y8829D01*
X186990Y8881D01*
Y8937D01*
X186986Y8997D01*
X186982Y9122D01*
X186973Y9238D01*
X186965Y9294D01*
X186956Y9342D01*
X186947Y9385D01*
X186939Y9419D01*
X186934Y9428D01*
X186926Y9445D01*
X186913Y9475D01*
X186891Y9510D01*
X186865Y9549D01*
X186831Y9588D01*
X186788Y9631D01*
X186741Y9665D01*
X186736Y9669D01*
X186715Y9678D01*
X186685Y9695D01*
X186646Y9713D01*
X186594Y9730D01*
X186534Y9747D01*
X186469Y9756D01*
X186391Y9760D01*
X186353D01*
X186305Y9756D01*
X186249Y9747D01*
X186180Y9730D01*
X186107Y9708D01*
X186034Y9678D01*
X185960Y9639D01*
X185952Y9635D01*
X185930Y9618D01*
X185896Y9592D01*
X185857Y9553D01*
X185810Y9501D01*
X185762Y9441D01*
X185723Y9368D01*
X185685Y9286D01*
Y9281D01*
X185680Y9277D01*
X185676Y9260D01*
X185672Y9243D01*
X185663Y9217D01*
X185659Y9187D01*
X185650Y9152D01*
X185642Y9113D01*
X185633Y9066D01*
X185624Y9014D01*
X185620Y8958D01*
X185611Y8894D01*
X185607Y8829D01*
X185603Y8756D01*
X185598Y8674D01*
Y8592D01*
Y6764D01*
X184633D01*
Y11803D01*
X185598D01*
Y9950D01*
D02*
G37*
G36*
X177741Y9126D02*
X178870Y10415D01*
X180060D01*
X178814Y9079D01*
X180151Y6764D01*
X179107D01*
X178190Y8406D01*
X177741Y7932D01*
Y6764D01*
X176776D01*
Y11803D01*
X177741D01*
Y9126D01*
D02*
G37*
G36*
X176276Y6764D02*
X175168D01*
X174729Y7911D01*
X172720D01*
X172302Y6764D01*
X171224D01*
X173181Y11803D01*
X174263D01*
X176276Y6764D01*
D02*
G37*
G36*
X198623Y10493D02*
X198679Y10488D01*
X198748Y10480D01*
X198830Y10467D01*
X198916Y10454D01*
X199011Y10428D01*
X199115Y10402D01*
X199218Y10368D01*
X199326Y10320D01*
X199429Y10268D01*
X199537Y10208D01*
X199640Y10135D01*
X199740Y10053D01*
X199830Y9958D01*
X199834Y9954D01*
X199852Y9932D01*
X199873Y9902D01*
X199903Y9855D01*
X199938Y9799D01*
X199977Y9730D01*
X200020Y9648D01*
X200063Y9549D01*
X200106Y9441D01*
X200149Y9320D01*
X200183Y9187D01*
X200218Y9036D01*
X200248Y8876D01*
X200270Y8700D01*
X200283Y8514D01*
Y8312D01*
X197865D01*
Y8307D01*
Y8294D01*
X197869Y8269D01*
Y8243D01*
X197873Y8204D01*
X197878Y8161D01*
X197886Y8118D01*
X197899Y8066D01*
X197925Y7958D01*
X197968Y7846D01*
X197994Y7790D01*
X198024Y7739D01*
X198059Y7687D01*
X198097Y7639D01*
X198102Y7635D01*
X198106Y7631D01*
X198119Y7618D01*
X198136Y7601D01*
X198158Y7583D01*
X198188Y7566D01*
X198253Y7523D01*
X198330Y7476D01*
X198425Y7441D01*
X198533Y7411D01*
X198593Y7407D01*
X198653Y7402D01*
X198692D01*
X198731Y7411D01*
X198787Y7419D01*
X198843Y7433D01*
X198908Y7454D01*
X198972Y7484D01*
X199033Y7523D01*
X199041Y7527D01*
X199058Y7549D01*
X199084Y7579D01*
X199119Y7622D01*
X199158Y7674D01*
X199197Y7747D01*
X199235Y7829D01*
X199270Y7924D01*
X200231Y7764D01*
Y7760D01*
X200222Y7743D01*
X200209Y7713D01*
X200196Y7678D01*
X200175Y7635D01*
X200149Y7583D01*
X200119Y7527D01*
X200084Y7467D01*
X200045Y7402D01*
X200002Y7333D01*
X199955Y7269D01*
X199903Y7200D01*
X199843Y7135D01*
X199783Y7070D01*
X199714Y7014D01*
X199640Y6958D01*
X199636Y6954D01*
X199623Y6945D01*
X199602Y6933D01*
X199567Y6915D01*
X199528Y6894D01*
X199485Y6872D01*
X199429Y6846D01*
X199369Y6820D01*
X199300Y6795D01*
X199222Y6769D01*
X199140Y6747D01*
X199050Y6726D01*
X198955Y6708D01*
X198856Y6696D01*
X198752Y6687D01*
X198641Y6683D01*
X198597D01*
X198576Y6687D01*
X198550D01*
X198485Y6691D01*
X198408Y6700D01*
X198317Y6717D01*
X198214Y6734D01*
X198106Y6760D01*
X197994Y6795D01*
X197878Y6833D01*
X197761Y6885D01*
X197645Y6945D01*
X197533Y7014D01*
X197425Y7101D01*
X197322Y7195D01*
X197231Y7303D01*
X197227Y7307D01*
X197214Y7325D01*
X197197Y7355D01*
X197175Y7394D01*
X197149Y7441D01*
X197119Y7501D01*
X197084Y7570D01*
X197054Y7648D01*
X197020Y7734D01*
X196985Y7829D01*
X196955Y7932D01*
X196929Y8044D01*
X196908Y8161D01*
X196891Y8290D01*
X196878Y8424D01*
X196873Y8562D01*
Y8566D01*
Y8570D01*
Y8583D01*
Y8601D01*
Y8622D01*
X196878Y8648D01*
X196882Y8713D01*
X196886Y8786D01*
X196899Y8876D01*
X196912Y8971D01*
X196934Y9079D01*
X196960Y9191D01*
X196990Y9307D01*
X197029Y9424D01*
X197072Y9540D01*
X197128Y9656D01*
X197192Y9773D01*
X197266Y9881D01*
X197347Y9980D01*
X197352Y9984D01*
X197369Y10001D01*
X197395Y10027D01*
X197434Y10062D01*
X197481Y10100D01*
X197537Y10143D01*
X197602Y10191D01*
X197675Y10238D01*
X197757Y10286D01*
X197847Y10333D01*
X197947Y10376D01*
X198054Y10415D01*
X198166Y10449D01*
X198287Y10475D01*
X198412Y10493D01*
X198546Y10497D01*
X198580D01*
X198623Y10493D01*
D02*
G37*
G36*
X194710D02*
X194766Y10488D01*
X194835Y10480D01*
X194917Y10467D01*
X195003Y10454D01*
X195098Y10428D01*
X195201Y10402D01*
X195305Y10368D01*
X195412Y10320D01*
X195516Y10268D01*
X195624Y10208D01*
X195727Y10135D01*
X195826Y10053D01*
X195916Y9958D01*
X195921Y9954D01*
X195938Y9932D01*
X195960Y9902D01*
X195990Y9855D01*
X196024Y9799D01*
X196063Y9730D01*
X196106Y9648D01*
X196149Y9549D01*
X196192Y9441D01*
X196236Y9320D01*
X196270Y9187D01*
X196304Y9036D01*
X196335Y8876D01*
X196356Y8700D01*
X196369Y8514D01*
Y8312D01*
X193951D01*
Y8307D01*
Y8294D01*
X193956Y8269D01*
Y8243D01*
X193960Y8204D01*
X193964Y8161D01*
X193973Y8118D01*
X193986Y8066D01*
X194011Y7958D01*
X194055Y7846D01*
X194080Y7790D01*
X194111Y7739D01*
X194145Y7687D01*
X194184Y7639D01*
X194188Y7635D01*
X194193Y7631D01*
X194205Y7618D01*
X194223Y7601D01*
X194244Y7583D01*
X194274Y7566D01*
X194339Y7523D01*
X194417Y7476D01*
X194511Y7441D01*
X194619Y7411D01*
X194680Y7407D01*
X194740Y7402D01*
X194779D01*
X194817Y7411D01*
X194873Y7419D01*
X194930Y7433D01*
X194994Y7454D01*
X195059Y7484D01*
X195119Y7523D01*
X195128Y7527D01*
X195145Y7549D01*
X195171Y7579D01*
X195205Y7622D01*
X195244Y7674D01*
X195283Y7747D01*
X195322Y7829D01*
X195356Y7924D01*
X196317Y7764D01*
Y7760D01*
X196309Y7743D01*
X196296Y7713D01*
X196283Y7678D01*
X196261Y7635D01*
X196236Y7583D01*
X196205Y7527D01*
X196171Y7467D01*
X196132Y7402D01*
X196089Y7333D01*
X196042Y7269D01*
X195990Y7200D01*
X195930Y7135D01*
X195869Y7070D01*
X195800Y7014D01*
X195727Y6958D01*
X195723Y6954D01*
X195710Y6945D01*
X195688Y6933D01*
X195654Y6915D01*
X195615Y6894D01*
X195572Y6872D01*
X195516Y6846D01*
X195455Y6820D01*
X195386Y6795D01*
X195309Y6769D01*
X195227Y6747D01*
X195136Y6726D01*
X195042Y6708D01*
X194942Y6696D01*
X194839Y6687D01*
X194727Y6683D01*
X194684D01*
X194662Y6687D01*
X194636D01*
X194572Y6691D01*
X194494Y6700D01*
X194404Y6717D01*
X194300Y6734D01*
X194193Y6760D01*
X194080Y6795D01*
X193964Y6833D01*
X193848Y6885D01*
X193731Y6945D01*
X193619Y7014D01*
X193512Y7101D01*
X193408Y7195D01*
X193318Y7303D01*
X193313Y7307D01*
X193300Y7325D01*
X193283Y7355D01*
X193262Y7394D01*
X193236Y7441D01*
X193205Y7501D01*
X193171Y7570D01*
X193141Y7648D01*
X193106Y7734D01*
X193072Y7829D01*
X193042Y7932D01*
X193016Y8044D01*
X192994Y8161D01*
X192977Y8290D01*
X192964Y8424D01*
X192960Y8562D01*
Y8566D01*
Y8570D01*
Y8583D01*
Y8601D01*
Y8622D01*
X192964Y8648D01*
X192968Y8713D01*
X192973Y8786D01*
X192986Y8876D01*
X192999Y8971D01*
X193020Y9079D01*
X193046Y9191D01*
X193076Y9307D01*
X193115Y9424D01*
X193158Y9540D01*
X193214Y9656D01*
X193279Y9773D01*
X193352Y9881D01*
X193434Y9980D01*
X193438Y9984D01*
X193456Y10001D01*
X193481Y10027D01*
X193520Y10062D01*
X193568Y10100D01*
X193624Y10143D01*
X193688Y10191D01*
X193762Y10238D01*
X193843Y10286D01*
X193934Y10333D01*
X194033Y10376D01*
X194141Y10415D01*
X194253Y10449D01*
X194374Y10475D01*
X194499Y10493D01*
X194632Y10497D01*
X194667D01*
X194710Y10493D01*
D02*
G37*
%LPC*%
G36*
X131599Y32429D02*
X131487D01*
Y32317D01*
X131599D01*
Y32429D01*
D02*
G37*
G36*
X131487Y32317D02*
X131375D01*
Y32205D01*
X131487D01*
Y32317D01*
D02*
G37*
G36*
X127454Y22682D02*
X127342D01*
Y22570D01*
Y22457D01*
Y22345D01*
Y22233D01*
Y22121D01*
Y22009D01*
X127229D01*
Y21897D01*
Y21785D01*
Y21673D01*
Y21561D01*
Y21449D01*
Y21337D01*
X127118D01*
Y21225D01*
Y21113D01*
Y21001D01*
Y20889D01*
Y20777D01*
X127006D01*
Y20665D01*
Y20553D01*
Y20441D01*
Y20329D01*
Y20217D01*
Y20105D01*
X126893D01*
Y19993D01*
Y19881D01*
Y19769D01*
Y19657D01*
Y19545D01*
X126781D01*
Y19433D01*
Y19320D01*
Y19208D01*
Y19096D01*
Y18984D01*
Y18872D01*
X126669D01*
Y18760D01*
Y18648D01*
Y18536D01*
Y18424D01*
Y18312D01*
Y18200D01*
X126557D01*
Y18088D01*
Y17976D01*
Y17864D01*
Y17752D01*
Y17640D01*
Y17528D01*
X126445D01*
Y17416D01*
Y17304D01*
Y17192D01*
Y17080D01*
Y16968D01*
Y16856D01*
Y16744D01*
Y16632D01*
Y16520D01*
X126333D01*
Y16408D01*
Y16295D01*
Y16183D01*
Y16071D01*
Y15959D01*
Y15847D01*
Y15735D01*
Y15623D01*
Y15511D01*
Y15399D01*
Y15287D01*
Y15175D01*
Y15063D01*
Y14951D01*
Y14839D01*
Y14727D01*
Y14615D01*
Y14503D01*
Y14391D01*
Y14279D01*
Y14167D01*
Y14055D01*
Y13943D01*
Y13831D01*
Y13719D01*
Y13607D01*
Y13495D01*
Y13383D01*
Y13270D01*
Y13158D01*
Y13046D01*
Y12934D01*
X126445D01*
Y12822D01*
Y12710D01*
Y12598D01*
Y12486D01*
Y12374D01*
Y12262D01*
Y12150D01*
Y12038D01*
X126557D01*
Y11926D01*
Y11814D01*
Y11702D01*
Y11590D01*
Y11478D01*
X126669D01*
Y11366D01*
Y11254D01*
Y11142D01*
Y11030D01*
Y10918D01*
X126781D01*
Y10806D01*
Y10694D01*
Y10582D01*
X126893D01*
Y10469D01*
Y10357D01*
Y10245D01*
Y10133D01*
X127006D01*
Y10021D01*
Y9909D01*
Y9797D01*
X127118D01*
Y9909D01*
Y10021D01*
X127229D01*
Y10133D01*
Y10245D01*
Y10357D01*
X127342D01*
Y10469D01*
Y10582D01*
Y10694D01*
Y10806D01*
X127454D01*
Y10918D01*
Y11030D01*
Y11142D01*
Y11254D01*
X127566D01*
Y11366D01*
Y11478D01*
Y11590D01*
Y11702D01*
X127678D01*
Y11814D01*
Y11926D01*
Y12038D01*
Y12150D01*
Y12262D01*
X127790D01*
Y12374D01*
Y12486D01*
Y12598D01*
Y12710D01*
Y12822D01*
X127902D01*
Y12934D01*
Y13046D01*
Y13158D01*
Y13270D01*
Y13383D01*
Y13495D01*
Y13607D01*
X128014D01*
Y13719D01*
Y13831D01*
Y13943D01*
Y14055D01*
Y14167D01*
Y14279D01*
Y14391D01*
Y14503D01*
Y14615D01*
Y14727D01*
Y14839D01*
Y14951D01*
X128126D01*
Y15063D01*
Y15175D01*
Y15287D01*
Y15399D01*
Y15511D01*
Y15623D01*
Y15735D01*
Y15847D01*
Y15959D01*
Y16071D01*
Y16183D01*
Y16295D01*
Y16408D01*
Y16520D01*
Y16632D01*
Y16744D01*
Y16856D01*
Y16968D01*
Y17080D01*
Y17192D01*
Y17304D01*
X128014D01*
Y17416D01*
Y17528D01*
Y17640D01*
Y17752D01*
Y17864D01*
Y17976D01*
Y18088D01*
Y18200D01*
Y18312D01*
Y18424D01*
Y18536D01*
Y18648D01*
Y18760D01*
X127902D01*
Y18872D01*
Y18984D01*
Y19096D01*
Y19208D01*
Y19320D01*
Y19433D01*
Y19545D01*
Y19657D01*
X127790D01*
Y19769D01*
Y19881D01*
Y19993D01*
Y20105D01*
Y20217D01*
Y20329D01*
Y20441D01*
Y20553D01*
X127678D01*
Y20665D01*
Y20777D01*
Y20889D01*
Y21001D01*
Y21113D01*
Y21225D01*
Y21337D01*
X127566D01*
Y21449D01*
Y21561D01*
Y21673D01*
Y21785D01*
Y21897D01*
Y22009D01*
Y22121D01*
X127454D01*
Y22233D01*
Y22345D01*
Y22457D01*
Y22570D01*
Y22682D01*
D02*
G37*
G36*
X348807Y19127D02*
X342696D01*
Y18936D01*
X342887D01*
Y18745D01*
X342696D01*
Y18554D01*
Y18363D01*
Y18172D01*
Y17981D01*
Y17790D01*
Y17599D01*
Y17408D01*
Y17217D01*
Y17026D01*
Y16835D01*
Y16644D01*
Y16453D01*
Y16262D01*
Y16071D01*
Y15880D01*
Y15689D01*
Y15498D01*
Y15307D01*
X342887D01*
Y15116D01*
X343078D01*
Y14925D01*
X343269D01*
Y14734D01*
X348807D01*
Y14925D01*
Y15116D01*
X348998D01*
Y15307D01*
X349189D01*
Y15498D01*
Y15689D01*
Y15880D01*
Y16071D01*
Y16262D01*
Y16453D01*
Y16644D01*
Y16835D01*
Y17026D01*
Y17217D01*
Y17408D01*
Y17599D01*
Y17790D01*
Y17981D01*
Y18172D01*
Y18363D01*
Y18554D01*
X348998D01*
Y18745D01*
X348807D01*
Y18936D01*
Y19127D01*
D02*
G37*
G36*
X334293Y19891D02*
X334102D01*
Y19700D01*
X334293D01*
Y19891D01*
D02*
G37*
G36*
X290560Y15307D02*
X290369D01*
Y15116D01*
X290560D01*
Y15307D01*
D02*
G37*
G36*
X322262Y19891D02*
X322071D01*
Y19700D01*
X322262D01*
Y19891D01*
D02*
G37*
G36*
X320734Y16835D02*
X320543D01*
Y16644D01*
X320734D01*
Y16835D01*
D02*
G37*
G36*
X331047Y19127D02*
X325508D01*
Y18936D01*
X325317D01*
Y18745D01*
X325126D01*
Y18554D01*
X324935D01*
Y18363D01*
Y18172D01*
Y17981D01*
Y17790D01*
Y17599D01*
Y17408D01*
Y17217D01*
Y17026D01*
Y16835D01*
Y16644D01*
Y16453D01*
Y16262D01*
Y16071D01*
Y15880D01*
Y15689D01*
Y15498D01*
Y15307D01*
Y15116D01*
Y14925D01*
Y14734D01*
X325126D01*
Y14543D01*
X325317D01*
Y14734D01*
X330856D01*
Y14925D01*
X331429D01*
Y15116D01*
Y15307D01*
Y15498D01*
Y15689D01*
Y15880D01*
Y16071D01*
Y16262D01*
Y16453D01*
Y16644D01*
Y16835D01*
Y17026D01*
Y17217D01*
Y17408D01*
Y17599D01*
Y17790D01*
Y17981D01*
Y18172D01*
Y18363D01*
Y18554D01*
Y18745D01*
X331238D01*
Y18936D01*
X331047D01*
Y19127D01*
D02*
G37*
G36*
X197072Y15901D02*
X197037D01*
X197016Y15897D01*
X196985Y15892D01*
X196951Y15888D01*
X196869Y15866D01*
X196779Y15832D01*
X196731Y15810D01*
X196684Y15784D01*
X196632Y15754D01*
X196585Y15715D01*
X196537Y15672D01*
X196494Y15625D01*
X196490Y15621D01*
X196485Y15612D01*
X196473Y15595D01*
X196460Y15573D01*
X196442Y15547D01*
X196421Y15509D01*
X196399Y15470D01*
X196382Y15422D01*
X196361Y15366D01*
X196339Y15306D01*
X196317Y15241D01*
X196300Y15168D01*
X196287Y15086D01*
X196274Y15000D01*
X196270Y14909D01*
X196266Y14810D01*
Y14802D01*
Y14785D01*
Y14754D01*
X196270Y14716D01*
Y14668D01*
X196274Y14612D01*
X196279Y14552D01*
X196287Y14483D01*
X196304Y14345D01*
X196335Y14207D01*
X196352Y14138D01*
X196373Y14073D01*
X196399Y14013D01*
X196425Y13961D01*
X196429Y13957D01*
X196438Y13944D01*
X196451Y13927D01*
X196468Y13901D01*
X196494Y13875D01*
X196520Y13845D01*
X196554Y13810D01*
X196593Y13776D01*
X196636Y13737D01*
X196688Y13707D01*
X196740Y13672D01*
X196800Y13647D01*
X196860Y13621D01*
X196929Y13603D01*
X196998Y13591D01*
X197076Y13586D01*
X197106D01*
X197132Y13591D01*
X197162Y13595D01*
X197192Y13599D01*
X197270Y13621D01*
X197360Y13655D01*
X197408Y13677D01*
X197455Y13703D01*
X197503Y13737D01*
X197550Y13776D01*
X197597Y13819D01*
X197641Y13867D01*
X197645Y13871D01*
X197649Y13879D01*
X197662Y13897D01*
X197679Y13918D01*
X197697Y13948D01*
X197714Y13987D01*
X197735Y14030D01*
X197761Y14078D01*
X197783Y14138D01*
X197804Y14198D01*
X197822Y14267D01*
X197839Y14345D01*
X197856Y14427D01*
X197869Y14517D01*
X197873Y14612D01*
X197878Y14716D01*
Y14724D01*
Y14741D01*
Y14776D01*
X197873Y14819D01*
X197869Y14871D01*
X197865Y14931D01*
X197860Y14996D01*
X197847Y15065D01*
X197822Y15211D01*
X197783Y15362D01*
X197757Y15435D01*
X197727Y15504D01*
X197688Y15565D01*
X197649Y15621D01*
X197645Y15625D01*
X197641Y15633D01*
X197628Y15646D01*
X197606Y15664D01*
X197584Y15685D01*
X197559Y15711D01*
X197529Y15733D01*
X197490Y15763D01*
X197408Y15810D01*
X197309Y15858D01*
X197253Y15875D01*
X197197Y15888D01*
X197136Y15897D01*
X197072Y15901D01*
D02*
G37*
G36*
X190852Y14660D02*
X190844Y14655D01*
X190831D01*
X190818Y14647D01*
X190796Y14642D01*
X190770Y14634D01*
X190740Y14625D01*
X190706Y14616D01*
X190667Y14608D01*
X190624Y14595D01*
X190576Y14582D01*
X190525Y14569D01*
X190464Y14556D01*
X190404Y14539D01*
X190335Y14526D01*
X190262Y14509D01*
X190258D01*
X190245Y14504D01*
X190223Y14500D01*
X190197Y14496D01*
X190167Y14487D01*
X190128Y14479D01*
X190046Y14457D01*
X189956Y14431D01*
X189870Y14401D01*
X189831Y14388D01*
X189796Y14371D01*
X189762Y14358D01*
X189736Y14341D01*
X189727Y14336D01*
X189706Y14315D01*
X189676Y14289D01*
X189646Y14250D01*
X189611Y14198D01*
X189581Y14142D01*
X189559Y14073D01*
X189555Y14039D01*
X189551Y14000D01*
Y13996D01*
Y13991D01*
X189555Y13966D01*
X189559Y13927D01*
X189568Y13879D01*
X189590Y13828D01*
X189615Y13767D01*
X189650Y13707D01*
X189701Y13651D01*
X189710Y13647D01*
X189727Y13629D01*
X189762Y13603D01*
X189805Y13578D01*
X189861Y13552D01*
X189926Y13526D01*
X190003Y13509D01*
X190085Y13504D01*
X190111D01*
X190128Y13509D01*
X190154D01*
X190180Y13513D01*
X190245Y13526D01*
X190318Y13547D01*
X190404Y13573D01*
X190490Y13616D01*
X190581Y13672D01*
X190589Y13677D01*
X190611Y13698D01*
X190641Y13724D01*
X190676Y13763D01*
X190714Y13810D01*
X190753Y13867D01*
X190788Y13927D01*
X190814Y13996D01*
Y14000D01*
X190818Y14022D01*
X190826Y14052D01*
X190835Y14099D01*
Y14129D01*
X190839Y14164D01*
X190844Y14203D01*
X190848Y14246D01*
Y14293D01*
X190852Y14345D01*
Y14401D01*
Y14466D01*
Y14660D01*
D02*
G37*
G36*
X181413Y17103D02*
X180487D01*
Y15940D01*
X181465D01*
X181590Y15944D01*
X181711D01*
X181767Y15948D01*
X181814D01*
X181857Y15953D01*
X181900D01*
X181913Y15957D01*
X181931Y15961D01*
X181978Y15970D01*
X182034Y15987D01*
X182103Y16013D01*
X182168Y16043D01*
X182237Y16082D01*
X182297Y16134D01*
X182306Y16142D01*
X182323Y16159D01*
X182344Y16194D01*
X182375Y16241D01*
X182400Y16297D01*
X182426Y16362D01*
X182443Y16440D01*
X182448Y16526D01*
Y16530D01*
Y16534D01*
Y16547D01*
Y16565D01*
X182439Y16608D01*
X182431Y16664D01*
X182418Y16724D01*
X182392Y16784D01*
X182362Y16849D01*
X182318Y16905D01*
X182314Y16914D01*
X182293Y16927D01*
X182263Y16952D01*
X182224Y16983D01*
X182168Y17013D01*
X182103Y17043D01*
X182025Y17069D01*
X181935Y17086D01*
X181918D01*
X181900Y17090D01*
X181849D01*
X181814Y17095D01*
X181719D01*
X181659Y17099D01*
X181504D01*
X181413Y17103D01*
D02*
G37*
G36*
X181431Y15099D02*
X180487D01*
Y13759D01*
X181607D01*
X181663Y13763D01*
X181719D01*
X181836Y13767D01*
X181952Y13772D01*
X182004Y13776D01*
X182051Y13780D01*
X182090Y13785D01*
X182124Y13789D01*
X182133D01*
X182146Y13793D01*
X182163Y13798D01*
X182202Y13810D01*
X182254Y13828D01*
X182314Y13853D01*
X182375Y13888D01*
X182435Y13931D01*
X182491Y13987D01*
X182495Y13996D01*
X182512Y14017D01*
X182538Y14052D01*
X182564Y14099D01*
X182590Y14160D01*
X182616Y14233D01*
X182633Y14319D01*
X182637Y14414D01*
Y14418D01*
Y14422D01*
Y14435D01*
Y14453D01*
X182633Y14491D01*
X182624Y14547D01*
X182612Y14604D01*
X182590Y14668D01*
X182564Y14733D01*
X182525Y14793D01*
X182521Y14802D01*
X182504Y14819D01*
X182478Y14849D01*
X182443Y14884D01*
X182400Y14918D01*
X182344Y14957D01*
X182280Y14996D01*
X182206Y15026D01*
X182202D01*
X182198Y15030D01*
X182185Y15034D01*
X182163Y15039D01*
X182138Y15043D01*
X182103Y15047D01*
X182064Y15056D01*
X182017Y15065D01*
X181961Y15069D01*
X181896Y15078D01*
X181823Y15082D01*
X181741Y15086D01*
X181646Y15090D01*
X181543Y15095D01*
X181431Y15099D01*
D02*
G37*
G36*
X186197Y15849D02*
X186163D01*
X186133Y15845D01*
X186103Y15840D01*
X186064Y15832D01*
X186021Y15823D01*
X185978Y15815D01*
X185874Y15780D01*
X185822Y15754D01*
X185766Y15728D01*
X185715Y15694D01*
X185663Y15655D01*
X185611Y15612D01*
X185560Y15560D01*
X185555Y15556D01*
X185547Y15547D01*
X185538Y15530D01*
X185521Y15509D01*
X185499Y15478D01*
X185478Y15440D01*
X185456Y15396D01*
X185435Y15349D01*
X185409Y15293D01*
X185387Y15228D01*
X185366Y15164D01*
X185344Y15086D01*
X185327Y15009D01*
X185318Y14922D01*
X185310Y14828D01*
X185305Y14728D01*
Y14724D01*
Y14703D01*
Y14677D01*
X185310Y14638D01*
X185314Y14595D01*
X185318Y14543D01*
X185327Y14483D01*
X185336Y14422D01*
X185366Y14289D01*
X185387Y14216D01*
X185413Y14147D01*
X185443Y14082D01*
X185478Y14017D01*
X185517Y13953D01*
X185560Y13897D01*
X185564Y13892D01*
X185573Y13884D01*
X185585Y13871D01*
X185607Y13853D01*
X185633Y13832D01*
X185663Y13806D01*
X185697Y13780D01*
X185736Y13754D01*
X185779Y13728D01*
X185831Y13703D01*
X185939Y13655D01*
X185999Y13638D01*
X186060Y13625D01*
X186128Y13616D01*
X186197Y13612D01*
X186236D01*
X186262Y13616D01*
X186292Y13621D01*
X186331Y13629D01*
X186374Y13638D01*
X186422Y13647D01*
X186521Y13681D01*
X186573Y13703D01*
X186628Y13733D01*
X186680Y13763D01*
X186732Y13802D01*
X186784Y13845D01*
X186835Y13897D01*
X186840Y13901D01*
X186848Y13909D01*
X186861Y13927D01*
X186874Y13953D01*
X186896Y13979D01*
X186917Y14017D01*
X186939Y14060D01*
X186965Y14112D01*
X186990Y14168D01*
X187012Y14229D01*
X187034Y14298D01*
X187055Y14375D01*
X187068Y14457D01*
X187081Y14543D01*
X187090Y14638D01*
X187094Y14737D01*
Y14741D01*
Y14759D01*
Y14789D01*
X187090Y14823D01*
X187085Y14871D01*
X187081Y14922D01*
X187072Y14978D01*
X187064Y15039D01*
X187029Y15172D01*
X187012Y15241D01*
X186986Y15310D01*
X186956Y15379D01*
X186922Y15444D01*
X186883Y15504D01*
X186835Y15560D01*
X186831Y15565D01*
X186822Y15573D01*
X186810Y15586D01*
X186788Y15608D01*
X186762Y15629D01*
X186732Y15651D01*
X186697Y15677D01*
X186659Y15707D01*
X186616Y15733D01*
X186568Y15758D01*
X186456Y15806D01*
X186396Y15823D01*
X186335Y15836D01*
X186267Y15845D01*
X186197Y15849D01*
D02*
G37*
G36*
X174276Y17159D02*
X174250D01*
X174216Y17155D01*
X174173Y17151D01*
X174117Y17146D01*
X174056Y17138D01*
X173987Y17125D01*
X173910Y17103D01*
X173832Y17082D01*
X173750Y17052D01*
X173664Y17017D01*
X173578Y16974D01*
X173496Y16927D01*
X173414Y16866D01*
X173332Y16802D01*
X173259Y16724D01*
X173255Y16720D01*
X173242Y16702D01*
X173224Y16677D01*
X173198Y16642D01*
X173168Y16599D01*
X173138Y16543D01*
X173104Y16478D01*
X173069Y16401D01*
X173030Y16315D01*
X172996Y16220D01*
X172966Y16112D01*
X172936Y15996D01*
X172910Y15866D01*
X172892Y15733D01*
X172880Y15586D01*
X172875Y15427D01*
Y15422D01*
Y15418D01*
Y15405D01*
Y15388D01*
X172880Y15345D01*
Y15284D01*
X172888Y15215D01*
X172897Y15134D01*
X172910Y15043D01*
X172923Y14944D01*
X172944Y14841D01*
X172970Y14733D01*
X173005Y14625D01*
X173039Y14517D01*
X173087Y14414D01*
X173138Y14310D01*
X173198Y14216D01*
X173267Y14129D01*
X173272Y14125D01*
X173285Y14112D01*
X173306Y14091D01*
X173341Y14060D01*
X173380Y14026D01*
X173427Y13991D01*
X173479Y13953D01*
X173543Y13909D01*
X173612Y13871D01*
X173690Y13828D01*
X173772Y13793D01*
X173862Y13759D01*
X173957Y13728D01*
X174056Y13707D01*
X174164Y13694D01*
X174276Y13690D01*
X174302D01*
X174336Y13694D01*
X174375Y13698D01*
X174431Y13703D01*
X174487Y13711D01*
X174556Y13724D01*
X174629Y13746D01*
X174707Y13767D01*
X174789Y13798D01*
X174871Y13832D01*
X174953Y13875D01*
X175039Y13923D01*
X175121Y13983D01*
X175198Y14048D01*
X175276Y14125D01*
X175280Y14129D01*
X175293Y14147D01*
X175310Y14173D01*
X175336Y14207D01*
X175366Y14254D01*
X175401Y14310D01*
X175435Y14379D01*
X175474Y14453D01*
X175509Y14543D01*
X175543Y14638D01*
X175578Y14746D01*
X175608Y14866D01*
X175634Y14996D01*
X175651Y15134D01*
X175664Y15280D01*
X175668Y15440D01*
Y15444D01*
Y15448D01*
Y15461D01*
Y15478D01*
X175664Y15521D01*
Y15582D01*
X175655Y15655D01*
X175647Y15737D01*
X175638Y15827D01*
X175621Y15927D01*
X175599Y16030D01*
X175573Y16138D01*
X175543Y16246D01*
X175504Y16349D01*
X175461Y16457D01*
X175410Y16556D01*
X175354Y16646D01*
X175285Y16733D01*
X175280Y16737D01*
X175267Y16750D01*
X175246Y16771D01*
X175216Y16802D01*
X175177Y16832D01*
X175129Y16866D01*
X175078Y16905D01*
X175017Y16948D01*
X174948Y16987D01*
X174871Y17026D01*
X174789Y17060D01*
X174698Y17095D01*
X174604Y17120D01*
X174500Y17142D01*
X174392Y17155D01*
X174276Y17159D01*
D02*
G37*
G36*
X190520Y9760D02*
X190486D01*
X190464Y9756D01*
X190434Y9751D01*
X190400Y9747D01*
X190318Y9725D01*
X190227Y9691D01*
X190180Y9669D01*
X190132Y9644D01*
X190081Y9613D01*
X190033Y9575D01*
X189986Y9531D01*
X189943Y9484D01*
X189939Y9480D01*
X189934Y9471D01*
X189921Y9454D01*
X189908Y9432D01*
X189891Y9407D01*
X189870Y9368D01*
X189848Y9329D01*
X189831Y9281D01*
X189809Y9225D01*
X189788Y9165D01*
X189766Y9100D01*
X189749Y9027D01*
X189736Y8945D01*
X189723Y8859D01*
X189719Y8769D01*
X189715Y8670D01*
Y8661D01*
Y8644D01*
Y8613D01*
X189719Y8575D01*
Y8527D01*
X189723Y8471D01*
X189727Y8411D01*
X189736Y8342D01*
X189753Y8204D01*
X189783Y8066D01*
X189801Y7997D01*
X189822Y7932D01*
X189848Y7872D01*
X189874Y7820D01*
X189878Y7816D01*
X189887Y7803D01*
X189900Y7786D01*
X189917Y7760D01*
X189943Y7734D01*
X189969Y7704D01*
X190003Y7670D01*
X190042Y7635D01*
X190085Y7596D01*
X190137Y7566D01*
X190189Y7532D01*
X190249Y7506D01*
X190309Y7480D01*
X190378Y7463D01*
X190447Y7450D01*
X190525Y7445D01*
X190555D01*
X190581Y7450D01*
X190611Y7454D01*
X190641Y7458D01*
X190719Y7480D01*
X190809Y7514D01*
X190857Y7536D01*
X190904Y7562D01*
X190951Y7596D01*
X190999Y7635D01*
X191046Y7678D01*
X191089Y7726D01*
X191094Y7730D01*
X191098Y7739D01*
X191111Y7756D01*
X191128Y7777D01*
X191145Y7807D01*
X191163Y7846D01*
X191184Y7889D01*
X191210Y7937D01*
X191232Y7997D01*
X191253Y8057D01*
X191270Y8126D01*
X191288Y8204D01*
X191305Y8286D01*
X191318Y8376D01*
X191322Y8471D01*
X191326Y8575D01*
Y8583D01*
Y8601D01*
Y8635D01*
X191322Y8678D01*
X191318Y8730D01*
X191314Y8790D01*
X191309Y8855D01*
X191296Y8924D01*
X191270Y9070D01*
X191232Y9221D01*
X191206Y9294D01*
X191175Y9363D01*
X191137Y9424D01*
X191098Y9480D01*
X191094Y9484D01*
X191089Y9493D01*
X191076Y9506D01*
X191055Y9523D01*
X191033Y9544D01*
X191007Y9570D01*
X190977Y9592D01*
X190938Y9622D01*
X190857Y9669D01*
X190758Y9717D01*
X190701Y9734D01*
X190645Y9747D01*
X190585Y9756D01*
X190520Y9760D01*
D02*
G37*
G36*
X202817Y9734D02*
X202782D01*
X202757Y9730D01*
X202726Y9725D01*
X202692Y9721D01*
X202610Y9700D01*
X202515Y9665D01*
X202468Y9644D01*
X202416Y9618D01*
X202369Y9588D01*
X202317Y9549D01*
X202270Y9506D01*
X202226Y9458D01*
X202222Y9454D01*
X202218Y9445D01*
X202205Y9428D01*
X202192Y9407D01*
X202175Y9381D01*
X202153Y9346D01*
X202132Y9303D01*
X202110Y9256D01*
X202088Y9200D01*
X202067Y9139D01*
X202050Y9075D01*
X202028Y9001D01*
X202015Y8924D01*
X202002Y8838D01*
X201998Y8747D01*
X201994Y8648D01*
Y8639D01*
Y8622D01*
Y8588D01*
X201998Y8549D01*
X202002Y8497D01*
X202007Y8441D01*
X202015Y8376D01*
X202024Y8307D01*
X202054Y8157D01*
X202097Y8010D01*
X202123Y7937D01*
X202157Y7868D01*
X202192Y7803D01*
X202235Y7743D01*
X202239Y7739D01*
X202248Y7730D01*
X202261Y7717D01*
X202278Y7695D01*
X202304Y7674D01*
X202330Y7652D01*
X202364Y7622D01*
X202403Y7596D01*
X202489Y7544D01*
X202593Y7497D01*
X202649Y7476D01*
X202709Y7463D01*
X202769Y7454D01*
X202834Y7450D01*
X202869D01*
X202890Y7454D01*
X202920Y7458D01*
X202951Y7463D01*
X203032Y7484D01*
X203119Y7514D01*
X203166Y7536D01*
X203213Y7562D01*
X203261Y7592D01*
X203308Y7631D01*
X203351Y7670D01*
X203394Y7717D01*
X203399Y7721D01*
X203403Y7730D01*
X203416Y7747D01*
X203429Y7769D01*
X203446Y7799D01*
X203468Y7833D01*
X203489Y7881D01*
X203511Y7928D01*
X203528Y7988D01*
X203550Y8053D01*
X203571Y8126D01*
X203588Y8204D01*
X203601Y8290D01*
X203614Y8385D01*
X203619Y8488D01*
X203623Y8601D01*
Y8609D01*
Y8626D01*
Y8657D01*
X203619Y8695D01*
X203614Y8743D01*
X203610Y8799D01*
X203606Y8859D01*
X203593Y8924D01*
X203567Y9062D01*
X203524Y9204D01*
X203498Y9273D01*
X203468Y9337D01*
X203433Y9398D01*
X203390Y9454D01*
X203386Y9458D01*
X203381Y9467D01*
X203368Y9480D01*
X203347Y9497D01*
X203325Y9518D01*
X203300Y9544D01*
X203265Y9566D01*
X203231Y9596D01*
X203149Y9644D01*
X203050Y9691D01*
X202998Y9708D01*
X202938Y9721D01*
X202882Y9730D01*
X202817Y9734D01*
D02*
G37*
G36*
X173707Y10626D02*
X173030Y8764D01*
X174401D01*
X173707Y10626D01*
D02*
G37*
G36*
X198606Y9760D02*
X198576D01*
X198554Y9756D01*
X198524Y9751D01*
X198494Y9747D01*
X198421Y9730D01*
X198339Y9704D01*
X198253Y9661D01*
X198210Y9635D01*
X198166Y9605D01*
X198123Y9570D01*
X198084Y9527D01*
X198080Y9523D01*
X198076Y9518D01*
X198067Y9501D01*
X198054Y9484D01*
X198037Y9463D01*
X198020Y9432D01*
X198003Y9398D01*
X197981Y9363D01*
X197964Y9320D01*
X197942Y9273D01*
X197925Y9221D01*
X197912Y9165D01*
X197886Y9040D01*
X197882Y8975D01*
X197878Y8902D01*
X199326D01*
Y8907D01*
Y8919D01*
X199321Y8941D01*
Y8971D01*
X199317Y9006D01*
X199313Y9044D01*
X199304Y9092D01*
X199296Y9139D01*
X199265Y9243D01*
X199227Y9346D01*
X199175Y9450D01*
X199145Y9497D01*
X199106Y9540D01*
X199102Y9544D01*
X199097Y9549D01*
X199084Y9562D01*
X199067Y9575D01*
X199024Y9609D01*
X198968Y9652D01*
X198895Y9691D01*
X198809Y9725D01*
X198714Y9751D01*
X198662Y9756D01*
X198606Y9760D01*
D02*
G37*
G36*
X194693D02*
X194662D01*
X194641Y9756D01*
X194611Y9751D01*
X194580Y9747D01*
X194507Y9730D01*
X194425Y9704D01*
X194339Y9661D01*
X194296Y9635D01*
X194253Y9605D01*
X194210Y9570D01*
X194171Y9527D01*
X194167Y9523D01*
X194162Y9518D01*
X194154Y9501D01*
X194141Y9484D01*
X194124Y9463D01*
X194106Y9432D01*
X194089Y9398D01*
X194068Y9363D01*
X194050Y9320D01*
X194029Y9273D01*
X194011Y9221D01*
X193999Y9165D01*
X193973Y9040D01*
X193968Y8975D01*
X193964Y8902D01*
X195412D01*
Y8907D01*
Y8919D01*
X195408Y8941D01*
Y8971D01*
X195404Y9006D01*
X195399Y9044D01*
X195391Y9092D01*
X195382Y9139D01*
X195352Y9243D01*
X195313Y9346D01*
X195261Y9450D01*
X195231Y9497D01*
X195193Y9540D01*
X195188Y9544D01*
X195184Y9549D01*
X195171Y9562D01*
X195154Y9575D01*
X195111Y9609D01*
X195054Y9652D01*
X194981Y9691D01*
X194895Y9725D01*
X194800Y9751D01*
X194748Y9756D01*
X194693Y9760D01*
D02*
G37*
%LPD*%
D10*
X124047Y132709D02*
G03*
X124047Y132709I-1803J0D01*
G01*
X44047Y133209D02*
G03*
X44047Y133209I-1803J0D01*
G01*
X118307Y78740D02*
G03*
X118307Y78740I-35630J0D01*
G01*
X35000Y128622D02*
X129488D01*
Y192795D01*
X35000D02*
X129488D01*
X35000Y128622D02*
Y192795D01*
X21890Y221205D02*
Y253205D01*
X141890D01*
Y221205D02*
Y237205D01*
Y253205D01*
X21890Y221205D02*
X141890D01*
X214370Y327552D02*
Y390150D01*
X383661D01*
X214370Y327552D02*
X383661D01*
Y390150D01*
X199606Y327362D02*
Y389961D01*
X9646Y327362D02*
X199606D01*
X9646Y389961D02*
X199606D01*
X9646Y327362D02*
Y389961D01*
X21890Y257622D02*
Y289622D01*
X141890D01*
Y257622D02*
Y273622D01*
Y289622D01*
X21890Y257622D02*
X141890D01*
X124677Y78741D02*
X120678D01*
X122678Y76742D02*
Y80740D01*
X61417Y240407D02*
Y234409D01*
X64416D01*
X65416Y235409D01*
Y236409D01*
X64416Y237408D01*
X61417D01*
X64416D01*
X65416Y238408D01*
Y239408D01*
X64416Y240407D01*
X61417D01*
X67415Y234409D02*
X69415D01*
X68415D01*
Y238408D01*
X67415D01*
X74413Y232410D02*
X75413D01*
X76412Y233410D01*
Y238408D01*
X73413D01*
X72414Y237408D01*
Y235409D01*
X73413Y234409D01*
X76412D01*
X84410D02*
Y240407D01*
X87409D01*
X88409Y239408D01*
Y237408D01*
X87409Y236409D01*
X84410D01*
X86409D02*
X88409Y234409D01*
X93407D02*
X91408D01*
X90408Y235409D01*
Y237408D01*
X91408Y238408D01*
X93407D01*
X94407Y237408D01*
Y236409D01*
X90408D01*
X96406Y234409D02*
X99405D01*
X100405Y235409D01*
X99405Y236409D01*
X97406D01*
X96406Y237408D01*
X97406Y238408D01*
X100405D01*
X61417Y276470D02*
Y270472D01*
X64416D01*
X65416Y271472D01*
Y272472D01*
X64416Y273471D01*
X61417D01*
X64416D01*
X65416Y274471D01*
Y275471D01*
X64416Y276470D01*
X61417D01*
X67415Y270472D02*
X69415D01*
X68415D01*
Y274471D01*
X67415D01*
X74413Y268473D02*
X75413D01*
X76412Y269473D01*
Y274471D01*
X73413D01*
X72414Y273471D01*
Y271472D01*
X73413Y270472D01*
X76412D01*
X84410D02*
Y276470D01*
X87409D01*
X88409Y275471D01*
Y273471D01*
X87409Y272472D01*
X84410D01*
X86409D02*
X88409Y270472D01*
X93407D02*
X91408D01*
X90408Y271472D01*
Y273471D01*
X91408Y274471D01*
X93407D01*
X94407Y273471D01*
Y272472D01*
X90408D01*
X96406Y270472D02*
X99405D01*
X100405Y271472D01*
X99405Y272472D01*
X97406D01*
X96406Y273471D01*
X97406Y274471D01*
X100405D01*
X310931Y166944D02*
X309931Y165944D01*
Y163945D01*
X310931Y162945D01*
X314930D01*
X315929Y163945D01*
Y165944D01*
X314930Y166944D01*
X312930D01*
Y164944D01*
X309931Y168943D02*
X315929D01*
Y172942D01*
X309931Y174941D02*
X313930D01*
X315929Y176940D01*
X313930Y178940D01*
X309931D01*
X280431Y164945D02*
Y168944D01*
Y166944D01*
X286429D01*
X281431Y174942D02*
X280431Y173942D01*
Y171943D01*
X281431Y170943D01*
X282430D01*
X283430Y171943D01*
Y173942D01*
X284430Y174942D01*
X285430D01*
X286429Y173942D01*
Y171943D01*
X285430Y170943D01*
X186024Y316929D02*
Y322927D01*
X189023D01*
X190022Y321927D01*
Y319928D01*
X189023Y318929D01*
X186024D01*
X196020Y316929D02*
X192022D01*
X196020Y320928D01*
Y321927D01*
X195021Y322927D01*
X193021D01*
X192022Y321927D01*
X227362Y316929D02*
Y322927D01*
X230361D01*
X231361Y321927D01*
Y319928D01*
X230361Y318929D01*
X227362D01*
X233360Y316929D02*
X235360D01*
X234360D01*
Y322927D01*
X233360Y321927D01*
X339629Y262872D02*
X338629Y263872D01*
X336630D01*
X335630Y262872D01*
Y258874D01*
X336630Y257874D01*
X338629D01*
X339629Y258874D01*
X341628Y257874D02*
X343627D01*
X342628D01*
Y263872D01*
X341628Y262872D01*
X22638Y292323D02*
Y298321D01*
X25637D01*
X26636Y297321D01*
Y295322D01*
X25637Y294322D01*
X22638D01*
X24637D02*
X26636Y292323D01*
X28636D02*
X30635D01*
X29636D01*
Y298321D01*
X28636Y297321D01*
X33634D02*
X34634Y298321D01*
X36633D01*
X37633Y297321D01*
Y293322D01*
X36633Y292323D01*
X34634D01*
X33634Y293322D01*
Y297321D01*
X22638Y212598D02*
Y218597D01*
X25637D01*
X26636Y217597D01*
Y215598D01*
X25637Y214598D01*
X22638D01*
X24637D02*
X26636Y212598D01*
X28636Y213598D02*
X29636Y212598D01*
X31635D01*
X32635Y213598D01*
Y217597D01*
X31635Y218597D01*
X29636D01*
X28636Y217597D01*
Y216597D01*
X29636Y215598D01*
X32635D01*
X43369Y107361D02*
X42369Y108360D01*
X40370D01*
X39370Y107361D01*
Y103362D01*
X40370Y102362D01*
X42369D01*
X43369Y103362D01*
X48367Y102362D02*
Y108360D01*
X45368Y105361D01*
X49367D01*
X327818Y301258D02*
X326818Y302258D01*
X324819D01*
X323819Y301258D01*
Y297259D01*
X324819Y296260D01*
X326818D01*
X327818Y297259D01*
X333816Y296260D02*
X329817D01*
X333816Y300259D01*
Y301258D01*
X332816Y302258D01*
X330817D01*
X329817Y301258D01*
X154528Y28636D02*
X158526D01*
X156527D01*
Y22638D01*
X164524Y27636D02*
X163525Y28636D01*
X161525D01*
X160526Y27636D01*
Y26636D01*
X161525Y25637D01*
X163525D01*
X164524Y24637D01*
Y23638D01*
X163525Y22638D01*
X161525D01*
X160526Y23638D01*
X166524Y28636D02*
Y24637D01*
X168523Y22638D01*
X170522Y24637D01*
Y28636D01*
X172522Y22638D02*
Y28636D01*
X175521D01*
X176521Y27636D01*
Y25637D01*
X175521Y24637D01*
X172522D01*
X184518Y28636D02*
Y22638D01*
X187517D01*
X188517Y23638D01*
Y27636D01*
X187517Y28636D01*
X184518D01*
X194515Y27636D02*
X193515Y28636D01*
X191516D01*
X190516Y27636D01*
Y23638D01*
X191516Y22638D01*
X193515D01*
X194515Y23638D01*
X196514Y25637D02*
X200513D01*
X202512Y28636D02*
Y22638D01*
X205511D01*
X206511Y23638D01*
Y27636D01*
X205511Y28636D01*
X202512D01*
X212509Y27636D02*
X211509Y28636D01*
X209510D01*
X208510Y27636D01*
Y23638D01*
X209510Y22638D01*
X211509D01*
X212509Y23638D01*
X214508Y22638D02*
X216508D01*
X215508D01*
Y28636D01*
X214508Y27636D01*
X35433Y125093D02*
Y119095D01*
X39432D01*
X41431D02*
X43431D01*
X42431D01*
Y125093D01*
X41431Y124093D01*
D11*
X154134Y35000D02*
Y249961D01*
X369094D01*
Y35000D02*
Y249961D01*
X154134Y35000D02*
X369094D01*
X256893Y264761D02*
X254925Y262793D01*
Y258858D01*
X256893Y256890D01*
X264764D01*
X266732Y258858D01*
Y262793D01*
X264764Y264761D01*
X260829D01*
Y260825D01*
X254925Y268697D02*
X266732D01*
Y276568D01*
X254925Y280504D02*
X262796D01*
X266732Y284440D01*
X262796Y288376D01*
X254925D01*
X221461Y256890D02*
Y264761D01*
Y260825D01*
X233268D01*
X223428Y276568D02*
X221461Y274601D01*
Y270665D01*
X223428Y268697D01*
X225396D01*
X227364Y270665D01*
Y274601D01*
X229332Y276568D01*
X231300D01*
X233268Y274601D01*
Y270665D01*
X231300Y268697D01*
D12*
X309449Y302165D02*
X312598D01*
X309449Y296260D02*
X312598D01*
X289567Y279173D02*
Y283996D01*
X295571Y290000D01*
X289567Y262933D02*
X295571Y256929D01*
X289567Y262933D02*
Y267756D01*
X295571Y290000D02*
X332480D01*
Y279173D02*
Y290000D01*
Y256929D02*
Y267756D01*
X295571Y256929D02*
X332480D01*
D13*
X207000Y296654D02*
X244094D01*
X207000D02*
Y386500D01*
X242830Y10144D02*
X244094Y296654D01*
D14*
X82209Y323414D02*
X86207D01*
X84208D01*
Y317416D01*
X92205Y322414D02*
X91206Y323414D01*
X89206D01*
X88207Y322414D01*
Y321414D01*
X89206Y320415D01*
X91206D01*
X92205Y319415D01*
Y318415D01*
X91206Y317416D01*
X89206D01*
X88207Y318415D01*
X94205Y320415D02*
X98203D01*
X82209Y312616D02*
X86207D01*
X84208D01*
Y306618D01*
X92205Y311616D02*
X91206Y312616D01*
X89206D01*
X88207Y311616D01*
Y310617D01*
X89206Y309617D01*
X91206D01*
X92205Y308617D01*
Y307618D01*
X91206Y306618D01*
X89206D01*
X88207Y307618D01*
X94205Y309617D02*
X98203D01*
X96204Y311616D02*
Y307618D01*
X288902Y323368D02*
X292900D01*
X290901Y325367D02*
Y321368D01*
X306896Y323368D02*
X310894D01*
X288902Y315569D02*
X292900D01*
X290901D01*
Y309571D01*
X298898Y314569D02*
X297899Y315569D01*
X295899D01*
X294900Y314569D01*
Y313570D01*
X295899Y312570D01*
X297899D01*
X298898Y311570D01*
Y310571D01*
X297899Y309571D01*
X295899D01*
X294900Y310571D01*
X300898Y309571D02*
Y313570D01*
X302897Y315569D01*
X304896Y313570D01*
Y309571D01*
Y312570D01*
X300898D01*
X306896Y315569D02*
Y309571D01*
X310894D01*
X112721Y320415D02*
X116719D01*
X118719Y323414D02*
X122717D01*
X120718D01*
Y317416D01*
X128715Y323414D02*
X124717D01*
Y317416D01*
X128715D01*
X124717Y320415D02*
X126716D01*
X134713Y322414D02*
X133714Y323414D01*
X131714D01*
X130715Y322414D01*
Y321414D01*
X131714Y320415D01*
X133714D01*
X134713Y319415D01*
Y318415D01*
X133714Y317416D01*
X131714D01*
X130715Y318415D01*
X136713Y323414D02*
X140711D01*
X138712D01*
Y317416D01*
X112721Y309617D02*
X116719D01*
X114720Y311616D02*
Y307618D01*
X118719Y312616D02*
X122717D01*
X120718D01*
Y306618D01*
X128715Y312616D02*
X124717D01*
Y306618D01*
X128715D01*
X124717Y309617D02*
X126716D01*
X134713Y311616D02*
X133714Y312616D01*
X131714D01*
X130715Y311616D01*
Y310617D01*
X131714Y309617D01*
X133714D01*
X134713Y308617D01*
Y307618D01*
X133714Y306618D01*
X131714D01*
X130715Y307618D01*
X136713Y312616D02*
X140711D01*
X138712D01*
Y306618D01*
M02*
