G04*
G04 #@! TF.GenerationSoftware,Altium Limited,Altium Designer,18.1.9 (240)*
G04*
G04 Layer_Physical_Order=1*
G04 Layer_Color=255*
%FSLAX25Y25*%
%MOIN*%
G70*
G01*
G75*
%ADD15R,0.04331X0.06693*%
%ADD16R,0.17717X0.09055*%
%ADD29C,0.03937*%
%ADD30C,0.09843*%
%ADD31C,0.05906*%
%ADD32C,0.07874*%
%ADD33C,0.10236*%
%ADD34C,0.12598*%
%ADD35R,0.07000X0.07000*%
%ADD36C,0.07000*%
%ADD37C,0.09843*%
G04:AMPARAMS|DCode=38|XSize=118.11mil|YSize=118.11mil|CornerRadius=29.53mil|HoleSize=0mil|Usage=FLASHONLY|Rotation=0.000|XOffset=0mil|YOffset=0mil|HoleType=Round|Shape=RoundedRectangle|*
%AMROUNDEDRECTD38*
21,1,0.11811,0.05906,0,0,0.0*
21,1,0.05906,0.11811,0,0,0.0*
1,1,0.05906,0.02953,-0.02953*
1,1,0.05906,-0.02953,-0.02953*
1,1,0.05906,-0.02953,0.02953*
1,1,0.05906,0.02953,0.02953*
%
%ADD38ROUNDEDRECTD38*%
%ADD39C,0.11811*%
G04:AMPARAMS|DCode=40|XSize=118.11mil|YSize=118.11mil|CornerRadius=14.76mil|HoleSize=0mil|Usage=FLASHONLY|Rotation=0.000|XOffset=0mil|YOffset=0mil|HoleType=Round|Shape=RoundedRectangle|*
%AMROUNDEDRECTD40*
21,1,0.11811,0.08858,0,0,0.0*
21,1,0.08858,0.11811,0,0,0.0*
1,1,0.02953,0.04429,-0.04429*
1,1,0.02953,-0.04429,-0.04429*
1,1,0.02953,-0.04429,0.04429*
1,1,0.02953,0.04429,0.04429*
%
%ADD40ROUNDEDRECTD40*%
%ADD41C,0.03937*%
G36*
X290880Y354782D02*
X290679Y354486D01*
X290502Y354149D01*
X290348Y353768D01*
X290218Y353346D01*
X290112Y352880D01*
X290029Y352373D01*
X289970Y351822D01*
X289923Y350594D01*
X284017D01*
X284005Y351230D01*
X283911Y352373D01*
X283828Y352880D01*
X283722Y353346D01*
X283592Y353768D01*
X283439Y354149D01*
X283261Y354486D01*
X283061Y354782D01*
X282836Y355035D01*
X291104D01*
X290880Y354782D01*
D02*
G37*
G36*
X315524Y361238D02*
X315358Y360696D01*
X315359Y360070D01*
X315527Y359360D01*
X315862Y358567D01*
X316365Y357690D01*
X317034Y356729D01*
X317870Y355685D01*
X320044Y353344D01*
X315868Y349168D01*
X314656Y350339D01*
X312483Y352179D01*
X311523Y352848D01*
X310646Y353350D01*
X309852Y353685D01*
X309143Y353854D01*
X308517Y353855D01*
X307975Y353689D01*
X307517Y353356D01*
X315856Y361696D01*
X315524Y361238D01*
D02*
G37*
G36*
X324756Y303848D02*
X323566Y302640D01*
X319494Y297972D01*
X319056Y297312D01*
X318742Y296743D01*
X318555Y296265D01*
X318492Y295878D01*
X314185Y302547D01*
X314415Y302602D01*
X314735Y302766D01*
X315146Y303040D01*
X315649Y303423D01*
X316928Y304519D01*
X320580Y308023D01*
X324756Y303848D01*
D02*
G37*
G36*
X307862Y302547D02*
X303555Y295878D01*
X303495Y296450D01*
X303313Y297089D01*
X303009Y297796D01*
X302585Y298570D01*
X302039Y299412D01*
X301371Y300322D01*
X299673Y302343D01*
X297488Y304635D01*
X301664Y308811D01*
X307862Y302547D01*
D02*
G37*
G36*
X322193Y281361D02*
X323750Y280021D01*
X324485Y279477D01*
X325191Y279017D01*
X325868Y278640D01*
X326516Y278346D01*
X327134Y278137D01*
X327724Y278011D01*
X328284Y277968D01*
X317040Y277980D01*
X317055Y277994D01*
X317040Y278035D01*
X316995Y278103D01*
X316920Y278199D01*
X316677Y278473D01*
X315826Y279349D01*
X321370Y282156D01*
X322193Y281361D01*
D02*
G37*
G36*
X306222Y279349D02*
X305991Y279117D01*
X305020Y278022D01*
X305008Y277980D01*
X293763Y277968D01*
X294323Y278011D01*
X294913Y278137D01*
X295532Y278346D01*
X296179Y278640D01*
X296856Y279017D01*
X297562Y279477D01*
X298297Y280021D01*
X299855Y281361D01*
X300677Y282156D01*
X306222Y279349D01*
D02*
G37*
G36*
X301506Y268902D02*
X301004Y268724D01*
X300561Y268428D01*
X300177Y268014D01*
X299852Y267482D01*
X299587Y266831D01*
X299380Y266061D01*
X299232Y265174D01*
X299144Y264168D01*
X299114Y263043D01*
X293209D01*
X293179Y264168D01*
X293091Y265174D01*
X292943Y266061D01*
X292736Y266831D01*
X292471Y267482D01*
X292146Y268014D01*
X291762Y268428D01*
X291319Y268724D01*
X290817Y268902D01*
X290256Y268961D01*
X302067D01*
X301506Y268902D01*
D02*
G37*
G36*
X343341Y184125D02*
X342882Y183646D01*
X342110Y182710D01*
X341797Y182253D01*
X341533Y181803D01*
X341318Y181361D01*
X341152Y180927D01*
X341034Y180500D01*
X340965Y180081D01*
X340945Y179669D01*
X334709Y185905D01*
X335120Y185925D01*
X335540Y185995D01*
X335966Y186112D01*
X336401Y186279D01*
X336842Y186494D01*
X337292Y186758D01*
X337749Y187071D01*
X338213Y187432D01*
X338685Y187842D01*
X339165Y188301D01*
X343341Y184125D01*
D02*
G37*
G36*
X330147Y145197D02*
X329842Y145474D01*
X329496Y145721D01*
X329111Y145940D01*
X328686Y146129D01*
X328222Y146289D01*
X327717Y146421D01*
X327173Y146522D01*
X326589Y146595D01*
X325965Y146639D01*
X325302Y146653D01*
Y152559D01*
X325965Y152574D01*
X327173Y152690D01*
X327717Y152792D01*
X328222Y152923D01*
X328686Y153084D01*
X329111Y153273D01*
X329496Y153491D01*
X329842Y153739D01*
X330147Y154016D01*
Y145197D01*
D02*
G37*
D15*
X305709Y299213D02*
D03*
X316339D02*
D03*
D16*
X296161Y273465D02*
D03*
X325886D02*
D03*
D29*
X191890Y209606D02*
X199646D01*
X141732Y159449D02*
X191890Y209606D01*
X87598Y159449D02*
X141732D01*
X82677Y164370D02*
X87598Y159449D01*
D30*
X64784Y256713D02*
Y356122D01*
X56102Y248031D02*
X64784Y256713D01*
X42717Y248031D02*
X56102D01*
X31890Y237205D02*
X42717Y248031D01*
X42244Y180709D02*
Y207165D01*
X31890Y217520D02*
X42244Y207165D01*
X31890Y217520D02*
Y237205D01*
X78642Y369980D02*
X93110D01*
X64784Y356122D02*
X78642Y369980D01*
X190827Y98425D02*
X199646Y89606D01*
X87598Y98425D02*
X190827D01*
X67913Y78740D02*
X87598Y98425D01*
D31*
X304134Y281437D02*
Y302165D01*
X286970Y319329D02*
X304134Y302165D01*
X286970Y319329D02*
Y359252D01*
X325768Y309035D02*
Y343445D01*
X309961Y359252D02*
X325768Y343445D01*
X296161Y273465D02*
X304134Y281437D01*
X317913Y281437D02*
Y301181D01*
X325768Y309035D01*
X317913Y281437D02*
X325886Y273465D01*
Y266634D02*
Y273465D01*
Y266634D02*
X348425Y244094D01*
Y193386D02*
Y244094D01*
X334646Y179606D02*
X348425Y193386D01*
X318898Y149606D02*
X334646D01*
X296161Y172343D02*
X318898Y149606D01*
X296161Y172343D02*
Y273465D01*
D32*
X42244Y140709D02*
D03*
X122244D02*
D03*
Y180709D02*
D03*
X42244D02*
D03*
D33*
X317914Y42874D02*
D03*
Y242087D02*
D03*
X199646Y74606D02*
D03*
Y89606D02*
D03*
D34*
X334646Y74606D02*
D03*
X199646Y209606D02*
D03*
Y164606D02*
D03*
Y119606D02*
D03*
X334646Y149606D02*
D03*
Y179606D02*
D03*
D35*
X97441Y78740D02*
D03*
D36*
X67913D02*
D03*
D37*
X131890Y237205D02*
D03*
X31890D02*
D03*
X131890Y273622D02*
D03*
X31890D02*
D03*
D38*
X309961Y359252D02*
D03*
D39*
X286970D02*
D03*
X93110Y347047D02*
D03*
X116142Y369980D02*
D03*
X93110D02*
D03*
D40*
X116142Y346949D02*
D03*
D41*
X82677Y164370D02*
D03*
M02*
