G04*
G04 #@! TF.GenerationSoftware,Altium Limited,Altium Designer,18.1.9 (240)*
G04*
G04 Layer_Color=8388736*
%FSLAX25Y25*%
%MOIN*%
G70*
G01*
G75*
%ADD17R,0.05131X0.07493*%
%ADD18R,0.18517X0.09855*%
%ADD19C,0.08674*%
%ADD20C,0.11036*%
%ADD21C,0.13398*%
%ADD22R,0.07800X0.07800*%
%ADD23C,0.07800*%
%ADD24C,0.10642*%
%ADD25C,0.00800*%
G04:AMPARAMS|DCode=26|XSize=126.11mil|YSize=126.11mil|CornerRadius=33.53mil|HoleSize=0mil|Usage=FLASHONLY|Rotation=0.000|XOffset=0mil|YOffset=0mil|HoleType=Round|Shape=RoundedRectangle|*
%AMROUNDEDRECTD26*
21,1,0.12611,0.05906,0,0,0.0*
21,1,0.05906,0.12611,0,0,0.0*
1,1,0.06706,0.02953,-0.02953*
1,1,0.06706,-0.02953,-0.02953*
1,1,0.06706,-0.02953,0.02953*
1,1,0.06706,0.02953,0.02953*
%
%ADD26ROUNDEDRECTD26*%
%ADD27C,0.12611*%
G04:AMPARAMS|DCode=28|XSize=126.11mil|YSize=126.11mil|CornerRadius=18.76mil|HoleSize=0mil|Usage=FLASHONLY|Rotation=0.000|XOffset=0mil|YOffset=0mil|HoleType=Round|Shape=RoundedRectangle|*
%AMROUNDEDRECTD28*
21,1,0.12611,0.08858,0,0,0.0*
21,1,0.08858,0.12611,0,0,0.0*
1,1,0.03753,0.04429,-0.04429*
1,1,0.03753,-0.04429,-0.04429*
1,1,0.03753,-0.04429,0.04429*
1,1,0.03753,0.04429,0.04429*
%
%ADD28ROUNDEDRECTD28*%
D17*
X305709Y299213D02*
D03*
X316339D02*
D03*
D18*
X296161Y273465D02*
D03*
X325886D02*
D03*
D19*
X42244Y140709D02*
D03*
X122244D02*
D03*
Y180709D02*
D03*
X42244D02*
D03*
D20*
X317914Y42874D02*
D03*
Y242087D02*
D03*
X199646Y74606D02*
D03*
Y89606D02*
D03*
D21*
X334646Y74606D02*
D03*
X199646Y209606D02*
D03*
Y164606D02*
D03*
Y119606D02*
D03*
X334646Y149606D02*
D03*
Y179606D02*
D03*
D22*
X97441Y78740D02*
D03*
D23*
X67913D02*
D03*
D24*
X131890Y237205D02*
D03*
X31890D02*
D03*
X131890Y273622D02*
D03*
X31890D02*
D03*
D25*
X369488Y359252D02*
D03*
X227362D02*
D03*
X23937Y358189D02*
D03*
X186024Y358268D02*
D03*
X19685Y19685D02*
D03*
X374016Y314961D02*
D03*
Y19685D02*
D03*
X19685Y314961D02*
D03*
D26*
X309961Y359252D02*
D03*
D27*
X286970D02*
D03*
X93110Y347047D02*
D03*
X116142Y369980D02*
D03*
X93110D02*
D03*
D28*
X116142Y346949D02*
D03*
M02*
