M48
;Layer_Color=9474304
;FILE_FORMAT=2:5
INCH,LZ
;TYPE=PLATED
T1F00S00C0.01968
T2F00S00C0.03543
T3F00S00C0.03937
T4F00S00C0.05906
T5F00S00C0.06299
T6F00S00C0.06299
T7F00S00C0.15748
;TYPE=NON_PLATED
T8F00S00C0.10236
T9F00S00C0.19685
%
T01
X0082677Y016437
T02
X0067913Y007874
X0097441
T03
X0042244Y0140709
Y0180709
X0122244
Y0140709
T04
X003189Y0237205
Y0273622
X013189
Y0237205
T05
X009311Y0347047
X0116142Y0346949
X028697Y0359252
X0309961
X0116142Y036998
X009311
T06
X0334646Y0074606
Y0149606
Y0179606
X0199646Y0164606
Y0119606
Y0089606
Y0074606
Y0209606
T07
X0019685Y0019685
X0374016
X0019685Y0314961
X0374016
T08
X0317914Y0042874
Y0242087
T09
X0023937Y0358189
X0186024Y0358268
X0227362Y0359252
X0369488
M30
