G04*
G04 #@! TF.GenerationSoftware,Altium Limited,Altium Designer,18.1.9 (240)*
G04*
G04 Layer_Color=32768*
%FSLAX25Y25*%
%MOIN*%
G70*
G01*
G75*
%ADD44C,0.00394*%
%ADD45C,0.00197*%
D44*
X81272Y191890D02*
X85209D01*
X83240Y189921D02*
Y193858D01*
X63189Y160591D02*
Y168071D01*
X78937Y160591D02*
Y168071D01*
X63189Y160591D02*
X78937D01*
X63189Y168071D02*
X78937D01*
X69094Y164331D02*
X73031D01*
X71063Y162362D02*
Y166299D01*
X311024Y297244D02*
Y301181D01*
X309055Y299213D02*
X312992D01*
X303150Y302953D02*
X318898D01*
X303150Y295472D02*
X318898D01*
X303150D02*
Y302953D01*
X318898Y295472D02*
Y302953D01*
X309055Y273465D02*
X312992D01*
X311024Y271496D02*
Y275433D01*
X80905Y128898D02*
X84843D01*
X82874Y126929D02*
Y130866D01*
X86811Y160591D02*
Y168071D01*
X102559Y160591D02*
Y168071D01*
X86811Y160591D02*
X102559D01*
X86811Y168071D02*
X102559D01*
X92716Y164331D02*
X96653D01*
X94685Y162362D02*
Y166299D01*
D45*
X66508Y175748D02*
Y208032D01*
X99972Y175748D02*
Y208032D01*
X66508Y175748D02*
X99972D01*
X66508Y208032D02*
X99972D01*
X283268Y252992D02*
Y293937D01*
X338780Y252992D02*
Y293937D01*
X283268D02*
X338780D01*
X283268Y252992D02*
X338780D01*
X66142Y112756D02*
Y145039D01*
X99606Y112756D02*
Y145039D01*
X66142Y112756D02*
X99606D01*
X66142Y145039D02*
X99606D01*
M02*
