M48
;Layer_Color=9474304
;FILE_FORMAT=2:5
INCH,LZ
;TYPE=PLATED
T1F00S00C0.01968
T2F00S00C0.03543
T3F00S00C0.03937
T4F00S00C0.05906
T5F00S00C0.06299
T6F00S00C0.15748
;TYPE=NON_PLATED
T7F00S00C0.10236
%
T01
X00995Y0216
X01465Y02551
T02
X0092Y0040736
Y0070264
T03
X0040386Y0121
Y0161
X0120386
Y0121
T04
X004115Y023122
Y0245
X00495Y0273516
X01475
X0363532Y0273169
Y025939
X0363532Y0293104
Y0306884
X01475Y0373516
X010578Y0368555
X0092
X00495Y0373516
T05
X0342Y00705
Y01455
Y01755
X0207Y01605
Y01155
Y00855
Y00705
Y02055
T06
X0013Y00145
X0371
Y03735
X0013
T07
X0325268Y0038768
Y023798
M30
